<svg width="364" height="300" fill="none" xmlns="http://www.w3.org/2000/svg"><mask id="b" fill="#fff"><path d="m146.244 88.789 28.555 129.171a2.684 2.684 0 0 1-2.014 3.207l-138.12 31.458a2.731 2.731 0 0 1-3.25-2.166L3.25 128.632s-1.755-6.262-1.083-7.193c.671-.932 6.37-1.885 6.37-1.885L141.543 89.85"/></mask><path d="m146.244 88.789 28.555 129.171a2.684 2.684 0 0 1-2.014 3.207l-138.12 31.458a2.731 2.731 0 0 1-3.25-2.166L3.25 128.632s-1.755-6.262-1.083-7.193c.671-.932 6.37-1.885 6.37-1.885L141.543 89.85" fill="#fff"/><path d="m174.799 217.96-1.953.431.002.009 1.951-.44Zm-.346 2.019-1.693-1.065v.001l1.693 1.064Zm-1.668 1.188.444 1.95.01-.002-.454-1.948Zm-138.12 31.458.418 1.956.013-.003.014-.003-.445-1.95Zm-1.08.011-.38 1.964.006.001.374-1.965Zm-1.764-1.176 1.67-1.102-.002-.003-1.668 1.105Zm-.405-1.001 1.965-.37-.008-.04-.009-.041-1.948.451ZM3.25 128.632l1.949-.451-.01-.045-.013-.044-1.926.54Zm5.287-9.078.33 1.973.053-.009.052-.012-.435-1.952ZM144.29 89.22l28.555 129.171 3.906-.863-28.555-129.171-3.906.863Zm28.557 129.18a.683.683 0 0 1-.088.514l3.386 2.13c.66-1.05.876-2.317.604-3.524l-3.902.88Zm-.088.515a.695.695 0 0 1-.429.304l.908 3.896a4.691 4.691 0 0 0 2.907-2.072l-3.386-2.128Zm-.419.302-138.12 31.458.889 3.9 138.119-31.458-.888-3.9ZM34.248 250.669a.74.74 0 0 1-.29.002l-.747 3.93a4.741 4.741 0 0 0 1.872-.02l-.835-3.912Zm-.284.003a.741.741 0 0 1-.27-.11l-2.22 3.328c.526.35 1.115.59 1.732.71l.758-3.928Zm-.27-.11a.726.726 0 0 1-.204-.204l-3.338 2.204a4.74 4.74 0 0 0 1.322 1.328l2.22-3.328Zm-.205-.207a.72.72 0 0 1-.108-.266l-3.931.739c.116.619.355 1.21.704 1.736l3.335-2.209Zm-.125-.347L5.2 128.181l-3.897.901 28.165 121.827 3.897-.901ZM3.25 128.632l1.926-.54v-.002l-.004-.012a2.783 2.783 0 0 1-.013-.048l-.052-.19a58.456 58.456 0 0 1-.693-2.868c-.172-.815-.311-1.602-.37-2.21a4.281 4.281 0 0 1-.027-.622c.013-.211.044.092-.228.469l-3.245-2.34c-.439.61-.5 1.312-.52 1.622-.025.411-.002.85.038 1.259.08.827.255 1.781.438 2.648a57.374 57.374 0 0 0 .818 3.351l.004.016.002.004v.002l1.926-.539Zm.54-6.023c-.202.279-.392.339-.229.253.1-.052.278-.129.546-.223.53-.186 1.227-.374 1.954-.545a48.357 48.357 0 0 1 1.95-.412c.262-.05.479-.089.629-.116l.172-.03.043-.007.01-.002h.002l-.33-1.973-.33-1.973-.001.001H8.2a3.812 3.812 0 0 0-.067.012l-.192.034a51.658 51.658 0 0 0-2.795.572c-.78.184-1.635.409-2.362.664-.361.126-.739.277-1.078.455-.277.144-.792.438-1.162.95l3.245 2.34Zm5.182-1.103L141.98 91.802l-.872-3.904L8.101 117.602l.871 3.904Z" fill="url(#a)" mask="url(#b)"/><path d="M38.495 178.254a5 5 0 1 0-2.418-9.703 5 5 0 0 0 2.418 9.703Z" fill="url(#c)"/><path d="M174.321 172.128a5 5 0 1 0-2.418-9.703 5 5 0 0 0 2.418 9.703Z" fill="url(#d)"/><path d="m106.446 118.968-79.565 19.835c-2.143.534-3.773 1.402-3.64 1.938.134.536 1.98.537 4.124.002l79.565-19.835c2.143-.534 3.773-1.402 3.639-1.938-.133-.536-1.979-.537-4.123-.002ZM71.02 142.227l-40.752 10.16c-2.144.534-3.773 1.402-3.64 1.938.134.536 1.98.537 4.124.002l40.752-10.159c2.144-.534 3.773-1.402 3.64-1.938-.134-.536-1.98-.537-4.123-.003Z" fill="#0D0D0D"/><path d="m83.135 161.881-32.99 8.224c-1.608.401-2.803 1.16-2.67 1.696.134.536 1.545.646 3.153.245l32.99-8.225c1.608-.4 2.803-1.16 2.67-1.695-.134-.536-1.546-.646-3.153-.245Z" fill="url(#e)"/><path d="m128.73 162.881-91.208 22.738c-1.608.401-2.803 1.16-2.67 1.696.134.536 1.546.645 3.154.245l91.208-22.738c1.608-.401 2.803-1.16 2.669-1.696-.134-.536-1.545-.646-3.153-.245Z" fill="url(#f)"/><path d="m110.286 179.847-69.861 17.416c-1.608.401-2.803 1.16-2.67 1.696.134.536 1.546.645 3.153.245l69.862-17.417c1.608-.4 2.803-1.16 2.669-1.696-.133-.536-1.545-.645-3.153-.244Z" fill="url(#g)"/><path d="m158.802 167.752-32.991 8.224c-1.607.401-2.802 1.161-2.669 1.696.134.536 1.545.646 3.153.245l32.99-8.224c1.608-.401 2.803-1.16 2.669-1.696-.133-.536-1.545-.646-3.152-.245Z" fill="url(#h)"/><path d="m142.298 184.233-98.97 24.674c-1.608.4-2.803 1.16-2.67 1.696.134.535 1.545.645 3.153.244l98.971-24.673c1.608-.401 2.803-1.16 2.669-1.696-.133-.536-1.545-.645-3.153-.245Z" fill="url(#i)"/><mask id="j" fill="#fff"><path d="M114.247 200.887 100.728 69.311a2.685 2.685 0 0 1 2.383-2.947l140.828-15.166a2.753 2.753 0 0 1 2.989 2.427L260.881 177.9s.997 6.499.239 7.279c-.759.78-6.5 1.127-6.5 1.127l-135.519 14.039"/></mask><path d="M114.247 200.887 100.728 69.311a2.685 2.685 0 0 1 2.383-2.947l140.828-15.166a2.753 2.753 0 0 1 2.989 2.427L260.881 177.9s.997 6.499.239 7.279c-.759.78-6.5 1.127-6.5 1.127l-135.519 14.039" fill="#fff"/><path d="m100.728 69.311 1.99-.204-.001-.002-1.989.206Zm.584-1.965 1.555 1.258.001-.001-1.556-1.257Zm1.799-.981-.214-1.989h-.001l.215 1.989Zm140.828-15.166-.186-1.992-.014.002-.014.001.214 1.989Zm1.99.603-1.26 1.553 1.26-1.553Zm.999 1.823 1.988-.223-.001-.002-1.987.225ZM260.881 177.9l-1.987.223.004.04.006.04 1.977-.303Zm.239 7.279 1.433 1.395.001-.001-1.434-1.394Zm-6.5 1.127-.121-1.996-.042.002-.043.005.206 1.989Zm-138.383 14.377L102.718 69.107l-3.98.408 13.52 131.577 3.979-.409Zm-13.52-131.578a.685.685 0 0 1 .15-.5l-3.11-2.517a4.684 4.684 0 0 0-1.018 3.429l3.978-.412Zm.151-.502a.683.683 0 0 1 .458-.25l-.43-3.977a4.683 4.683 0 0 0-3.14 1.713l3.112 2.514Zm.457-.25 140.828-15.166-.428-3.977-140.828 15.166.428 3.977Zm140.8-15.163a.754.754 0 0 1 .544.165l2.52-3.106a4.75 4.75 0 0 0-3.436-1.042l.372 3.983Zm.544.165c.153.124.25.302.272.495l3.974-.45a4.747 4.747 0 0 0-1.726-3.151l-2.52 3.106Zm.272.493 13.953 124.275 3.975-.446-13.953-124.275-3.975.446Zm15.94 124.052-1.977.303v.001l.001.002.001.012.008.05.029.198a55.173 55.173 0 0 1 .35 2.96c.075.836.121 1.638.11 2.25-.006.311-.026.51-.044.613-.04.221-.033-.133.327-.504l2.868 2.788c.55-.565.691-1.294.742-1.577a8.01 8.01 0 0 0 .106-1.247c.015-.826-.046-1.795-.125-2.681a60.767 60.767 0 0 0-.416-3.448l-.002-.016-.001-.005v-.002l-1.977.303Zm-1.194 5.884c.238-.244.432-.278.248-.21a4.822 4.822 0 0 1-.581.157c-.552.122-1.267.229-2.008.318a49.924 49.924 0 0 1-2.834.26l-.01.001h-.003l.121 1.996.121 1.996h.006l.014-.001a1.63 1.63 0 0 1 .053-.003l.193-.013c.165-.012.4-.029.684-.052a56.98 56.98 0 0 0 2.134-.212 25.973 25.973 0 0 0 2.39-.384c.366-.08.749-.18 1.096-.308.275-.1.815-.316 1.242-.755l-2.866-2.79Zm-5.273.533-135.519 14.039.412 3.978 135.519-14.039-.412-3.978Z" fill="#090E13" mask="url(#j)"/><path d="m126.246 84.716 95.633-10.595 2.946 1.105 9.1 86.663a4.331 4.331 0 0 1-3.748 4.745l-89.653 10.595a5.07 5.07 0 0 1-5.59-4.55l-4.701-50.243-1.885-17.571-2.102-20.15Z" fill="#090E13"/><mask id="k" style="mask-type:alpha" maskUnits="userSpaceOnUse" x="126" y="74" width="108" height="104"><path d="M126 84.595 221.633 74l2.946 1.105 9.1 86.663a4.331 4.331 0 0 1-3.748 4.745l-89.653 10.595a5.07 5.07 0 0 1-5.59-4.55l-4.701-50.243-1.885-17.571L126 84.594Z" fill="#090E13"/></mask><g mask="url(#k)"><path d="M170 72c-72 25.333-72 32 0 20s72-5.333 0 20-72 32 0 20 72-5.333 0 20-72 32 0 20 72-5.333 0 20" stroke="url(#l)" stroke-width="2"/></g><mask id="n" fill="#fff"><path d="m363.962 123.714-29.574 128.911a2.655 2.655 0 0 1-2.16 2.048 2.67 2.67 0 0 1-1.046-.033l-138.076-31.567a2.748 2.748 0 0 1-2.036-3.271l26.793-121.998c.019-.088.036-.173.052-.262.163-.909 1.172-6.309 2.143-6.825.948-.503 5.383.738 6.324 1.01.119.035.236.066.357.094l132.608 30.81"/></mask><path d="m363.962 123.714-29.574 128.911a2.655 2.655 0 0 1-2.16 2.048 2.67 2.67 0 0 1-1.046-.033l-138.076-31.567a2.748 2.748 0 0 1-2.036-3.271l26.793-121.998c.019-.088.036-.173.052-.262.163-.909 1.172-6.309 2.143-6.825.948-.503 5.383.738 6.324 1.01.119.035.236.066.357.094l132.608 30.81" fill="#fff"/><path d="m334.388 252.625-1.95-.447-.001.008-.002.008 1.953.431Zm-.423.957 1.633 1.155.002-.003-1.635-1.152Zm-.76.719-1.061-1.696-.006.005 1.067 1.691Zm-.977.372.329 1.973h.001l-.33-1.973Zm-1.046-.033.454-1.948-.008-.002-.446 1.95Zm-138.076-31.567-.472 1.944.013.003.013.003.446-1.95Zm-1.686-1.22 1.699-1.055-.002-.003-1.697 1.058Zm-.35-2.051 1.952.436.001-.007-1.953-.429Zm28.988-129.085-.937-1.766h-.001l.938 1.766Zm6.324 1.01-.555 1.922.555-1.921Zm.357.094-.452 1.948.452-1.948Zm-8.876 5.983-1.954-.43 1.954.43Zm.052-.262 1.968.354-1.968-.354Zm144.097 25.725-29.574 128.911 3.899.894 29.574-128.911-3.899-.894Zm-29.577 128.927a.656.656 0 0 1-.105.236l3.27 2.304a4.674 4.674 0 0 0 .741-1.677l-3.906-.863Zm-.103.233a.648.648 0 0 1-.188.178l2.121 3.392a4.658 4.658 0 0 0 1.333-1.26l-3.266-2.31Zm-.194.183a.645.645 0 0 1-.24.09l.66 3.946a4.668 4.668 0 0 0 1.714-.653l-2.134-3.383Zm-.239.09a.664.664 0 0 1-.263-.008l-.908 3.896c.601.14 1.222.159 1.829.058l-.658-3.946Zm-.271-.01-138.076-31.567-.892 3.9 138.076 31.567.892-3.9Zm-138.05-31.56a.752.752 0 0 1-.459-.332l-3.398 2.11a4.747 4.747 0 0 0 2.913 2.109l.944-3.887Zm-.461-.335a.742.742 0 0 1-.095-.557l-3.904-.872a4.74 4.74 0 0 0 .605 3.545l3.394-2.116Zm-.094-.564 26.793-121.998-3.907-.858-26.793 121.998 3.907.858Zm26.86-122.335c.079-.44.362-1.96.737-3.415.189-.734.388-1.394.577-1.874.096-.244.167-.384.206-.447.076-.125-.034.126-.407.324l-1.876-3.533c-.616.327-.97.86-1.135 1.131a6.994 6.994 0 0 0-.51 1.058c-.278.706-.524 1.55-.728 2.343a55.676 55.676 0 0 0-.801 3.705l3.937.708Zm1.112-5.412c-.259.137-.426.125-.304.117.075-.005.22-.004.446.016.45.04 1.035.138 1.676.272 1.271.266 2.559.628 3.014.76l1.111-3.843a48.775 48.775 0 0 0-3.306-.832 19.111 19.111 0 0 0-2.142-.342 7.067 7.067 0 0 0-1.054-.023c-.307.02-.82.079-1.315.342l1.874 3.533Zm5.292 1.285 132.607 30.81.905-3.896-132.607-30.81-.905 3.896Zm-.46-.12c.148.043.299.083.46.12l.905-3.896a4.816 4.816 0 0 1-.254-.067l-1.111 3.843Zm-6.011 4.584c.026-.116.047-.227.067-.337l-3.937-.708a4.819 4.819 0 0 1-.037.187l3.907.858Z" fill="url(#m)" mask="url(#n)"/><path d="m319.555 215.954-46.573-11.359-46.574-11.359-2.408-2.144 14.532-69.528c.262-1.171.932-2.187 1.87-2.835a4.03 4.03 0 0 1 3.161-.637l87.514 20.691a4.81 4.81 0 0 1 1.807.868 5.259 5.259 0 0 1 1.356 1.557c.352.612.589 1.294.696 2.005.106.712.08 1.44-.075 2.141l-11.63 52.774-2.902 14.143-.774 3.729" fill="url(#o)"/><path d="m331 83-1.385-10.615L319 71l10.615-1.385L331 59l1.385 10.615L343 71l-10.615 1.385L331 83ZM69 32l-1.846-14.154L53 16l14.154-1.846L69 0l1.846 14.154L85 16l-14.154 1.846L69 32Z" fill="#090E13"/><path d="M40 286.425c33.5-13.5 201.625-16.999 204.5-5.5 1.627 6.508-36 7.001-32 13.001 4 6 78-.5 83 5" stroke="url(#p)" stroke-width="1.5"/><defs><linearGradient id="a" x1="-10" y1="102" x2="201" y2="280" gradientUnits="userSpaceOnUse"><stop offset=".174" stop-color="#090E13"/><stop offset="1" stop-opacity="0"/></linearGradient><linearGradient id="c" x1="43.347" y1="177.045" x2="33.371" y2="167.514" gradientUnits="userSpaceOnUse"><stop stop-color="#FF1A8C"/><stop offset="1" stop-color="#fff"/></linearGradient><linearGradient id="d" x1="179.173" y1="170.918" x2="174.635" y2="160.371" gradientUnits="userSpaceOnUse"><stop stop-color="#0AF"/><stop offset="1" stop-color="#fff"/></linearGradient><linearGradient id="e" x1="66.639" y1="165.993" x2="67.123" y2="167.934" gradientUnits="userSpaceOnUse"><stop/><stop offset="1" stop-opacity="0"/></linearGradient><linearGradient id="f" x1="83.126" y1="174.25" x2="83.61" y2="176.191" gradientUnits="userSpaceOnUse"><stop/><stop offset="1" stop-opacity="0"/></linearGradient><linearGradient id="g" x1="75.356" y1="188.555" x2="75.839" y2="190.495" gradientUnits="userSpaceOnUse"><stop/><stop offset="1" stop-opacity="0"/></linearGradient><linearGradient id="h" x1="142.306" y1="171.864" x2="142.79" y2="173.805" gradientUnits="userSpaceOnUse"><stop/><stop offset="1" stop-opacity="0"/></linearGradient><linearGradient id="i" x1="92.813" y1="196.57" x2="93.297" y2="198.511" gradientUnits="userSpaceOnUse"><stop/><stop offset="1" stop-opacity="0"/></linearGradient><linearGradient id="l" x1="224" y1="192" x2="90.838" y2="116.209" gradientUnits="userSpaceOnUse"><stop stop-color="#fff"/><stop offset="1" stop-color="#090E13"/></linearGradient><linearGradient id="m" x1="277.483" y1="90.599" x2="277.483" y2="254.71" gradientUnits="userSpaceOnUse"><stop stop-color="#090E13"/><stop offset="1" stop-opacity="0"/></linearGradient><linearGradient id="o" x1="279.5" y1="118" x2="279.5" y2="216" gradientUnits="userSpaceOnUse"><stop stop-color="#00E2AA"/><stop offset="1" stop-color="#00E2AA" stop-opacity="0"/></linearGradient><linearGradient id="p" x1="244" y1="298.924" x2="347" y2="305.924" gradientUnits="userSpaceOnUse"><stop/><stop offset="1" stop-opacity="0"/></linearGradient></defs></svg>