<svg width="172" height="51" fill="none" xmlns="http://www.w3.org/2000/svg"><path d="m55.24 21-.645-1.904h-2.686L51.265 21h-1.138l2.544-7.046h1.181L56.398 21H55.24Zm-2.003-5.874-1.05 3.09h2.13l-1.05-3.09h-.03Zm5 5.874h-1.064v-7.046h.991l3.652 5.195h.04v-5.195h1.064V21h-.986l-3.653-5.19h-.044V21Zm5.987-7.046h2.485c1.048 0 1.865.308 2.451.923.59.615.884 1.478.884 2.588 0 1.113-.293 1.98-.879 2.602-.586.622-1.405.933-2.456.933h-2.485v-7.046Zm1.093.942v5.157h1.29c.748 0 1.321-.222 1.718-.664.4-.443.6-1.081.6-1.914 0-.83-.2-1.467-.6-1.91-.4-.445-.973-.668-1.719-.668h-1.289Zm6.866-.024v2.534h1.533c.423 0 .75-.11.981-.332.231-.221.347-.534.347-.937 0-.394-.12-.703-.361-.928-.241-.225-.573-.337-.997-.337h-1.503Zm0 3.418V21h-1.094v-7.046h2.73c.722 0 1.295.195 1.718.586.423.387.635.91.635 1.567 0 .479-.122.899-.366 1.26a1.899 1.899 0 0 1-1.001.752L76.382 21h-1.26l-1.436-2.71h-1.503Zm8.095-4.453c1.013 0 1.815.327 2.407.981.596.655.894 1.542.894 2.662 0 1.12-.296 2.006-.889 2.66-.592.652-1.396.977-2.412.977-1.015 0-1.82-.325-2.412-.976-.592-.655-.888-1.542-.888-2.661 0-1.12.296-2.007.888-2.662.593-.654 1.397-.981 2.412-.981Zm0 .962c-.67 0-1.203.24-1.596.723-.391.481-.586 1.134-.586 1.958 0 .82.195 1.47.586 1.953.394.481.926.722 1.596.722.668 0 1.197-.24 1.587-.722.394-.482.591-1.133.591-1.953 0-.824-.197-1.477-.59-1.959-.391-.481-.92-.722-1.588-.722ZM85.718 21h-1.094v-7.046h1.094V21Zm1.299-7.046h2.485c1.048 0 1.865.308 2.451.923.59.615.884 1.478.884 2.588 0 1.113-.293 1.98-.879 2.602-.586.622-1.405.933-2.456.933h-2.485v-7.046Zm1.093.942v5.157h1.29c.748 0 1.321-.222 1.718-.664.4-.443.6-1.081.6-1.914 0-.83-.2-1.467-.6-1.91-.4-.445-.973-.668-1.719-.668H88.11ZM100.503 21l-.645-1.904h-2.685L96.528 21h-1.137l2.544-7.046h1.181L101.66 21h-1.157Zm-2.002-5.874-1.05 3.09h2.13l-1.05-3.09h-.03Zm3.936-1.172h2.641c.684 0 1.24.215 1.67.645.433.43.649.986.649 1.67 0 .686-.219 1.246-.659 1.68-.436.429-1.001.644-1.694.644h-1.514V21h-1.093v-7.046Zm1.093.923v2.798h1.255c.475 0 .843-.122 1.104-.366.26-.245.39-.59.39-1.036 0-.442-.13-.786-.39-1.03-.257-.244-.624-.366-1.099-.366h-1.26Zm4.824-.923h2.642c.684 0 1.24.215 1.67.645.433.43.649.986.649 1.67 0 .686-.219 1.246-.659 1.68-.436.429-1.001.644-1.694.644h-1.514V21h-1.094v-7.046Zm1.094.923v2.798h1.255c.475 0 .843-.122 1.104-.366.26-.245.39-.59.39-1.036 0-.442-.13-.786-.39-1.03-.258-.244-.624-.366-1.099-.366h-1.26Zm-58.58 11.259h3.603c1.476 0 2.627.428 3.452 1.285.825.857 1.237 2.064 1.237 3.623 0 1.563-.412 2.78-1.237 3.65-.825.87-1.976 1.306-3.452 1.306h-3.603v-9.864Zm1.764 1.49v6.884h1.654c.994 0 1.755-.296 2.283-.889.529-.592.793-1.45.793-2.57 0-1.103-.266-1.948-.8-2.536-.533-.593-1.291-.889-2.276-.889h-1.654Zm12.277-1.654c1.436 0 2.573.458 3.411 1.374.843.916 1.265 2.158 1.265 3.725 0 1.568-.422 2.81-1.265 3.726-.838.911-1.975 1.367-3.41 1.367-1.44 0-2.582-.456-3.426-1.367-.838-.916-1.257-2.158-1.257-3.726 0-1.567.419-2.81 1.257-3.725.843-.916 1.985-1.374 3.425-1.374Zm2.099 2.481c-.52-.652-1.22-.977-2.099-.977-.88 0-1.579.323-2.099.97-.519.647-.779 1.522-.779 2.625 0 1.099.26 1.971.78 2.619.52.647 1.219.97 2.098.97.88 0 1.58-.323 2.099-.97.52-.648.78-1.52.78-2.619 0-1.098-.26-1.97-.78-2.618Zm9.392.41L74.384 36h-1.661l-2.646-9.864h1.832l1.71 7.471h.054l1.982-7.471h1.559l1.982 7.471h.055l1.709-7.471h1.832L80.147 36h-1.662l-2.016-7.137H76.4ZM85.656 36h-1.702v-9.864h1.531l4.895 6.91h.061v-6.91h1.696V36h-1.518l-4.901-6.918h-.062V36Zm14.465-1.49V36H93.88v-9.864h1.764v8.374h4.477Zm5.202-8.538c1.436 0 2.573.458 3.411 1.374.843.916 1.265 2.158 1.265 3.725 0 1.568-.422 2.81-1.265 3.726-.838.911-1.975 1.367-3.411 1.367-1.44 0-2.581-.456-3.425-1.367-.838-.916-1.257-2.158-1.257-3.726 0-1.567.419-2.81 1.257-3.725.844-.916 1.985-1.374 3.425-1.374Zm2.099 2.481c-.52-.652-1.219-.977-2.099-.977-.879 0-1.579.323-2.098.97-.52.647-.78 1.522-.78 2.625 0 1.099.26 1.971.78 2.619.519.647 1.219.97 2.098.97.88 0 1.579-.323 2.099-.97.519-.648.779-1.52.779-2.619 0-1.098-.26-1.97-.779-2.618ZM117.484 36l-.84-2.55h-3.63l-.841 2.55h-1.819l3.5-9.864h1.99l3.5 9.864h-1.86Zm-2.679-8.121-1.381 4.21h2.803l-1.374-4.21h-.048Zm5.598-1.743h3.603c1.476 0 2.627.428 3.452 1.285.825.857 1.237 2.064 1.237 3.623 0 1.563-.412 2.78-1.237 3.65-.825.87-1.976 1.306-3.452 1.306h-3.603v-9.864Zm1.764 1.49v6.884h1.654c.994 0 1.755-.296 2.283-.889.529-.592.793-1.45.793-2.57 0-1.103-.266-1.948-.799-2.536-.534-.593-1.292-.889-2.277-.889h-1.654ZM139.346 36l-.841-2.55h-3.63l-.841 2.55h-1.818l3.5-9.864h1.989l3.5 9.864h-1.859Zm-2.68-8.121-1.381 4.21h2.803l-1.374-4.21h-.048Zm5.599-1.743h3.835c.984 0 1.784.305 2.399.916.615.606.923 1.401.923 2.386 0 .98-.317 1.775-.95 2.385-.629.61-1.445.916-2.448.916h-1.996V36h-1.763v-9.864Zm1.763 1.442v3.74h1.6c.633 0 1.126-.165 1.476-.493.351-.328.527-.79.527-1.387 0-.593-.176-1.051-.527-1.374-.346-.324-.836-.486-1.469-.486h-1.607Zm8.45 8.422h-1.764v-9.864h1.764v4.614h.061l3.938-4.614h2.03l-3.801 4.375L158.801 36h-2.147l-3.206-4.307-.97 1.135V36Z" fill="#fff"/><g clip-path="url(#a)"><circle cx="28.5" cy="25.5" r="15.5" fill="#fff"/><path d="M28.5 10C19.94 10 13 16.94 13 25.5 13 34.06 19.94 41 28.5 41 37.06 41 44 34.06 44 25.5 44 16.94 37.06 10 28.5 10Zm0 25.537-8.178-8.178h4.337V16.754h7.682V27.36h4.337L28.5 35.537Z" fill="url(#b)"/></g><defs><linearGradient id="b" x1="28.5" y1="10" x2="28.5" y2="41" gradientUnits="userSpaceOnUse"><stop stop-color="#39B54A"/><stop offset="1" stop-color="#5FBD45"/></linearGradient><clipPath id="a"><path fill="#fff" transform="translate(13 10)" d="M0 0h31v31H0z"/></clipPath></defs></svg>