<svg width="172" height="51" fill="none" xmlns="http://www.w3.org/2000/svg"><path d="M41.786 25.884a6.313 6.313 0 0 1 3.003-5.294 6.456 6.456 0 0 0-5.085-2.752c-2.14-.224-4.214 1.282-5.304 1.282-1.111 0-2.79-1.26-4.598-1.222a6.768 6.768 0 0 0-5.698 3.478c-2.464 4.27-.626 10.544 1.734 13.995 1.18 1.69 2.561 3.577 4.367 3.51 1.767-.073 2.427-1.128 4.56-1.128 2.114 0 2.733 1.128 4.576 1.086 1.896-.031 3.09-1.698 4.23-3.404a13.983 13.983 0 0 0 1.935-3.943 6.093 6.093 0 0 1-3.72-5.608ZM38.306 15.569a6.216 6.216 0 0 0 1.42-4.45 6.315 6.315 0 0 0-4.086 2.115 5.91 5.91 0 0 0-1.458 4.286 5.221 5.221 0 0 0 4.124-1.951ZM64.125 34.603h-6.03l-1.449 4.28h-2.554l5.712-15.833h2.654l5.712 15.832h-2.598l-1.447-4.279Zm-5.406-1.975h4.78l-2.356-6.945h-.066l-2.358 6.945ZM80.506 33.112c0 3.587-1.918 5.892-4.814 5.892a3.908 3.908 0 0 1-3.629-2.02h-.055v5.718h-2.367V27.339h2.291v1.92h.044a4.093 4.093 0 0 1 3.673-2.04c2.928 0 4.857 2.315 4.857 5.893Zm-2.433 0c0-2.338-1.207-3.874-3.049-3.874-1.809 0-3.026 1.569-3.026 3.874 0 2.325 1.217 3.883 3.026 3.883 1.842 0 3.049-1.525 3.049-3.883ZM93.203 33.112c0 3.587-1.919 5.892-4.814 5.892a3.908 3.908 0 0 1-3.63-2.02h-.054v5.718h-2.368V27.339h2.292v1.92h.043a4.092 4.092 0 0 1 3.673-2.04c2.928 0 4.858 2.315 4.858 5.893Zm-2.434 0c0-2.338-1.207-3.874-3.048-3.874-1.81 0-3.026 1.569-3.026 3.874 0 2.325 1.217 3.883 3.026 3.883 1.841 0 3.048-1.525 3.048-3.883ZM101.594 34.471c.175 1.57 1.699 2.601 3.782 2.601 1.996 0 3.432-1.03 3.432-2.447 0-1.228-.866-1.964-2.917-2.469l-2.05-.494c-2.905-.702-4.254-2.062-4.254-4.268 0-2.732 2.379-4.608 5.757-4.608 3.343 0 5.635 1.876 5.712 4.608h-2.39c-.143-1.58-1.449-2.534-3.356-2.534-1.907 0-3.212.965-3.212 2.37 0 1.119.833 1.777 2.872 2.282l1.744.428c3.246.768 4.594 2.073 4.594 4.39 0 2.961-2.357 4.816-6.107 4.816-3.509 0-5.878-1.811-6.031-4.675h2.424ZM116.418 24.607v2.732h2.194v1.877h-2.194v6.363c0 .989.44 1.45 1.404 1.45.26-.005.52-.023.779-.055v1.865a6.504 6.504 0 0 1-1.315.11c-2.336 0-3.247-.878-3.247-3.117v-6.616h-1.677v-1.877h1.677v-2.732h2.379ZM119.882 33.112c0-3.632 2.137-5.915 5.471-5.915 3.344 0 5.472 2.283 5.472 5.915 0 3.642-2.117 5.914-5.472 5.914-3.355 0-5.471-2.273-5.471-5.914Zm8.53 0c0-2.492-1.141-3.962-3.059-3.962-1.919 0-3.059 1.481-3.059 3.962 0 2.501 1.14 3.96 3.059 3.96 1.918 0 3.059-1.459 3.059-3.96ZM132.777 27.34h2.259v1.964h.054a2.752 2.752 0 0 1 2.775-2.086c.273 0 .545.029.811.089v2.216a3.309 3.309 0 0 0-1.064-.143 2.383 2.383 0 0 0-2.363 1.64 2.397 2.397 0 0 0-.104 1.016v6.847h-2.368V27.339ZM149.593 35.492c-.319 2.096-2.358 3.534-4.967 3.534-3.356 0-5.438-2.25-5.438-5.86 0-3.62 2.094-5.969 5.338-5.969 3.192 0 5.199 2.194 5.199 5.694v.812h-8.147v.143c-.038.425.015.853.156 1.256a2.993 2.993 0 0 0 1.702 1.793c.394.161.819.236 1.245.22a2.61 2.61 0 0 0 2.664-1.623h2.248Zm-8.004-3.445h5.767a2.789 2.789 0 0 0-.775-2.083 2.783 2.783 0 0 0-2.055-.847 2.918 2.918 0 0 0-2.937 2.93ZM58.422 11.132a3.36 3.36 0 0 1 3.437 2.311c.155.473.203.975.14 1.47 0 2.43-1.313 3.827-3.577 3.827h-2.746v-7.608h2.746Zm-1.566 6.532h1.434a2.388 2.388 0 0 0 2.507-2.736 2.399 2.399 0 0 0-2.507-2.72h-1.434v5.456ZM63.333 15.867a2.722 2.722 0 0 1 2.706-2.98 2.715 2.715 0 0 1 2.579 1.862c.12.36.162.74.126 1.118a2.724 2.724 0 0 1-1.604 2.75 2.717 2.717 0 0 1-3.807-2.75Zm4.247 0c0-1.245-.56-1.973-1.54-1.973-.984 0-1.537.728-1.537 1.973 0 1.254.553 1.976 1.537 1.976.981 0 1.54-.727 1.54-1.976ZM75.937 18.74h-1.175l-1.185-4.229h-.09l-1.18 4.229h-1.164l-1.582-5.741h1.149l1.028 4.38h.084l1.18-4.38h1.086l1.18 4.38h.09L76.38 13h1.132l-1.575 5.74ZM78.842 12.999h1.09v.912h.084a1.718 1.718 0 0 1 1.712-1.023 1.864 1.864 0 0 1 1.922 1.308c.083.267.105.55.064.827v3.717h-1.132v-3.432c0-.923-.4-1.382-1.238-1.382a1.314 1.314 0 0 0-1.37 1.455v3.359h-1.132v-5.741ZM85.519 10.757h1.132v7.983h-1.132v-7.983ZM88.225 15.867a2.721 2.721 0 0 1 2.706-2.98 2.716 2.716 0 0 1 2.579 1.862c.12.36.162.74.126 1.118a2.724 2.724 0 0 1-1.605 2.75 2.719 2.719 0 0 1-3.806-2.75Zm4.246 0c0-1.245-.559-1.973-1.539-1.973-.984 0-1.538.728-1.538 1.973 0 1.254.554 1.976 1.538 1.976.98 0 1.54-.727 1.54-1.976ZM94.828 17.116c0-1.033.77-1.63 2.134-1.714l1.554-.09v-.495c0-.606-.4-.949-1.175-.949-.632 0-1.07.232-1.195.638H95.05c.115-.986 1.042-1.618 2.344-1.618 1.438 0 2.25.716 2.25 1.929v3.923h-1.09v-.807h-.09a1.93 1.93 0 0 1-1.724.901 1.73 1.73 0 0 1-1.76-1.015 1.738 1.738 0 0 1-.152-.703Zm3.688-.49v-.48l-1.401.09c-.79.052-1.148.321-1.148.827 0 .517.448.818 1.063.818a1.353 1.353 0 0 0 1.486-1.256ZM101.131 15.867c0-1.815.932-2.964 2.381-2.964a1.888 1.888 0 0 1 1.76 1.008h.084v-3.154h1.132v7.983h-1.085v-.907h-.089a1.994 1.994 0 0 1-1.802 1.002c-1.459 0-2.381-1.15-2.381-2.968Zm1.169 0c0 1.217.574 1.95 1.533 1.95.955 0 1.544-.743 1.544-1.945 0-1.197-.596-1.95-1.544-1.95-.953 0-1.533.737-1.533 1.945ZM111.173 15.867a2.716 2.716 0 0 1 .694-2.089 2.715 2.715 0 0 1 3.111-.658 2.715 2.715 0 0 1 1.606 2.747 2.722 2.722 0 0 1-2.706 2.984 2.71 2.71 0 0 1-2.013-.893 2.728 2.728 0 0 1-.692-2.091Zm4.246 0c0-1.245-.558-1.973-1.539-1.973-.984 0-1.537.728-1.537 1.973 0 1.254.553 1.976 1.537 1.976.981 0 1.539-.727 1.539-1.976ZM118.104 12.999h1.089v.912h.085a1.72 1.72 0 0 1 1.712-1.023 1.862 1.862 0 0 1 1.922 1.308c.083.267.105.55.064.827v3.717h-1.132v-3.432c0-.923-.401-1.382-1.238-1.382a1.315 1.315 0 0 0-1.37 1.455v3.359h-1.132v-5.741ZM129.373 11.57v1.455h1.243v.954h-1.243v2.952c0 .602.248.865.812.865.144 0 .288-.01.431-.026v.944a3.713 3.713 0 0 1-.616.058c-1.259 0-1.76-.444-1.76-1.55v-3.243h-.911v-.954h.911v-1.456h1.133ZM132.163 10.757h1.122v3.164h.09a1.763 1.763 0 0 1 1.749-1.028 1.886 1.886 0 0 1 1.905 1.318c.084.266.108.546.071.822v3.707h-1.133v-3.427c0-.918-.427-1.382-1.227-1.382a1.341 1.341 0 0 0-1.445 1.456v3.353h-1.132v-7.983ZM143.702 17.19a2.334 2.334 0 0 1-2.486 1.66 2.604 2.604 0 0 1-2.561-1.844 2.612 2.612 0 0 1-.09-1.119 2.659 2.659 0 0 1 .639-2.104 2.65 2.65 0 0 1 2.007-.895c1.596 0 2.559 1.091 2.559 2.894v.395h-4.051v.064a1.513 1.513 0 0 0 .4 1.16 1.522 1.522 0 0 0 1.128.485 1.373 1.373 0 0 0 1.365-.696h1.09Zm-3.983-1.85h2.898a1.39 1.39 0 0 0-.849-1.382 1.39 1.39 0 0 0-.564-.106 1.468 1.468 0 0 0-1.485 1.487Z" fill="#fff"/></svg>