<svg width="16" height="16" viewBox="0 0 22 22" fill="none" xmlns="http://www.w3.org/2000/svg"><g clip-path="url(#a)"><path d="M11 22c6.133 0 11-4.965 11-11 0-6.133-4.965-11-11-11C4.867 0 0 4.965 0 11s4.965 11 11 11Z" fill="#A1A1A4"/><path d="m16.549 12.947-2.92-4.478-1.071 1.752 2.823 4.575 1.265-.584-.097-1.265ZM15.186 15.38l-2.92-4.477L11 12.85l2.336 3.699 1.46-.585.39-.584Z" fill="#F8F9F9"/><path fill-rule="evenodd" clip-rule="evenodd" d="M5.646 7.885 11 4.77l5.354 3.115v6.23L11 17.23l-3.991-2.239L6.999 16l3.904 2.398c.097.098.194.098.292 0l6.132-3.504c.098-.097.195-.195.195-.292V7.593c0-.097-.097-.195-.195-.292l-6.132-3.504c-.098-.098-.195-.098-.292 0L4.77 7.204c-.097.097-.195.194-.195.292v7.009c0 .097.098.194.195.292L6 15.5l.5-1-.757-.385v-6.23h-.097Z" fill="#F8F9F9"/><path d="M13.337 7.96h-2.045l-4.77 7.788 1.655.973 5.16-8.761ZM8.177 8.664c.487-.779 1.85-.779 2.434-.682L6 15.5c-.195-.097-.646-.314-.938-.509-.39-.194-.487-.194-.487-.487v-.389a242.457 242.457 0 0 0 3.602-5.451Z" fill="#F8F9F9"/></g><defs><clipPath id="a"><path fill="#fff" d="M0 0h22v22H0z"/></clipPath></defs></svg>