<svg width="16" height="16" viewBox="0 0 16 16" fill="none" xmlns="http://www.w3.org/2000/svg">
<path fill-rule="evenodd" clip-rule="evenodd" d="M16 8C16 12.4183 12.4183 16 8 16C3.58172 16 0 12.4183 0 8C0 3.58172 3.58172 0 8 0C12.4183 0 16 3.58172 16 8ZM5.73303 11.1836H4.18045C3.85421 11.1836 3.69306 11.1836 3.5948 11.1207C3.48867 11.0519 3.42382 10.9379 3.41596 10.8121C3.41006 10.6962 3.49064 10.5547 3.65179 10.2717L7.48529 3.51462C7.64842 3.22769 7.73095 3.08422 7.83511 3.03116C7.94713 2.97417 8.08078 2.97417 8.1928 3.03116C8.29696 3.08422 8.3795 3.22769 8.54261 3.51462L9.33071 4.89032L9.33472 4.89734C9.5109 5.20517 9.60024 5.36127 9.63925 5.5251C9.68248 5.70395 9.68248 5.89261 9.63925 6.07146C9.59995 6.23654 9.51151 6.39377 9.33267 6.70625L7.31902 10.2658L7.31381 10.2749C7.13647 10.5853 7.04659 10.7426 6.92203 10.8613C6.78643 10.991 6.62331 11.0853 6.44446 11.1384C6.28134 11.1836 6.09858 11.1836 5.73303 11.1836ZM9.65379 11.1836H11.8785C12.2067 11.1836 12.3718 11.1836 12.4701 11.1188C12.5762 11.05 12.643 10.934 12.6489 10.8083C12.6546 10.6961 12.5758 10.5601 12.4213 10.2935C12.416 10.2845 12.4107 10.2752 12.4052 10.2658L11.2909 8.35952L11.2782 8.33806C11.1216 8.07326 11.0426 7.93954 10.941 7.88785C10.8291 7.83085 10.6973 7.83085 10.5853 7.88785C10.4831 7.94091 10.4006 8.08045 10.2375 8.36148L9.12709 10.2678L9.12329 10.2744C8.96074 10.555 8.87951 10.6952 8.88537 10.8102C8.89323 10.936 8.95808 11.0519 9.0642 11.1207C9.16051 11.1836 9.32559 11.1836 9.65379 11.1836Z" fill="#A1A1A4"/>
</svg>
