<svg width="16" height="16" viewBox="0 0 16 16" fill="none" xmlns="http://www.w3.org/2000/svg">
<path fill-rule="evenodd" clip-rule="evenodd" d="M4.89339 6.72302L8.00097 3.61678L11.1098 6.72555L12.917 4.91716L8.00097 0L3.08496 4.91589L4.89339 6.72302ZM0 8.0005L1.80777 6.19277L3.61555 8.0005L1.80777 9.80823L0 8.0005ZM8.00105 12.3844L4.89348 9.27693L3.08252 11.0828L3.08505 11.0853L8.00105 16L12.9171 11.0828L12.9183 11.0815L11.1099 9.27567L8.00105 12.3844ZM12.3843 8.001L14.192 6.19327L15.9998 8.001L14.192 9.80873L12.3843 8.001ZM8.00128 6.16425L9.83498 7.99918H9.83625L9.83498 8.00045L8.00128 9.83538L6.16757 8.00297L6.16504 7.99918L6.16757 7.99665L6.48856 7.67567L6.64527 7.52023L8.00128 6.16425Z" fill="#A1A1A4"/>
</svg>
