<svg width="16" height="16" viewBox="0 0 22 22" fill="none" xmlns="http://www.w3.org/2000/svg"><path d="M11 22c6.075 0 11-4.925 11-11S17.075 0 11 0 0 4.925 0 11s4.925 11 11 11Z" fill="#A1A1A4"/><path d="M14.685 7.349c-.561-1.263-1.85-1.533-3.426-1.272l-.507-1.952-1.195.307.498 1.946c-.314.079-.637.146-.956.237L8.6 4.679l-1.195.307.507 1.952c-.257.073-2.412.622-2.412.622l.328 1.271s.878-.245.87-.225c.487-.126.716.115.824.343l1.392 5.35c.017.155-.01.42-.345.51.02.011-.87.222-.87.222l.131 1.482 2.415-.613.513 1.975 1.194-.307-.512-1.988c.328-.076.648-.155.96-.237l.51 1.978 1.194-.307-.512-1.972c1.84-.444 3.14-1.598 2.873-3.361-.17-1.064-1.339-1.936-2.31-2.034.598-.526.9-1.294.53-2.298Zm-.575 4.655c.238 1.747-2.206 1.96-3.013 2.172l-.702-2.613c.81-.211 3.313-1.098 3.715.441Zm-1.472-3.558c.252 1.553-1.838 1.733-2.512 1.904l-.64-2.371c.677-.166 2.64-.97 3.152.467Z" fill="#F8F9F9"/></svg>