<svg width="72" height="72" viewBox="0 0 72 72" fill="none" xmlns="http://www.w3.org/2000/svg">
<path d="M35.25 22.5577C35.25 20.3544 36.1253 18.2413 37.6833 16.6833C39.2413 15.1253 41.3544 14.25 43.5577 14.25H60.1731C60.7239 14.25 61.2522 14.4688 61.6417 14.8583C62.0312 15.2478 62.25 15.7761 62.25 16.3269V49.5577C62.25 50.1085 62.0312 50.6368 61.6417 51.0263C61.2522 51.4158 60.7239 51.6346 60.1731 51.6346H43.5577C41.3544 51.6346 39.2413 52.5099 37.6833 54.0679C36.1253 55.6259 35.25 57.739 35.25 59.9423" stroke="#090E13" stroke-width="2" stroke-linecap="round" stroke-linejoin="round"/>
<path d="M8.25 49.5577C8.25 50.1085 8.46882 50.6368 8.85832 51.0263C9.24782 51.4158 9.77609 51.6346 10.3269 51.6346H26.9423C29.1456 51.6346 31.2587 52.5099 32.8167 54.0679C34.3747 55.6259 35.25 57.739 35.25 59.9423V22.5577C35.25 20.3544 34.3747 18.2413 32.8167 16.6833C31.2587 15.1253 29.1456 14.25 26.9423 14.25H10.3269C9.77609 14.25 9.24782 14.4688 8.85832 14.8583C8.46882 15.2478 8.25 15.7761 8.25 16.3269V49.5577Z" stroke="#090E13" stroke-width="2" stroke-linecap="round" stroke-linejoin="round"/>
</svg>
