<svg width="16" height="16" viewBox="0 0 16 16" fill="none" xmlns="http://www.w3.org/2000/svg">
<rect width="16" height="16" rx="8" fill="#A1A1A4"/>
<path fill-rule="evenodd" clip-rule="evenodd" d="M6.05783 7.20178L8.00024 5.26021L9.94344 7.20336L11.073 6.07301L8.00024 2.99951L4.92745 6.07223L6.05783 7.20178ZM2.99902 8.00024L4.12898 6.87031L5.25895 8.00024L4.12898 9.13018L2.99902 8.00024ZM8.00019 10.7406L6.05778 8.79821L4.92583 9.92697L4.92741 9.92855L8.00019 13.0005L11.073 9.92697L11.0738 9.92618L9.94339 8.79742L8.00019 10.7406ZM10.74 8.00065L11.87 6.87072L12.9999 8.00065L11.87 9.13059L10.74 8.00065ZM8.00038 6.8523L9.14655 7.99924H9.14734L9.14655 8.00003L8.00038 9.14696L6.85421 8.00161L6.85263 7.99924L6.85421 7.99766L7.05485 7.79702L7.1528 7.69987L8.00038 6.8523Z" fill="#F8F9F9"/>
</svg>
