<svg width="40" height="40" viewBox="0 0 40 40" fill="none" xmlns="http://www.w3.org/2000/svg">
<path d="M12.3624 26.7928C11.8825 27.2727 11.8727 28.1247 12.3721 28.6242C12.8814 29.1236 13.7334 29.1138 14.2035 28.6438L20.0012 22.8461L25.7891 28.634C26.2788 29.1236 27.121 29.1236 27.6205 28.6242C28.12 28.1149 28.12 27.2825 27.6303 26.7928L21.8424 21.0049L27.6303 15.2072C28.12 14.7175 28.1298 13.8753 27.6205 13.3758C27.121 12.8764 26.2788 12.8764 25.7891 13.366L20.0012 19.1539L14.2035 13.366C13.7334 12.8862 12.8716 12.8666 12.3721 13.3758C11.8727 13.8753 11.8825 14.7371 12.3624 15.2072L18.1503 21.0049L12.3624 26.7928Z" fill="#3C3C43" fill-opacity="0.6"/>
</svg>
