<svg width="72" height="72" viewBox="0 0 72 72" fill="none" xmlns="http://www.w3.org/2000/svg">
<path d="M17.1 63.6H54.9M36 38.4C38.2278 38.4 40.3644 37.515 41.9397 35.9397C43.515 34.3644 44.4 32.2278 44.4 30C44.4 27.7722 43.515 25.6356 41.9397 24.0603C40.3644 22.485 38.2278 21.6 36 21.6C33.7722 21.6 31.6356 22.485 30.0603 24.0603C28.485 25.6356 27.6 27.7722 27.6 30C27.6 32.2278 28.485 34.3644 30.0603 35.9397C31.6356 37.515 33.7722 38.4 36 38.4ZM36 63.6C36 63.6 15 48.9 15 30C15 24.4305 17.2125 19.089 21.1508 15.1508C25.089 11.2125 30.4305 9 36 9C41.5695 9 46.911 11.2125 50.8492 15.1508C54.7875 19.089 57 24.4305 57 30C57 48.9 36 63.6 36 63.6Z" stroke="#090E13" stroke-width="2" stroke-linecap="round" stroke-linejoin="round"/>
</svg>
