<svg width="70" height="70" viewBox="0 0 70 70" fill="none" xmlns="http://www.w3.org/2000/svg">
<path d="M33.9581 38.0353H39.6863C41.0243 38.0355 42.3493 37.772 43.5856 37.2601C44.8218 36.7481 45.9451 35.9977 46.8914 35.0516C47.8376 34.1055 48.5882 32.9823 49.1002 31.7461C49.6123 30.5099 49.8759 29.1849 49.8759 27.8468V27.8432C49.8759 26.5052 49.6123 25.1802 49.1002 23.944C48.5882 22.7078 47.8376 21.5846 46.8914 20.6385C45.9451 19.6924 44.8218 18.9419 43.5856 18.43C42.3493 17.918 41.0243 17.6546 39.6863 17.6548H26.7949" stroke="white" stroke-width="2" stroke-miterlimit="3" stroke-linecap="round" stroke-linejoin="round"/>
<path d="M34.0223 38.0351H17.1518C15.8137 38.035 14.4887 38.2984 13.2524 38.8103C12.0162 39.3223 10.8929 40.0727 9.94667 41.0188C9.00045 41.9649 8.24987 43.0882 7.73778 44.3243C7.22568 45.5605 6.96211 46.8855 6.96211 48.2236V48.2272C6.96211 49.5653 7.22568 50.8902 7.73778 52.1264C8.24987 53.3626 9.00045 54.4858 9.94667 55.4319C10.8929 56.378 12.0162 57.1285 13.2524 57.6404C14.4887 58.1524 15.8137 58.4158 17.1518 58.4156H42.7769M13.1666 4.88477C15.1012 4.88572 16.9563 5.65466 18.3243 7.02263C19.6922 8.39059 20.4612 10.2457 20.4621 12.1803C20.4621 17.8038 13.1666 28.2701 13.1666 28.2701C13.1666 28.2701 5.87109 17.4477 5.87109 12.1803C5.87205 10.2457 6.64099 8.39059 8.00895 7.02263C9.37692 5.65466 11.232 4.88572 13.1666 4.88477ZM57.3715 41.4994C59.3061 41.5004 61.1612 42.2693 62.5291 43.6373C63.8971 45.0053 64.666 46.8604 64.667 48.7949C64.667 54.4196 57.3715 64.8848 57.3715 64.8848C57.3715 64.8848 50.076 54.0636 50.076 48.7949C50.0769 46.8604 50.8459 45.0053 52.2138 43.6373C53.5818 42.2693 55.4369 41.5004 57.3715 41.4994Z" stroke="white" stroke-width="2" stroke-miterlimit="3" stroke-linecap="round" stroke-linejoin="round"/>
<path d="M13.1649 15.6251C14.7553 15.6251 16.0446 14.3359 16.0446 12.7454C16.0446 11.155 14.7553 9.86572 13.1649 9.86572C11.5744 9.86572 10.2852 11.155 10.2852 12.7454C10.2852 14.3359 11.5744 15.6251 13.1649 15.6251Z" stroke="white" stroke-width="2" stroke-miterlimit="3" stroke-linecap="round" stroke-linejoin="round"/>
<path d="M57.3709 52.1676C58.9613 52.1676 60.2506 50.8783 60.2506 49.2879C60.2506 47.6975 58.9613 46.4082 57.3709 46.4082C55.7805 46.4082 54.4912 47.6975 54.4912 49.2879C54.4912 50.8783 55.7805 52.1676 57.3709 52.1676Z" stroke="white" stroke-width="2" stroke-miterlimit="3" stroke-linecap="round" stroke-linejoin="round"/>
</svg>
