<svg width="30" height="30" fill="none" xmlns="http://www.w3.org/2000/svg"><path d="M13.786 3.174a2.5 2.5 0 0 1 2.428 0l9.393 5.219c.397.22.643.639.643 1.092V19.78a2.5 2.5 0 0 1-1.286 2.185l-8.75 4.862a2.5 2.5 0 0 1-2.428 0l-8.75-4.862A2.5 2.5 0 0 1 3.75 19.78V9.485c0-.453.246-.872.643-1.092l9.393-5.219Z" stroke="#000" stroke-width="1.2" stroke-linecap="round" stroke-linejoin="round"/><path d="M15 15v12.5M3.75 8.75 15 15 3.75 8.75ZM15 15l11.25-6.25L15 15Z" stroke="#000" stroke-width="1.2" stroke-linejoin="round"/><path d="m9.375 11.875 11.25-6.25M7.5 15.41l3.75 2.09" stroke="#000" stroke-width="1.2" stroke-linecap="round" stroke-linejoin="round"/></svg>
