<svg width="16" height="16" viewBox="0 0 16 16" fill="none" xmlns="http://www.w3.org/2000/svg">
<path d="M8 16C12.4183 16 16 12.4183 16 8C16 3.58172 12.4183 0 8 0C3.58172 0 0 3.58172 0 8C0 12.4183 3.58172 16 8 16Z" fill="#A1A1A4"/>
<path fill-rule="evenodd" clip-rule="evenodd" d="M8.6 6.45L10.4 5.4V7.5L8.6 6.45ZM10.4 10.95L8 12.35L5.6 10.95V8.5L8 9.9L10.4 8.5V10.95ZM5.6 5.4L7.4 6.45L5.6 7.5V5.4ZM8.3 6.95L10.1 8L8.3 9.05V6.95ZM7.7 9.05L5.9 8L7.7 6.95V9.05ZM10.1 4.9L8 6.1L5.9 4.9L8 3.65L10.1 4.9ZM5 4.7V11.25L8 12.95L11 11.25V4.7L8 3L5 4.7Z" fill="#F8F9F9"/>
</svg>
