<svg width="28" height="28" viewBox="0 0 28 28" fill="none" xmlns="http://www.w3.org/2000/svg">
<g opacity="0.6">
<g clip-path="url(#clip0_672_1558)">
<path d="M25.1786 9.38547C25.1261 8.19527 24.9336 7.37702 24.6579 6.66799C24.3735 5.91538 23.9359 5.24157 23.3626 4.68142C22.8024 4.11256 22.1242 3.67053 21.3803 3.39055C20.6672 3.11483 19.8532 2.92236 18.663 2.86989C17.4639 2.81297 17.0832 2.7998 14.042 2.7998C11.0008 2.7998 10.6201 2.81297 9.4255 2.86544C8.2353 2.91792 7.41705 3.11056 6.7082 3.3861C5.95542 3.67053 5.2816 4.10812 4.72146 4.68142C4.1526 5.24157 3.71074 5.91982 3.43058 6.66372C3.15487 7.37702 2.9624 8.19082 2.90993 9.38102C2.85301 10.5801 2.83984 10.9608 2.83984 14.002C2.83984 17.0432 2.85301 17.4239 2.90548 18.6185C2.95796 19.8087 3.1506 20.627 3.42631 21.336C3.71074 22.0886 4.1526 22.7624 4.72146 23.3226C5.2816 23.8914 5.95986 24.3335 6.70376 24.6134C7.41705 24.8892 8.23086 25.0816 9.42123 25.1341C10.6157 25.1867 10.9965 25.1997 14.0378 25.1997C17.079 25.1997 17.4596 25.1867 18.6543 25.1341C19.8445 25.0816 20.6627 24.8892 21.3716 24.6134C22.877 24.0314 24.0672 22.8412 24.6492 21.336C24.9247 20.6227 25.1174 19.8087 25.1699 18.6185C25.2223 17.4239 25.2355 17.0432 25.2355 14.002C25.2355 10.9608 25.231 10.5801 25.1786 9.38547ZM23.1614 18.531C23.1132 19.625 22.9294 20.2157 22.7763 20.6095C22.3999 21.5854 21.6254 22.3599 20.6496 22.7363C20.2557 22.8894 19.6607 23.0732 18.571 23.1212C17.3896 23.1739 17.0352 23.1868 14.0465 23.1868C11.0577 23.1868 10.6989 23.1739 9.52174 23.1212C8.42777 23.0732 7.83703 22.8894 7.44321 22.7363C6.95759 22.5568 6.51556 22.2724 6.15677 21.9004C5.78483 21.5372 5.5004 21.0996 5.32092 20.614C5.16776 20.2202 4.98401 19.625 4.93598 18.5354C4.88333 17.354 4.87034 16.9995 4.87034 14.0107C4.87034 11.022 4.88333 10.6632 4.93598 9.48615C4.98401 8.39218 5.16776 7.80144 5.32092 7.40761C5.5004 6.92183 5.78483 6.47997 6.16122 6.12101C6.52428 5.74906 6.96186 5.46463 7.44765 5.28532C7.84148 5.13217 8.43666 4.94842 9.52618 4.90022C10.7077 4.84774 11.0622 4.83458 14.0507 4.83458C17.0439 4.83458 17.3983 4.84774 18.5755 4.90022C19.6694 4.94842 20.2602 5.13217 20.654 5.28532C21.1396 5.46463 21.5817 5.74906 21.9404 6.12101C22.3124 6.48424 22.5968 6.92183 22.7763 7.40761C22.9294 7.80144 23.1132 8.39645 23.1614 9.48615C23.2139 10.6676 23.227 11.022 23.227 14.0107C23.227 16.9995 23.2139 17.3495 23.1614 18.531Z" fill="#6E7275"/>
<path d="M14.0418 8.24805C10.8651 8.24805 8.2876 10.8254 8.2876 14.0023C8.2876 17.1792 10.8651 19.7565 14.0418 19.7565C17.2188 19.7565 19.7961 17.1792 19.7961 14.0023C19.7961 10.8254 17.2188 8.24805 14.0418 8.24805ZM14.0418 17.7349C11.9809 17.7349 10.3092 16.0634 10.3092 14.0023C10.3092 11.9412 11.9809 10.2697 14.0418 10.2697C16.1029 10.2697 17.7745 11.9412 17.7745 14.0023C17.7745 16.0634 16.1029 17.7349 14.0418 17.7349Z" fill="#6E7275"/>
<path d="M21.3671 8.02109C21.3671 8.76293 20.7655 9.36444 20.0235 9.36444C19.2817 9.36444 18.6802 8.76293 18.6802 8.02109C18.6802 7.27907 19.2817 6.67773 20.0235 6.67773C20.7655 6.67773 21.3671 7.27907 21.3671 8.02109Z" fill="#6E7275"/>
</g>
</g>
<defs>
<clipPath id="clip0_672_1558">
<rect width="22.4" height="22.4" fill="white" transform="translate(2.7998 2.7998)"/>
</clipPath>
</defs>
</svg>
