<svg width="28" height="28" viewBox="0 0 28 28" fill="none" xmlns="http://www.w3.org/2000/svg">
<g opacity="0.6">
<path d="M25.5505 8.11906C25.3228 6.88706 24.2417 5.99106 22.9898 5.71106C21.112 5.31906 17.6409 5.03906 13.8853 5.03906C10.1297 5.03906 6.60169 5.31906 4.72388 5.71106C3.47201 5.99106 2.39085 6.83106 2.16323 8.11906C1.93562 9.51906 1.70801 11.4791 1.70801 13.9991C1.70801 16.5191 1.93562 18.4791 2.22014 19.8791C2.44775 21.1111 3.52891 22.0071 4.78078 22.2871C6.77239 22.6791 10.1866 22.9591 13.9422 22.9591C17.6978 22.9591 21.112 22.6791 23.1036 22.2871C24.3555 22.0071 25.4367 21.1671 25.6643 19.8791C25.8919 18.4791 26.1764 16.4631 26.2333 13.9991C26.1195 11.4791 25.835 9.51906 25.5505 8.11906ZM10.8125 17.9191V10.0791L17.7547 13.9991L10.8125 17.9191Z" fill="#6E7275"/>
</g>
</svg>
