<svg width="28" height="28" viewBox="0 0 28 28" fill="none" xmlns="http://www.w3.org/2000/svg">
<g opacity="0.6">
<path d="M26.1333 6.47489C25.2401 6.87156 24.2807 7.13849 23.2736 7.25889C24.3021 6.64289 25.0908 5.66756 25.4623 4.50463C24.5009 5.07489 23.4351 5.48929 22.3001 5.71329C21.392 4.74542 20.0984 4.14062 18.6667 4.14062C15.9171 4.14062 13.6883 6.37036 13.6883 9.11903C13.6883 9.50916 13.7331 9.88996 13.8171 10.253C9.67959 10.0458 6.01159 8.06342 3.55506 5.05062C3.12759 5.78609 2.88212 6.64102 2.88212 7.55476C2.88212 9.28142 3.76039 10.8056 5.09599 11.6978C4.28026 11.6717 3.51212 11.4477 2.84106 11.0753C2.84106 11.0968 2.84106 11.1164 2.84106 11.1378C2.84106 13.5505 4.55652 15.5628 6.83479 16.0192C6.41759 16.133 5.97706 16.1937 5.52252 16.1937C5.20239 16.1937 4.88972 16.162 4.58639 16.105C5.22012 18.0828 7.05879 19.5229 9.23719 19.563C7.53386 20.8986 5.38719 21.6948 3.05386 21.6948C2.65252 21.6948 2.25586 21.6714 1.86572 21.6248C4.06932 23.0369 6.68546 23.861 9.49759 23.861C18.6555 23.861 23.6619 16.2749 23.6619 9.69582C23.6619 9.48022 23.6572 9.26556 23.6479 9.05182C24.6213 8.34902 25.466 7.47262 26.1333 6.47489Z" fill="#6E7275"/>
</g>
</svg>
