<svg width="28" height="28" viewBox="0 0 28 28" fill="none" xmlns="http://www.w3.org/2000/svg">
<g opacity="0.6">
<path d="M13.9998 2.7998C7.81461 2.7998 2.7998 7.8146 2.7998 13.9998C2.7998 19.2479 6.41367 23.6393 11.2857 24.8545C11.2334 24.7033 11.1998 24.5278 11.1998 24.3103V22.3961C10.7453 22.3961 9.98367 22.3961 9.79234 22.3961C9.02607 22.3961 8.34474 22.0666 8.01434 21.4543C7.64754 20.7739 7.58407 19.7333 6.675 19.0967C6.40527 18.8849 6.6106 18.6431 6.9214 18.6758C7.4954 18.8382 7.97141 19.2321 8.4194 19.8163C8.86554 20.4015 9.07554 20.5341 9.909 20.5341C10.3131 20.5341 10.9179 20.5107 11.4873 20.4211C11.7934 19.6437 12.3226 18.9278 12.9694 18.5899C9.23981 18.2063 7.45994 16.3509 7.45994 13.8318C7.45994 12.7473 7.92194 11.6982 8.70687 10.8143C8.44927 9.937 8.12541 8.1478 8.80581 7.46647C10.4839 7.46647 11.4985 8.55474 11.7421 8.84874C12.5783 8.5622 13.4967 8.3998 14.4618 8.3998C15.4287 8.3998 16.3509 8.5622 17.189 8.8506C17.4298 8.55847 18.4453 7.46647 20.1271 7.46647C20.8103 8.14874 20.4827 9.9454 20.2223 10.8209C21.0026 11.7029 21.4618 12.7491 21.4618 13.8318C21.4618 16.349 19.6847 18.2035 15.9607 18.589C16.9855 19.1238 17.7331 20.6265 17.7331 21.7586V24.3103C17.7331 24.4074 17.7117 24.4774 17.7005 24.5605C22.0647 23.0307 25.1998 18.8867 25.1998 13.9998C25.1998 7.8146 20.185 2.7998 13.9998 2.7998Z" fill="#6E7275"/>
</g>
</svg>
