<svg width="28" height="28" viewBox="0 0 28 28" fill="none" xmlns="http://www.w3.org/2000/svg">
<g opacity="0.6">
<path d="M22.4001 3.73352H5.60007C4.56873 3.73352 3.7334 4.56885 3.7334 5.60019V22.4002C3.7334 23.4315 4.56873 24.2669 5.60007 24.2669H22.4001C23.4314 24.2669 24.2667 23.4315 24.2667 22.4002V5.60019C24.2667 4.56885 23.4314 3.73352 22.4001 3.73352ZM10.2238 20.5335H7.47046V11.6743H10.2238V20.5335ZM8.81913 10.4078C7.93153 10.4078 7.2138 9.68819 7.2138 8.80245C7.2138 7.91672 7.93247 7.19805 8.81913 7.19805C9.70393 7.19805 10.4235 7.91765 10.4235 8.80245C10.4235 9.68819 9.70393 10.4078 8.81913 10.4078ZM20.5371 20.5335H17.7857V16.2253C17.7857 15.1977 17.767 13.8761 16.3549 13.8761C14.9222 13.8761 14.7019 14.9951 14.7019 16.1506V20.5335H11.9505V11.6743H14.5918V12.8849H14.6291C14.9969 12.1886 15.8947 11.4541 17.2341 11.4541C20.0219 11.4541 20.5371 13.289 20.5371 15.6746V20.5335Z" fill="#6E7275"/>
</g>
</svg>
