<svg width="24" height="24" fill="none" xmlns="http://www.w3.org/2000/svg"><path d="M12 .297c-6.63 0-12 5.375-12 12 0 5.305 3.438 9.801 8.203 11.387.602.113.82-.258.82-.579 0-.285-.007-1.038-.012-2.039-3.34.723-4.043-1.613-4.043-1.613-.547-1.383-1.336-1.755-1.336-1.755-1.086-.741.087-.726.087-.726 1.203.082 1.836 1.234 1.836 1.234 1.07 1.836 2.808 1.305 3.495.996.105-.773.418-1.305.758-1.601-2.663-.3-5.465-1.332-5.465-5.93 0-1.313.465-2.383 1.234-3.223-.133-.3-.54-1.523.106-3.176 0 0 1.004-.32 3.3 1.23.96-.266 1.98-.398 3-.405 1.02.007 2.039.14 3 .406 2.282-1.551 3.285-1.231 3.285-1.231.645 1.653.238 2.875.121 3.176.762.84 1.227 1.91 1.227 3.223 0 4.608-2.805 5.625-5.473 5.918.417.36.808 1.098.808 2.22 0 1.604-.015 2.897-.015 3.288 0 .312.21.687.828.566A11.95 11.95 0 0 0 24 12.296c0-6.624-5.371-12-12-12L12 .297Z" fill="#fff"/></svg>
