<svg width="52" height="52" fill="none" xmlns="http://www.w3.org/2000/svg"><path d="M26 5.2C14.511 5.2 5.2 14.511 5.2 26c0 9.746 6.71 17.901 15.759 20.158a3.035 3.035 0 0 1-.16-1.01v-3.556h-2.614c-1.423 0-2.688-.612-3.302-1.749-.68-1.263-.799-3.196-2.487-4.378-.5-.394-.12-.842.458-.782 1.066.302 1.95 1.033 2.782 2.118.828 1.087 1.218 1.333 2.766 1.333.75 0 1.874-.043 2.931-.21.569-1.443 1.551-2.773 2.753-3.4-6.927-.713-10.232-4.159-10.232-8.837 0-2.014.858-3.962 2.316-5.604-.479-1.629-1.08-4.952.183-6.217 3.117 0 5 2.021 5.453 2.567a15.586 15.586 0 0 1 5.051-.834c1.796 0 3.509.302 5.065.837.447-.542 2.333-2.57 5.457-2.57 1.268 1.267.66 4.604.176 6.23 1.45 1.637 2.302 3.58 2.302 5.591 0 4.675-3.3 8.12-10.216 8.835 1.903.993 3.292 3.784 3.292 5.886v4.74c0 .18-.04.31-.061.464 8.105-2.841 13.927-10.537 13.927-19.613 0-11.487-9.313-20.8-20.8-20.8Z" fill="#fff"/></svg>