<svg width="36" height="36" viewBox="0 0 36 36" fill="none" xmlns="http://www.w3.org/2000/svg">
<g opacity="0.6">
<path d="M17.9996 3.59912C10.0472 3.59912 3.59961 10.0467 3.59961 17.9991C3.59961 24.7467 8.24601 30.3927 14.51 31.9551C14.4428 31.7607 14.3996 31.5351 14.3996 31.2555V28.7943C13.8152 28.7943 12.836 28.7943 12.59 28.7943C11.6048 28.7943 10.7288 28.3707 10.304 27.5835C9.83241 26.7087 9.75081 25.3707 8.58201 24.5523C8.23521 24.2799 8.49921 23.9691 8.89881 24.0111C9.63681 24.2199 10.2488 24.7263 10.8248 25.4775C11.3984 26.2299 11.6684 26.4003 12.74 26.4003C13.2596 26.4003 14.0372 26.3703 14.7692 26.2551C15.1628 25.2555 15.8432 24.3351 16.6748 23.9007C11.8796 23.4075 9.59121 21.0219 9.59121 17.7831C9.59121 16.3887 10.1852 15.0399 11.1944 13.9035C10.8632 12.7755 10.4468 10.4751 11.3216 9.59912C13.4792 9.59912 14.7836 10.9983 15.0968 11.3763C16.172 11.0079 17.3528 10.7991 18.5936 10.7991C19.8368 10.7991 21.0224 11.0079 22.1 11.3787C22.4096 11.0031 23.7152 9.59912 25.8776 9.59912C26.756 10.4763 26.3348 12.7863 26 13.9119C27.0032 15.0459 27.5936 16.3911 27.5936 17.7831C27.5936 21.0195 25.3088 23.4039 20.5208 23.8995C21.8384 24.5871 22.7996 26.5191 22.7996 27.9747V31.2555C22.7996 31.3803 22.772 31.4703 22.7576 31.5771C28.3688 29.6103 32.3996 24.2823 32.3996 17.9991C32.3996 10.0467 25.952 3.59912 17.9996 3.59912Z" fill="white"/>
</g>
</svg>
