<svg width="172" height="51" fill="none" xmlns="http://www.w3.org/2000/svg"><path d="M61.063 13.06a3.473 3.473 0 0 1-.944 2.554 3.683 3.683 0 0 1-2.791 1.132 3.89 3.89 0 0 1-2.81-1.161 3.943 3.943 0 0 1-1.139-2.835 3.964 3.964 0 0 1 1.139-2.834 3.913 3.913 0 0 1 2.81-1.162 3.898 3.898 0 0 1 1.56.32c.457.187.864.48 1.188.855l-.668.673a2.568 2.568 0 0 0-2.08-.907 2.921 2.921 0 0 0-2.122.895 2.96 2.96 0 0 0-.83 2.16c-.01.596.157 1.181.479 1.681a2.97 2.97 0 0 0 4.596.52c.39-.422.615-.972.636-1.549h-2.76v-.919h3.683c.035.19.053.384.053.577ZM66.902 9.865H63.44v2.426h3.12v.919h-3.12v2.425h3.46v.94h-4.436v-7.65h4.437v.94ZM71.02 16.575h-.977v-6.71H67.92v-.94h5.222v.94H71.02v6.71ZM76.922 16.575v-7.65h.976v7.65h-.976ZM82.229 16.575h-.978v-6.71H79.13v-.94h5.222v.94H82.23v6.71ZM94.238 15.586a3.934 3.934 0 0 1-2.786 1.16 3.933 3.933 0 0 1-2.787-1.16 3.915 3.915 0 0 1-1.12-2.836 3.934 3.934 0 0 1 1.12-2.836 3.93 3.93 0 0 1 2.785-1.16 3.91 3.91 0 0 1 3.907 3.996 3.94 3.94 0 0 1-1.119 2.836Zm-4.852-.64a2.913 2.913 0 0 0 4.13 0 2.998 2.998 0 0 0 .844-2.196 3.01 3.01 0 0 0-.844-2.196 2.913 2.913 0 0 0-4.13 0 3.002 3.002 0 0 0-.843 2.196 3.015 3.015 0 0 0 .843 2.196ZM96.728 16.575v-7.65h1.19l3.693 5.95h.042l-.042-1.473V8.925h.977v7.65h-1.019l-3.865-6.24h-.042l.042 1.475v4.765h-.975Z" fill="#fff" stroke="#fff" stroke-width=".2" stroke-miterlimit="10"/><path d="M87.306 27.733a5.363 5.363 0 0 0-2.988.924 5.415 5.415 0 0 0-1.975 2.438 5.456 5.456 0 0 0-.298 3.131 5.433 5.433 0 0 0 1.48 2.771 5.356 5.356 0 0 0 5.869 1.166 5.396 5.396 0 0 0 2.413-1.997 5.448 5.448 0 0 0 .907-3.01 5.376 5.376 0 0 0-1.562-3.866 5.306 5.306 0 0 0-3.846-1.557Zm0 8.71a3.256 3.256 0 0 1-1.879-.44 3.286 3.286 0 0 1-1.307-1.426 3.314 3.314 0 0 1 .558-3.667 3.252 3.252 0 0 1 3.594-.82 3.277 3.277 0 0 1 1.506 1.21 3.31 3.31 0 0 1 .568 1.856 3.154 3.154 0 0 1-.832 2.288 3.118 3.118 0 0 1-2.208.998Zm-11.797-8.71a5.363 5.363 0 0 0-2.988.924 5.416 5.416 0 0 0-1.975 2.438 5.456 5.456 0 0 0 1.18 5.902 5.355 5.355 0 0 0 5.869 1.166 5.395 5.395 0 0 0 2.415-1.997 5.448 5.448 0 0 0 .906-3.01 5.375 5.375 0 0 0-1.561-3.866 5.28 5.28 0 0 0-3.846-1.557Zm0 8.71a3.256 3.256 0 0 1-1.879-.44 3.287 3.287 0 0 1-1.307-1.426 3.314 3.314 0 0 1 .558-3.667 3.253 3.253 0 0 1 3.594-.82 3.277 3.277 0 0 1 1.506 1.21 3.31 3.31 0 0 1 .568 1.856 3.156 3.156 0 0 1-.832 2.288 3.12 3.12 0 0 1-2.208.998Zm-14.033-7.046v2.3h5.469a4.817 4.817 0 0 1-1.245 2.896 5.566 5.566 0 0 1-4.224 1.684 6.063 6.063 0 0 1-4.247-1.821 6.143 6.143 0 0 1-1.753-4.3c0-1.609.63-3.153 1.753-4.299a6.062 6.062 0 0 1 4.247-1.822 5.809 5.809 0 0 1 4.122 1.644l1.612-1.623a7.968 7.968 0 0 0-2.635-1.743 7.925 7.925 0 0 0-3.1-.578 8.317 8.317 0 0 0-3.239.605 8.362 8.362 0 0 0-2.756 1.818 8.424 8.424 0 0 0-1.845 2.747 8.47 8.47 0 0 0 1.845 9.25 8.362 8.362 0 0 0 2.756 1.818 8.32 8.32 0 0 0 3.24.605 7.606 7.606 0 0 0 3.17-.549 7.647 7.647 0 0 0 2.666-1.813 7.63 7.63 0 0 0 1.98-5.382 7.542 7.542 0 0 0-.123-1.437h-7.693Zm57.39 1.787a5.04 5.04 0 0 0-1.765-2.458 4.986 4.986 0 0 0-2.847-.993 5.093 5.093 0 0 0-3.692 1.617 5.166 5.166 0 0 0-1.389 3.806 5.342 5.342 0 0 0 1.529 3.854 5.267 5.267 0 0 0 3.818 1.568 5.334 5.334 0 0 0 2.546-.631 5.375 5.375 0 0 0 1.943-1.772l-1.837-1.232c-.275.46-.664.84-1.129 1.102-.465.263-.99.4-1.523.397a2.725 2.725 0 0 1-1.557-.417 2.748 2.748 0 0 1-1.055-1.226l7.203-3-.245-.615Zm-7.346 1.807a2.992 2.992 0 0 1 .748-2.177 2.955 2.955 0 0 1 2.068-.986c.409-.027.816.068 1.172.272.356.205.643.51.828.878l-4.816 2.013Zm-5.857 5.259h2.367V22.31h-2.367v15.94Zm-3.877-9.305h-.082a3.712 3.712 0 0 0-2.836-1.212 5.377 5.377 0 0 0-3.664 1.667 5.447 5.447 0 0 0-1.5 3.756c0 1.4.538 2.745 1.5 3.755a5.377 5.377 0 0 0 3.664 1.667 3.652 3.652 0 0 0 2.836-1.232h.082v.78c0 2.075-1.102 3.184-2.877 3.184a2.968 2.968 0 0 1-1.65-.55 2.998 2.998 0 0 1-1.064-1.38l-2.062.862a5.16 5.16 0 0 0 1.902 2.337 5.11 5.11 0 0 0 2.874.867c2.775 0 5.122-1.643 5.122-5.648V28.06h-2.245v.884Zm-2.714 7.497a3.269 3.269 0 0 1-2.136-1.055 3.31 3.31 0 0 1 0-4.463 3.268 3.268 0 0 1 2.136-1.055 3.021 3.021 0 0 1 2.136 1.039 3.079 3.079 0 0 1 .741 2.268 3.04 3.04 0 0 1-1.71 2.976 2.994 2.994 0 0 1-1.167.29Zm30.883-14.132h-5.664v15.94h2.363v-6.04h3.301a4.915 4.915 0 0 0 3.655-1.35 4.98 4.98 0 0 0 0-7.2 4.915 4.915 0 0 0-3.655-1.35Zm.061 7.683h-3.362v-5.464h3.362a2.699 2.699 0 0 1 1.955.78 2.734 2.734 0 0 1 .815 1.952 2.748 2.748 0 0 1-.815 1.952 2.718 2.718 0 0 1-1.955.78Zm14.606-2.29a4.414 4.414 0 0 0-2.47.587 4.459 4.459 0 0 0-1.747 1.854l2.099.882a2.229 2.229 0 0 1 2.159-1.169c.6-.06 1.198.123 1.664.508.466.384.761.939.822 1.542v.164a5.204 5.204 0 0 0-2.466-.615c-2.261 0-4.563 1.251-4.563 3.589a3.703 3.703 0 0 0 1.229 2.59 3.65 3.65 0 0 0 2.703.916 3.315 3.315 0 0 0 1.719-.365 3.34 3.34 0 0 0 1.296-1.193h.082v1.23h2.281v-6.11c0-2.83-2.098-4.41-4.808-4.41Zm-.285 8.736c-.774 0-1.854-.39-1.854-1.353 0-1.23 1.345-1.702 2.506-1.702.754-.02 1.5.163 2.16.533a2.89 2.89 0 0 1-.937 1.791 2.853 2.853 0 0 1-1.875.731Zm13.405-8.387-2.709 6.91h-.082l-2.811-6.91h-2.547l4.217 9.658-2.404 5.373h2.465l6.499-15.03h-2.628ZM136.453 38.25h2.363V22.31h-2.363v15.94Z" fill="#fff"/><path d="M14.218 9.61c-.416.5-.625 1.141-.586 1.792V39.6c-.04.65.17 1.291.586 1.791l.094.092 15.692-15.796v-.373L14.311 9.518l-.093.093Z" fill="url(#a)"/><path d="m35.236 30.955-5.231-5.267v-.373l5.232-5.266.118.067 6.197 3.545c1.77 1.012 1.77 2.669 0 3.682l-6.197 3.545-.12.067Z" fill="url(#b)"/><path d="m35.354 30.886-5.35-5.385-15.786 15.89a2.053 2.053 0 0 0 2.632.078l18.504-10.583Z" fill="url(#c)"/><path d="M35.354 20.116 16.85 9.533a2.051 2.051 0 0 0-2.632.078L30.004 25.5l5.35-5.386Z" fill="url(#d)"/><path opacity=".2" d="M35.236 30.768 16.85 41.283a2.1 2.1 0 0 1-2.538.014l-.094.095.094.092a2.1 2.1 0 0 0 2.538-.014l18.504-10.583-.118-.119Z" fill="#1C1C1E"/><path opacity=".12" d="M14.218 41.206a2.565 2.565 0 0 1-.586-1.791v.186c-.04.65.17 1.291.586 1.791l.094-.095-.094-.091ZM41.552 27.156l-6.316 3.612.118.119 6.198-3.545c.364-.159.68-.414.913-.737.234-.324.377-.705.415-1.103a2.382 2.382 0 0 1-1.328 1.654Z" fill="#1C1C1E"/><path opacity=".25" d="m16.85 9.72 24.702 14.126a2.359 2.359 0 0 1 1.328 1.655 2.245 2.245 0 0 0-.414-1.103 2.224 2.224 0 0 0-.914-.738L16.85 9.533c-1.77-1.012-3.218-.171-3.218 1.87v.186c0-2.04 1.448-2.882 3.218-1.87Z" fill="#fff"/><defs><linearGradient id="a" x1="28.613" y1="11.105" x2="7.216" y2="32.362" gradientUnits="userSpaceOnUse"><stop stop-color="#00A0FF"/><stop offset=".007" stop-color="#00A1FF"/><stop offset=".26" stop-color="#00BEFF"/><stop offset=".512" stop-color="#00D2FF"/><stop offset=".76" stop-color="#00DFFF"/><stop offset="1" stop-color="#00E3FF"/></linearGradient><linearGradient id="b" x1="43.857" y1="25.502" x2="13.208" y2="25.502" gradientUnits="userSpaceOnUse"><stop stop-color="#FFE000"/><stop offset=".409" stop-color="#FFBD00"/><stop offset=".775" stop-color="orange"/><stop offset="1" stop-color="#FF9C00"/></linearGradient><linearGradient id="c" x1="32.447" y1="28.427" x2="3.431" y2="57.254" gradientUnits="userSpaceOnUse"><stop stop-color="#FF3A44"/><stop offset="1" stop-color="#C31162"/></linearGradient><linearGradient id="d" x1="10.243" y1=".225" x2="23.2" y2="13.097" gradientUnits="userSpaceOnUse"><stop stop-color="#32A071"/><stop offset=".069" stop-color="#2DA771"/><stop offset=".476" stop-color="#15CF74"/><stop offset=".801" stop-color="#06E775"/><stop offset="1" stop-color="#00F076"/></linearGradient></defs></svg>