<svg width="172" height="51" viewBox="0 0 172 51" fill="none" xmlns="http://www.w3.org/2000/svg">
<rect x="0.5" y="0.5" width="171" height="50" rx="15.5" fill="#1C1C1E" stroke="#A6A6A6"/>
<path d="M61.0629 13.0603C61.0859 13.5282 61.0141 13.9959 60.8519 14.4349C60.6896 14.8739 60.4402 15.2751 60.119 15.614C59.759 15.9899 59.3242 16.2849 58.8431 16.48C58.362 16.675 57.8454 16.7656 57.3271 16.7458C56.8056 16.7505 56.2883 16.6502 55.8058 16.4508C55.3232 16.2514 54.8852 15.957 54.5173 15.5847C54.1495 15.2125 53.8593 14.77 53.6638 14.2832C53.4682 13.7964 53.3714 13.2753 53.3788 12.7503C53.3714 12.2253 53.4683 11.7041 53.6639 11.2173C53.8594 10.7305 54.1496 10.288 54.5174 9.91572C54.8852 9.54343 55.3233 9.24889 55.8058 9.0494C56.2883 8.84991 56.8055 8.7495 57.3271 8.75405C57.8634 8.75242 58.3943 8.86156 58.887 9.07472C59.3446 9.26143 59.752 9.5543 60.0758 9.92947L59.4078 10.6024C59.1532 10.3008 58.8332 10.0621 58.4724 9.90474C58.1117 9.74737 57.7199 9.67552 57.3271 9.69475C56.9318 9.69269 56.5402 9.77095 56.1757 9.92486C55.8111 10.0788 55.4812 10.3051 55.2056 10.5904C54.93 10.8757 54.7145 11.2141 54.5719 11.5852C54.4294 11.9563 54.3626 12.3526 54.3758 12.7503C54.3664 13.3459 54.5329 13.931 54.8543 14.4313C55.1756 14.9316 55.6373 15.3245 56.1808 15.5604C56.7244 15.7962 57.3252 15.8642 57.9072 15.7558C58.4892 15.6475 59.0261 15.3676 59.4498 14.9517C59.8398 14.5287 60.0659 13.9787 60.0868 13.402H57.3271V12.4832H61.0097C61.0445 12.6736 61.0623 12.8667 61.0629 13.0603V13.0603Z" fill="white" stroke="white" stroke-width="0.2" stroke-miterlimit="10"/>
<path d="M66.9018 9.86535H63.4408V12.2908H66.5617V13.2098H63.4408V15.6352H66.9018V16.5753H62.4648V8.92529H66.9018V9.86535Z" fill="white" stroke="white" stroke-width="0.2" stroke-miterlimit="10"/>
<path d="M71.0198 16.5753H70.0426V9.86535H67.9199V8.92529H73.1425V9.86535H71.0198V16.5753Z" fill="white" stroke="white" stroke-width="0.2" stroke-miterlimit="10"/>
<path d="M76.9214 16.5748V8.9248H77.8974V16.5748H76.9214Z" fill="white" stroke="white" stroke-width="0.2" stroke-miterlimit="10"/>
<path d="M82.2292 16.5748H81.2519V9.86486H79.1294V8.9248H84.3519V9.86486H82.2292V16.5748Z" fill="white" stroke="white" stroke-width="0.2" stroke-miterlimit="10"/>
<path d="M94.2384 15.5865C93.4987 16.3288 92.4967 16.7457 91.4522 16.7457C90.4076 16.7457 89.4056 16.3288 88.6659 15.5865C88.2999 15.2134 88.0122 14.77 87.8199 14.2828C87.6276 13.7955 87.5346 13.2743 87.5464 12.7501C87.5346 12.226 87.6276 11.7047 87.8199 11.2175C88.0122 10.7302 88.2999 10.2869 88.6659 9.91377C89.0315 9.54563 89.4657 9.2537 89.9435 9.05468C90.4214 8.85565 90.9336 8.75345 91.4507 8.75391C91.9679 8.75437 92.4799 8.85749 92.9574 9.05737C93.4349 9.25725 93.8685 9.54995 94.2335 9.91874C94.5997 10.2909 94.888 10.7332 95.0811 11.2196C95.2743 11.706 95.3684 12.2264 95.3579 12.7501C95.3694 13.2742 95.2763 13.7954 95.084 14.2826C94.8917 14.7698 94.6041 15.2132 94.2384 15.5865V15.5865ZM89.387 14.9459C89.9349 15.4964 90.6774 15.8057 91.4515 15.8057C92.2257 15.8057 92.9682 15.4964 93.5161 14.9459C93.797 14.6564 94.0167 14.3125 94.1619 13.9351C94.3072 13.5577 94.3749 13.1546 94.3609 12.7501C94.3749 12.3456 94.3072 11.9425 94.1619 11.5651C94.0167 11.1877 93.797 10.8439 93.5161 10.5543C92.9682 10.0038 92.2257 9.69458 91.4515 9.69458C90.6774 9.69458 89.9349 10.0038 89.387 10.5543C89.1064 10.8441 88.8871 11.188 88.7421 11.5654C88.5971 11.9427 88.5295 12.3458 88.5434 12.7501C88.5295 13.1545 88.5971 13.5575 88.7421 13.9349C88.8871 14.3122 89.1064 14.6562 89.387 14.9459V14.9459Z" fill="white" stroke="white" stroke-width="0.2" stroke-miterlimit="10"/>
<path d="M96.7285 16.5748V8.9248H97.9173L101.611 14.8758H101.653L101.611 13.4016V8.9248H102.588V16.5748H101.569L97.7045 10.3355H97.6624L97.7045 11.8097V16.5748H96.7285Z" fill="white" stroke="white" stroke-width="0.2" stroke-miterlimit="10"/>
<path d="M87.3054 27.7328C86.2407 27.7369 85.2011 28.0584 84.3179 28.6567C83.4346 29.255 82.7473 30.1034 82.3427 31.0946C81.938 32.0859 81.8343 33.1756 82.0445 34.2261C82.2546 35.2767 82.7693 36.241 83.5236 36.9973C84.2779 37.7537 85.2378 38.2681 86.2823 38.4757C87.3268 38.6832 88.409 38.5746 89.3922 38.1636C90.3754 37.7525 91.2156 37.0574 91.8067 36.1661C92.3977 35.2748 92.7132 34.2272 92.7131 33.1555C92.7236 32.4387 92.5907 31.7272 92.3224 31.0631C92.0541 30.3991 91.6558 29.7962 91.1513 29.2903C90.6467 28.7843 90.0463 28.3857 89.3855 28.1182C88.7248 27.8506 88.0174 27.7196 87.3054 27.7328V27.7328ZM87.3054 36.4421C86.6497 36.4891 85.9952 36.3364 85.427 36.0037C84.8587 35.6711 84.4032 35.174 84.1196 34.5771C83.836 33.9802 83.7375 33.3112 83.8369 32.6572C83.9364 32.0031 84.2291 31.3944 84.6771 30.9102C85.125 30.426 85.7074 30.0887 86.3485 29.9424C86.9895 29.796 87.6595 29.8473 88.2712 30.0896C88.8828 30.3318 89.4079 30.7539 89.7779 31.3007C90.1479 31.8475 90.3459 32.4939 90.3459 33.1555C90.3658 33.5735 90.3024 33.9913 90.1595 34.3842C90.0165 34.7772 89.7969 35.1374 89.5136 35.4437C89.2303 35.7499 88.889 35.996 88.5097 36.1675C88.1305 36.3389 87.721 36.4323 87.3054 36.4421V36.4421ZM75.5084 27.7328C74.4437 27.7369 73.4042 28.0583 72.5209 28.6566C71.6376 29.255 70.9502 30.1033 70.5456 31.0945C70.141 32.0858 70.0372 33.1755 70.2473 34.226C70.4575 35.2766 70.9722 36.2409 71.7265 36.9973C72.4807 37.7536 73.4407 38.2681 74.4852 38.4756C75.5297 38.6832 76.6118 38.5746 77.5951 38.1636C78.5783 37.7525 79.4185 37.0575 80.0096 36.1661C80.6006 35.2748 80.9161 34.2272 80.916 33.1555C80.9265 32.4387 80.7936 31.7272 80.5253 31.0632C80.257 30.3991 79.8587 29.7962 79.3542 29.2903C78.8497 28.7844 78.2492 28.3858 77.5885 28.1182C76.9278 27.8506 76.2204 27.7196 75.5084 27.7328V27.7328ZM75.5084 36.4421C74.8527 36.4891 74.1982 36.3364 73.63 36.0037C73.0618 35.6711 72.6062 35.174 72.3226 34.5771C72.039 33.9802 71.9405 33.3112 72.04 32.6572C72.1394 32.0031 72.4321 31.3944 72.8801 30.9102C73.3281 30.426 73.9105 30.0887 74.5515 29.9424C75.1925 29.796 75.8625 29.8473 76.4742 30.0896C77.0858 30.3318 77.6109 30.7539 77.9809 31.3007C78.351 31.8475 78.5489 32.4939 78.5489 33.1555C78.5688 33.5735 78.5054 33.9913 78.3625 34.3842C78.2196 34.7772 78 35.1374 77.7167 35.4437C77.4333 35.7499 77.092 35.996 76.7128 36.1675C76.3335 36.339 75.924 36.4323 75.5084 36.4421ZM61.4752 29.3967V31.6972H66.9443C66.8654 32.7762 66.4268 33.7968 65.6995 34.5934C65.1514 35.1558 64.4923 35.5962 63.7647 35.8863C63.0371 36.1764 62.2572 36.3097 61.4752 36.2777C59.8767 36.2559 58.3509 35.6014 57.2282 34.4559C56.1054 33.3103 55.4759 31.7658 55.4759 30.1566C55.4759 28.5474 56.1054 27.0029 57.2282 25.8573C58.3509 24.7117 59.8767 24.0573 61.4752 24.0355C63.0107 24.0153 64.4921 24.6058 65.5975 25.6787L67.2096 24.056C66.4553 23.3044 65.5596 22.7119 64.575 22.3134C63.5903 21.9148 62.5364 21.7181 61.4752 21.7349C60.3663 21.7186 59.2651 21.9244 58.2359 22.3404C57.2066 22.7563 56.2698 23.3741 55.4799 24.1577C54.6899 24.9414 54.0627 25.8752 53.6345 26.9051C53.2063 27.9349 52.9858 29.0402 52.9858 30.1566C52.9858 31.273 53.2063 32.3782 53.6345 33.4081C54.0627 34.4379 54.6899 35.3718 55.4799 36.1555C56.2698 36.9391 57.2066 37.5569 58.2359 37.9728C59.2651 38.3887 60.3663 38.5946 61.4752 38.5783C62.5588 38.6235 63.6396 38.4363 64.6458 38.0291C65.652 37.6218 66.5607 37.0038 67.3115 36.2161C68.6446 34.7515 69.3551 32.8198 69.2911 30.8345C69.2963 30.3524 69.2552 29.8709 69.1685 29.3967H61.4752ZM118.866 31.1836C118.542 30.2014 117.926 29.3433 117.101 28.7259C116.275 28.1085 115.282 27.7618 114.254 27.7328C113.562 27.7371 112.878 27.8827 112.243 28.1607C111.608 28.4387 111.036 28.8434 110.561 29.3502C110.086 29.8571 109.718 30.4557 109.48 31.1097C109.241 31.7637 109.137 32.4597 109.173 33.1555C109.157 33.8685 109.284 34.5773 109.547 35.2396C109.81 35.9019 110.202 36.5041 110.701 37.0103C111.2 37.5165 111.796 37.9162 112.452 38.1856C113.108 38.455 113.811 38.5886 114.519 38.5783C115.407 38.5833 116.281 38.3662 117.065 37.9468C117.849 37.5273 118.516 36.9185 119.009 36.1751L117.172 34.9427C116.897 35.4026 116.508 35.7826 116.043 36.0455C115.578 36.3084 115.053 36.445 114.519 36.4421C113.97 36.4632 113.428 36.3178 112.962 36.0248C112.496 35.7318 112.129 35.3047 111.907 34.7988L119.111 31.7999L118.866 31.1836ZM111.519 32.9913C111.494 32.5966 111.547 32.2008 111.676 31.827C111.804 31.4532 112.005 31.109 112.267 30.8144C112.53 30.5199 112.848 30.2809 113.203 30.1115C113.558 29.9422 113.943 29.8458 114.335 29.828C114.744 29.801 115.152 29.8956 115.507 30.1002C115.863 30.3047 116.151 30.6101 116.335 30.9783L111.519 32.9913ZM105.663 38.2496H108.03V22.3102H105.663V38.2496ZM101.785 28.9447H101.704C101.344 28.5511 100.905 28.2394 100.416 28.0304C99.9264 27.8214 99.3985 27.72 98.8673 27.7328C97.4781 27.7923 96.1655 28.3897 95.2034 29.4001C94.2414 30.4106 93.7043 31.756 93.7043 33.1556C93.7043 34.5551 94.2414 35.9006 95.2034 36.911C96.1655 37.9215 97.4781 38.5188 98.8673 38.5783C99.4006 38.5926 99.9307 38.4897 100.421 38.2769C100.91 38.0641 101.348 37.7464 101.704 37.3459H101.785V38.1264C101.785 40.2011 100.684 41.3102 98.908 41.3102C98.3163 41.296 97.7422 41.1047 97.2589 40.7609C96.7756 40.417 96.4049 39.9361 96.1941 39.3794L94.133 40.2422C94.5214 41.1942 95.1834 42.0077 96.0342 42.5786C96.8849 43.1495 97.8856 43.4517 98.908 43.4465C101.683 43.4465 104.03 41.8033 104.03 37.7978V28.0614H101.785V28.9447ZM99.0714 36.4421C98.2532 36.3722 97.4909 35.9957 96.9354 35.3871C96.3798 34.7785 96.0715 33.9821 96.0715 33.1556C96.0715 32.329 96.3798 31.5327 96.9354 30.924C97.4909 30.3154 98.2532 29.9389 99.0714 29.8691C99.4785 29.8891 99.8774 29.9914 100.244 30.1699C100.611 30.3483 100.939 30.5994 101.207 30.908C101.476 31.2166 101.68 31.5764 101.807 31.9661C101.935 32.3558 101.983 32.7672 101.949 33.176C101.98 33.5823 101.931 33.9908 101.802 34.3772C101.673 34.7636 101.469 35.1199 101.2 35.4248C100.931 35.7297 100.604 35.977 100.239 36.1517C99.8729 36.3265 99.4759 36.4253 99.0714 36.4421V36.4421ZM129.954 22.3104H124.291V38.2496H126.654V32.2107H129.954C130.623 32.2476 131.291 32.1469 131.92 31.9148C132.549 31.6827 133.123 31.3241 133.61 30.8608C134.096 30.3975 134.483 29.8393 134.748 29.2203C135.012 28.6013 135.149 27.9345 135.149 27.2606C135.149 26.5867 135.012 25.9199 134.748 25.3008C134.483 24.6818 134.096 24.1236 133.61 23.6604C133.123 23.1971 132.549 22.8384 131.92 22.6063C131.291 22.3742 130.623 22.2735 129.954 22.3104V22.3104ZM130.015 29.9925H126.654V24.5288H130.015C130.376 24.5212 130.735 24.5863 131.071 24.7202C131.407 24.8541 131.713 25.0542 131.971 25.3086C132.229 25.563 132.434 25.8667 132.574 26.2019C132.714 26.5371 132.786 26.897 132.786 27.2606C132.786 27.6242 132.714 27.9842 132.574 28.3194C132.434 28.6546 132.229 28.9583 131.971 29.2127C131.713 29.4671 131.407 29.6671 131.071 29.801C130.735 29.9349 130.376 30 130.015 29.9925V29.9925ZM144.622 27.7035C143.759 27.6528 142.901 27.8567 142.152 28.2902C141.402 28.7237 140.795 29.3679 140.405 30.1437L142.503 31.0255C142.711 30.6404 143.026 30.3247 143.41 30.1171C143.793 29.9095 144.229 29.819 144.663 29.8566C145.262 29.7977 145.86 29.9804 146.326 30.3648C146.792 30.7492 147.088 31.3038 147.148 31.9072V32.0712C146.389 31.6654 145.542 31.4541 144.683 31.4561C142.422 31.4561 140.12 32.707 140.12 35.0447C140.142 35.5373 140.262 36.0205 140.473 36.4656C140.684 36.9107 140.981 37.3085 141.348 37.6356C141.715 37.9626 142.143 38.2122 142.607 38.3695C143.072 38.5267 143.563 38.5885 144.051 38.5511C144.646 38.5864 145.24 38.4604 145.77 38.1863C146.301 37.9123 146.748 37.5001 147.067 36.9927H147.148V38.2231H149.43V32.1123C149.43 29.2825 147.331 27.7035 144.622 27.7035V27.7035ZM144.337 36.439C143.562 36.439 142.483 36.0495 142.483 35.0856C142.483 33.8553 143.827 33.3836 144.989 33.3836C145.743 33.3634 146.489 33.5475 147.148 33.9168C147.061 34.6082 146.729 35.2445 146.212 35.7081C145.695 36.1718 145.029 36.4314 144.337 36.439V36.439ZM157.742 28.0521L155.032 34.9626H154.95L152.139 28.0521H149.593L153.81 37.7104L151.406 43.083H153.871L160.369 28.0521H157.742ZM136.453 38.2496H138.816V22.3104H136.453V38.2496Z" fill="white"/>
<path d="M14.2178 9.61063C13.8024 10.1105 13.5927 10.7514 13.6316 11.4019V39.5998C13.5926 40.2503 13.8023 40.8912 14.2178 41.391L14.3115 41.4829L30.0042 25.6872V25.3145L14.3115 9.51807L14.2178 9.61063Z" fill="url(#paint0_linear_672_1406)"/>
<path d="M35.2355 30.9553L30.0049 25.6877V25.3151L35.2367 20.0488L35.3546 20.1165L41.5522 23.6611C43.3225 24.6735 43.3225 26.33 41.5522 27.3429L35.3546 30.8876L35.2355 30.9553Z" fill="url(#paint1_linear_672_1406)"/>
<path d="M35.354 30.8864L30.0042 25.501L14.2178 41.3911C14.5785 41.7113 15.0391 41.8944 15.5199 41.9087C16.0006 41.923 16.4712 41.7676 16.85 41.4694L35.354 30.8864Z" fill="url(#paint2_linear_672_1406)"/>
<path d="M35.354 20.1155L16.85 9.53255C16.4712 9.23432 16.0006 9.07889 15.5199 9.09319C15.0391 9.10749 14.5785 9.29061 14.2178 9.61084L30.0042 25.5011L35.354 20.1155Z" fill="url(#paint3_linear_672_1406)"/>
<path opacity="0.2" d="M35.2361 30.7681L16.85 41.2833C16.4858 41.5625 16.0412 41.7148 15.5834 41.7172C15.1255 41.7197 14.6794 41.5722 14.3121 41.297L14.2178 41.392L14.3115 41.4839L14.3121 41.4832C14.6793 41.7586 15.1255 41.9062 15.5834 41.9037C16.0412 41.9013 16.4858 41.7489 16.85 41.4696L35.354 30.8866L35.2361 30.7681Z" fill="#1C1C1E"/>
<path opacity="0.12" d="M14.2177 41.2058C13.8024 40.7059 13.5927 40.065 13.6315 39.4146V39.6008C13.5927 40.2513 13.8024 40.8922 14.2177 41.3921L14.3121 41.2971L14.2177 41.2058Z" fill="#1C1C1E"/>
<path opacity="0.12" d="M41.5518 27.156L35.2363 30.7683L35.3543 30.8869L41.5518 27.3423C41.9164 27.183 42.2318 26.9283 42.4654 26.6046C42.6989 26.281 42.842 25.9002 42.8797 25.502C42.8013 25.8626 42.6405 26.1999 42.41 26.487C42.1795 26.7741 41.8856 27.0032 41.5518 27.156V27.156Z" fill="#1C1C1E"/>
<path opacity="0.25" d="M16.8503 9.71947L41.5518 23.8464C41.8858 23.9992 42.1797 24.2283 42.4102 24.5156C42.6408 24.8029 42.8015 25.1403 42.8797 25.5011C42.8423 25.1027 42.6993 24.7217 42.4658 24.3979C42.2322 24.0741 41.9166 23.8193 41.5518 23.6601L16.8503 9.53319C15.08 8.52072 13.6318 9.3617 13.6318 11.4027V11.589C13.6318 9.54811 15.08 8.70712 16.8503 9.71947Z" fill="white"/>
<defs>
<linearGradient id="paint0_linear_672_1406" x1="28.6126" y1="11.1046" x2="7.21559" y2="32.3618" gradientUnits="userSpaceOnUse">
<stop stop-color="#00A0FF"/>
<stop offset="0.00657" stop-color="#00A1FF"/>
<stop offset="0.2601" stop-color="#00BEFF"/>
<stop offset="0.5122" stop-color="#00D2FF"/>
<stop offset="0.7604" stop-color="#00DFFF"/>
<stop offset="1" stop-color="#00E3FF"/>
</linearGradient>
<linearGradient id="paint1_linear_672_1406" x1="43.8571" y1="25.502" x2="13.2077" y2="25.502" gradientUnits="userSpaceOnUse">
<stop stop-color="#FFE000"/>
<stop offset="0.4087" stop-color="#FFBD00"/>
<stop offset="0.7754" stop-color="#FFA500"/>
<stop offset="1" stop-color="#FF9C00"/>
</linearGradient>
<linearGradient id="paint2_linear_672_1406" x1="32.4471" y1="28.4272" x2="3.43103" y2="57.2537" gradientUnits="userSpaceOnUse">
<stop stop-color="#FF3A44"/>
<stop offset="1" stop-color="#C31162"/>
</linearGradient>
<linearGradient id="paint3_linear_672_1406" x1="10.2429" y1="0.224564" x2="23.1998" y2="13.0968" gradientUnits="userSpaceOnUse">
<stop stop-color="#32A071"/>
<stop offset="0.0685" stop-color="#2DA771"/>
<stop offset="0.4762" stop-color="#15CF74"/>
<stop offset="0.8009" stop-color="#06E775"/>
<stop offset="1" stop-color="#00F076"/>
</linearGradient>
</defs>
</svg>
