<svg width="36" height="36" viewBox="0 0 36 36" fill="none" xmlns="http://www.w3.org/2000/svg">
<g opacity="0.6">
<g clip-path="url(#clip0_1312_986)">
<path d="M32.3721 12.0664C32.3046 10.5361 32.0572 9.48411 31.7027 8.5725C31.337 7.60486 30.7744 6.73853 30.0373 6.01834C29.3171 5.28695 28.445 4.71863 27.4886 4.35864C26.5717 4.00416 25.5252 3.7567 23.9949 3.68923C22.4532 3.61604 21.9638 3.59912 18.0537 3.59912C14.1435 3.59912 13.6541 3.61604 12.1182 3.68351C10.5879 3.75098 9.53586 3.99866 8.62448 4.35293C7.65662 4.71863 6.79028 5.28124 6.0701 6.01834C5.33871 6.73853 4.7706 7.61057 4.4104 8.56701C4.05591 9.48411 3.80845 10.5304 3.74098 12.0607C3.6678 13.6024 3.65088 14.0918 3.65088 18.0019C3.65088 21.9121 3.6678 22.4015 3.73527 23.9375C3.80274 25.4677 4.05042 26.5198 4.40491 27.4314C4.7706 28.399 5.33871 29.2653 6.0701 29.9855C6.79028 30.7169 7.66233 31.2852 8.61877 31.6452C9.53586 31.9997 10.5822 32.2472 12.1127 32.3146C13.6484 32.3823 14.1381 32.399 18.0482 32.399C21.9583 32.399 22.4478 32.3823 23.9837 32.3146C25.514 32.2472 26.566 31.9997 27.4774 31.6452C29.4129 30.8969 30.9432 29.3667 31.6915 27.4314C32.0457 26.5143 32.2934 25.4677 32.3609 23.9375C32.4284 22.4015 32.4453 21.9121 32.4453 18.0019C32.4453 14.0918 32.4396 13.6024 32.3721 12.0664ZM29.7786 23.8249C29.7166 25.2315 29.4804 25.991 29.2835 26.4973C28.7995 27.752 27.8038 28.7478 26.5491 29.2317C26.0427 29.4286 25.2777 29.6649 23.8767 29.7266C22.3576 29.7943 21.9021 29.811 18.0594 29.811C14.2167 29.811 13.7554 29.7943 12.2419 29.7266C10.8354 29.6649 10.0758 29.4286 9.56949 29.2317C8.94512 29.001 8.3768 28.6353 7.9155 28.157C7.43729 27.69 7.07159 27.1274 6.84083 26.5031C6.64392 25.9967 6.40767 25.2315 6.34591 23.8307C6.27822 22.3116 6.26152 21.8558 6.26152 18.0131C6.26152 14.1705 6.27822 13.7092 6.34591 12.1958C6.40767 10.7893 6.64392 10.0298 6.84083 9.52345C7.07159 8.89886 7.43729 8.33076 7.92122 7.86924C8.38801 7.39102 8.95062 7.02533 9.5752 6.79479C10.0816 6.59788 10.8468 6.36162 12.2476 6.29965C13.7666 6.23218 14.2224 6.21526 18.0649 6.21526C21.9133 6.21526 22.3689 6.23218 23.8824 6.29965C25.2889 6.36162 26.0485 6.59788 26.5548 6.79479C27.1792 7.02533 27.7475 7.39102 28.2088 7.86924C28.687 8.33625 29.0527 8.89886 29.2835 9.52345C29.4804 10.0298 29.7166 10.7948 29.7786 12.1958C29.8461 13.7149 29.863 14.1705 29.863 18.0131C29.863 21.8558 29.8461 22.3059 29.7786 23.8249Z" fill="white"/>
<path d="M18.0536 10.6031C13.9692 10.6031 10.6553 13.9168 10.6553 18.0014C10.6553 22.0861 13.9692 25.3998 18.0536 25.3998C22.1382 25.3998 25.4519 22.0861 25.4519 18.0014C25.4519 13.9168 22.1382 10.6031 18.0536 10.6031ZM18.0536 22.8005C15.4038 22.8005 13.2545 20.6514 13.2545 18.0014C13.2545 15.3515 15.4038 13.2023 18.0536 13.2023C20.7036 13.2023 22.8527 15.3515 22.8527 18.0014C22.8527 20.6514 20.7036 22.8005 18.0536 22.8005Z" fill="white"/>
<path d="M27.4717 10.3115C27.4717 11.2653 26.6983 12.0386 25.7443 12.0386C24.7905 12.0386 24.0171 11.2653 24.0171 10.3115C24.0171 9.35744 24.7905 8.58429 25.7443 8.58429C26.6983 8.58429 27.4717 9.35744 27.4717 10.3115Z" fill="white"/>
</g>
</g>
<defs>
<clipPath id="clip0_1312_986">
<rect width="28.8" height="28.8" fill="white" transform="translate(3.59961 3.59912)"/>
</clipPath>
</defs>
</svg>
