<svg width="52" height="52" fill="none" xmlns="http://www.w3.org/2000/svg"><g clip-path="url(#a)" fill="#fff"><path d="M46.76 17.43c-.098-2.21-.455-3.73-.967-5.047a10.152 10.152 0 0 0-2.406-3.69 10.238 10.238 0 0 0-3.681-2.397c-1.325-.512-2.836-.87-5.047-.967-2.227-.105-2.933-.13-8.581-.13s-6.355.025-8.574.122c-2.21.098-3.73.455-5.047.967a10.15 10.15 0 0 0-3.69 2.406 10.242 10.242 0 0 0-2.396 3.681c-.513 1.325-.87 2.836-.967 5.047-.106 2.226-.13 2.933-.13 8.581s.024 6.355.121 8.574c.098 2.21.456 3.73.968 5.047a10.258 10.258 0 0 0 2.405 3.689 10.238 10.238 0 0 0 3.681 2.397c1.325.512 2.836.87 5.047.967 2.218.098 2.926.122 8.574.122s6.355-.024 8.573-.122c2.21-.097 3.73-.455 5.047-.967a10.64 10.64 0 0 0 6.087-6.086c.511-1.325.869-2.837.966-5.047.098-2.219.122-2.926.122-8.574s-.008-6.355-.105-8.573Zm-3.746 16.984c-.09 2.032-.431 3.129-.716 3.86a6.9 6.9 0 0 1-3.95 3.95c-.73.285-1.836.626-3.86.715-2.194.098-2.852.122-8.402.122-5.55 0-6.217-.024-8.403-.122-2.032-.09-3.13-.43-3.86-.715a6.402 6.402 0 0 1-2.39-1.552 6.468 6.468 0 0 1-1.552-2.39c-.284-.73-.626-1.836-.715-3.86-.098-2.194-.122-2.852-.122-8.402 0-5.551.024-6.217.122-8.403.09-2.032.43-3.129.715-3.86a6.323 6.323 0 0 1 1.56-2.39 6.458 6.458 0 0 1 2.39-1.552c.731-.284 1.837-.625 3.86-.715 2.194-.097 2.853-.122 8.403-.122 5.558 0 6.216.025 8.403.122 2.031.09 3.129.43 3.86.715a6.397 6.397 0 0 1 2.389 1.552 6.466 6.466 0 0 1 1.552 2.39c.285.731.626 1.836.715 3.86.098 2.194.122 2.852.122 8.402 0 5.551-.024 6.201-.121 8.395Z"/><path d="M26.077 15.316c-5.9 0-10.686 4.787-10.686 10.687 0 5.9 4.786 10.686 10.686 10.686s10.686-4.786 10.686-10.686-4.786-10.687-10.686-10.687Zm0 17.619a6.933 6.933 0 0 1 0-13.864 6.933 6.933 0 0 1 0 13.864ZM39.681 14.895a2.495 2.495 0 1 1-4.99 0 2.495 2.495 0 0 1 4.99 0Z"/></g><defs><clipPath id="a"><path fill="#fff" transform="translate(5.2 5.2)" d="M0 0h41.6v41.6H0z"/></clipPath></defs></svg>