<svg width="172" height="51" viewBox="0 0 172 51" fill="none" xmlns="http://www.w3.org/2000/svg">
<rect x="0.5" y="0.5" width="171" height="50" rx="15.5" fill="#1C1C1E" stroke="#A6A6A6"/>
<path d="M41.7865 25.8834C41.8002 24.8192 42.0826 23.7757 42.6076 22.8501C43.1325 21.9246 43.8829 21.1469 44.7889 20.5895C44.2133 19.7669 43.4541 19.09 42.5714 18.6124C41.6886 18.1349 40.7068 17.8699 39.7039 17.8384C37.5644 17.6137 35.4903 19.1196 34.4 19.1196C33.2887 19.1196 31.6101 17.8608 29.8025 17.898C28.6333 17.9358 27.4939 18.276 26.4952 18.8855C25.4964 19.4951 24.6725 20.3531 24.1037 21.376C21.6396 25.6452 23.4776 31.9196 25.838 35.3705C27.0189 37.0603 28.3991 38.9479 30.205 38.881C31.9722 38.8076 32.6323 37.7533 34.7654 37.7533C36.8788 37.7533 37.4981 38.881 39.3406 38.8384C41.2369 38.8076 42.4317 37.1411 43.5712 35.4353C44.4197 34.2312 45.0726 32.9005 45.5058 31.4923C44.4041 31.026 43.4639 30.2455 42.8025 29.248C42.1411 28.2506 41.7877 27.0804 41.7865 25.8834V25.8834Z" fill="white"/>
<path d="M38.3063 15.5689C39.3402 14.3268 39.8496 12.7302 39.7263 11.1183C38.1466 11.2844 36.6875 12.0399 35.6396 13.2343C35.1272 13.8179 34.7348 14.4967 34.4848 15.2321C34.2347 15.9675 34.132 16.745 34.1824 17.5201C34.9725 17.5283 35.7541 17.3569 36.4685 17.0189C37.1828 16.6809 37.8112 16.1851 38.3063 15.5689Z" fill="white"/>
<path d="M64.1251 34.6031H58.0944L56.6462 38.8825H54.0918L59.804 23.0496H62.4579L68.1701 38.8825H65.5721L64.1251 34.6031ZM58.719 32.6283H63.4993L61.1428 25.683H61.0769L58.719 32.6283Z" fill="white"/>
<path d="M80.5064 33.1114C80.5064 36.6986 78.5878 39.0033 75.6925 39.0033C74.9591 39.0417 74.2297 38.8726 73.5878 38.5154C72.9459 38.1583 72.4176 37.6274 72.0632 36.9837H72.0084V42.7013H69.6406V27.339H71.9325V29.259H71.9761C72.3468 28.6184 72.8841 28.0903 73.5308 27.7309C74.1776 27.3716 74.9096 27.1944 75.649 27.2183C78.5766 27.2183 80.5064 29.5342 80.5064 33.1114ZM78.0727 33.1114C78.0727 30.7743 76.8658 29.2378 75.0244 29.2378C73.2153 29.2378 71.9984 30.8067 71.9984 33.1114C71.9984 35.4373 73.2153 36.9949 75.0244 36.9949C76.8658 36.9949 78.0727 35.4697 78.0727 33.1114Z" fill="white"/>
<path d="M93.2022 33.1114C93.2022 36.6986 91.2836 39.0033 88.3883 39.0033C87.6549 39.0417 86.9255 38.8726 86.2836 38.5155C85.6417 38.1583 85.1134 37.6274 84.759 36.9837H84.7042V42.7013H82.3364V27.3391H84.6283V29.259H84.6718C85.0425 28.6184 85.5798 28.0903 86.2266 27.7309C86.8733 27.3716 87.6054 27.1944 88.3447 27.2183C91.2724 27.2183 93.2022 29.5342 93.2022 33.1114ZM90.7685 33.1114C90.7685 30.7743 89.5616 29.2379 87.7202 29.2379C85.9111 29.2379 84.6942 30.8067 84.6942 33.1114C84.6942 35.4373 85.9111 36.9949 87.7202 36.9949C89.5616 36.9949 90.7685 35.4697 90.7685 33.1114H90.7685Z" fill="white"/>
<path d="M101.593 34.4711C101.769 36.0412 103.293 37.0721 105.376 37.0721C107.371 37.0721 108.807 36.0411 108.807 34.6254C108.807 33.3965 107.941 32.6606 105.891 32.1563L103.84 31.662C100.935 30.9598 99.5863 29.6001 99.5863 27.3938C99.5863 24.662 101.965 22.7856 105.343 22.7856C108.686 22.7856 110.978 24.662 111.055 27.3938H108.665C108.522 25.8137 107.217 24.86 105.31 24.86C103.402 24.86 102.097 25.8249 102.097 27.2294C102.097 28.3488 102.931 29.0074 104.97 29.5117L106.713 29.94C109.959 30.7082 111.308 32.0131 111.308 34.329C111.308 37.2912 108.95 39.1464 105.2 39.1464C101.691 39.1464 99.3225 37.3347 99.1694 34.471L101.593 34.4711Z" fill="white"/>
<path d="M116.418 24.6073V27.3391H118.611V29.2155H116.418V35.5792C116.418 36.5679 116.857 37.0286 117.821 37.0286C118.082 37.024 118.342 37.0057 118.6 36.9737V38.8389C118.167 38.92 117.726 38.9567 117.285 38.9485C114.95 38.9485 114.039 38.0707 114.039 35.832V29.2155H112.362V27.3391H114.039V24.6073H116.418Z" fill="white"/>
<path d="M119.882 33.1114C119.882 29.4794 122.02 27.1971 125.353 27.1971C128.698 27.1971 130.825 29.4794 130.825 33.1114C130.825 36.7534 128.709 39.0257 125.353 39.0257C121.999 39.0257 119.882 36.7534 119.882 33.1114ZM128.413 33.1114C128.413 30.6199 127.272 29.1495 125.353 29.1495C123.435 29.1495 122.295 30.6311 122.295 33.1114C122.295 35.6129 123.435 37.0721 125.353 37.0721C127.272 37.0721 128.413 35.6129 128.413 33.1114H128.413Z" fill="white"/>
<path d="M132.777 27.339H135.035V29.3038H135.09C135.243 28.6902 135.602 28.1479 136.107 27.7681C136.612 27.3883 137.233 27.1941 137.865 27.2183C138.137 27.2173 138.409 27.247 138.676 27.3067V29.523C138.331 29.4176 137.972 29.3693 137.612 29.3798C137.268 29.3658 136.925 29.4265 136.607 29.5577C136.288 29.6889 136.002 29.8874 135.768 30.1397C135.533 30.3921 135.356 30.6921 135.249 31.0194C135.141 31.3466 135.106 31.6933 135.145 32.0356V38.8825H132.777L132.777 27.339Z" fill="white"/>
<path d="M149.593 35.4921C149.274 37.5876 147.235 39.0257 144.626 39.0257C141.27 39.0257 139.188 36.7758 139.188 33.1662C139.188 29.5454 141.282 27.1971 144.526 27.1971C147.718 27.1971 149.725 29.391 149.725 32.891V33.7028H141.578V33.846C141.54 34.2709 141.593 34.6988 141.734 35.1015C141.874 35.5042 142.098 35.8724 142.392 36.1817C142.685 36.4909 143.041 36.7341 143.436 36.8952C143.83 37.0562 144.255 37.1314 144.681 37.1157C145.24 37.1682 145.802 37.0385 146.282 36.746C146.762 36.4534 147.134 36.0137 147.345 35.4921L149.593 35.4921ZM141.589 32.0468H147.356C147.377 31.6649 147.319 31.2826 147.186 30.9241C147.052 30.5655 146.846 30.2384 146.581 29.9633C146.315 29.6882 145.995 29.471 145.642 29.3254C145.288 29.1798 144.909 29.1089 144.526 29.1171C144.141 29.1148 143.759 29.1889 143.402 29.3352C143.045 29.4815 142.721 29.6971 142.448 29.9695C142.175 30.2418 141.958 30.5656 141.811 30.9222C141.663 31.2788 141.588 31.661 141.589 32.0469V32.0468Z" fill="white"/>
<path d="M58.4222 11.132C58.9186 11.0964 59.4168 11.1714 59.8807 11.3517C60.3446 11.5321 60.7627 11.8132 61.1049 12.1748C61.4471 12.5364 61.7048 12.9695 61.8595 13.4429C62.0142 13.9163 62.0619 14.4181 61.9994 14.9122C61.9994 17.3427 60.6867 18.7397 58.4222 18.7397H55.6763V11.132H58.4222ZM56.857 17.6638H58.2903C58.6451 17.6851 59 17.6269 59.3294 17.4935C59.6588 17.3601 59.9544 17.1549 60.1945 16.8928C60.4347 16.6307 60.6134 16.3183 60.7177 15.9784C60.822 15.6384 60.8492 15.2795 60.7974 14.9277C60.8455 14.5773 60.8155 14.2206 60.7096 13.8831C60.6037 13.5457 60.4245 13.2358 60.1849 12.9758C59.9453 12.7158 59.6512 12.5121 59.3236 12.3792C58.9961 12.2463 58.6432 12.1875 58.2903 12.2071H56.857V17.6638Z" fill="white"/>
<path d="M63.3331 15.8665C63.297 15.4892 63.3402 15.1085 63.4597 14.7489C63.5793 14.3893 63.7726 14.0586 64.0274 13.7781C64.2821 13.4977 64.5926 13.2736 64.939 13.1202C65.2853 12.9668 65.6599 12.8876 66.0387 12.8876C66.4174 12.8876 66.792 12.9668 67.1383 13.1202C67.4847 13.2736 67.7952 13.4977 68.0499 13.7781C68.3047 14.0586 68.498 14.3893 68.6176 14.7489C68.7371 15.1085 68.7803 15.4892 68.7442 15.8665C68.7809 16.2442 68.7383 16.6254 68.6191 16.9856C68.4998 17.3458 68.3066 17.6771 68.0518 17.9581C67.797 18.2392 67.4863 18.4637 67.1396 18.6174C66.7928 18.7711 66.4178 18.8505 66.0387 18.8505C65.6595 18.8505 65.2845 18.7711 64.9378 18.6174C64.591 18.4637 64.2803 18.2392 64.0255 17.9581C63.7707 17.6771 63.5775 17.3458 63.4582 16.9856C63.339 16.6254 63.2964 16.2442 63.3331 15.8665V15.8665ZM67.5796 15.8665C67.5796 14.622 67.0209 13.8943 66.0405 13.8943C65.0563 13.8943 64.5027 14.622 64.5027 15.8665C64.5027 17.121 65.0564 17.8431 66.0405 17.8431C67.021 17.8431 67.5796 17.116 67.5796 15.8665H67.5796Z" fill="white"/>
<path d="M75.9369 18.7396H74.7623L73.5766 14.5112H73.487L72.3063 18.7396H71.1429L69.5615 12.9984H70.7099L71.7377 17.3793H71.8223L73.0018 12.9984H74.088L75.2675 17.3793H75.3571L76.3798 12.9984H77.512L75.9369 18.7396Z" fill="white"/>
<path d="M78.8423 12.9984H79.9322V13.9104H80.0168C80.1604 13.5829 80.4024 13.3083 80.7093 13.1249C81.0162 12.9416 81.3726 12.8586 81.7289 12.8876C82.008 12.8666 82.2883 12.9087 82.549 13.0108C82.8097 13.1129 83.044 13.2724 83.2347 13.4775C83.4254 13.6826 83.5676 13.928 83.6507 14.1955C83.7337 14.463 83.7556 14.7458 83.7146 15.0229V18.7396H82.5824V15.3075C82.5824 14.3849 82.1818 13.926 81.3444 13.926C81.1549 13.9172 80.9657 13.9495 80.7898 14.0206C80.6139 14.0918 80.4555 14.2002 80.3253 14.3384C80.1952 14.4766 80.0965 14.6413 80.036 14.8213C79.9754 15.0012 79.9544 15.1921 79.9745 15.3809V18.7396H78.8423L78.8423 12.9984Z" fill="white"/>
<path d="M85.5186 10.7572H86.6508V18.7396H85.5186V10.7572Z" fill="white"/>
<path d="M88.2247 15.8665C88.1886 15.4892 88.2318 15.1085 88.3514 14.7489C88.471 14.3892 88.6644 14.0585 88.9191 13.7781C89.1739 13.4976 89.4844 13.2735 89.8308 13.1201C90.1772 12.9668 90.5518 12.8875 90.9305 12.8875C91.3093 12.8875 91.6839 12.9668 92.0303 13.1201C92.3767 13.2735 92.6872 13.4976 92.942 13.7781C93.1967 14.0585 93.3901 14.3892 93.5097 14.7489C93.6293 15.1085 93.6724 15.4892 93.6364 15.8665C93.6731 16.2442 93.6304 16.6254 93.5112 16.9857C93.3919 17.3459 93.1986 17.6771 92.9438 17.9582C92.6889 18.2392 92.3782 18.4637 92.0315 18.6174C91.6847 18.7711 91.3097 18.8505 90.9305 18.8505C90.5513 18.8505 90.1763 18.7711 89.8296 18.6174C89.4829 18.4637 89.1721 18.2392 88.9173 17.9582C88.6625 17.6771 88.4692 17.3459 88.3499 16.9857C88.2306 16.6254 88.188 16.2442 88.2247 15.8665V15.8665ZM92.4712 15.8665C92.4712 14.622 91.9125 13.8943 90.9321 13.8943C89.9479 13.8943 89.3943 14.622 89.3943 15.8665C89.3943 17.121 89.948 17.8432 90.9321 17.8432C91.9125 17.8432 92.4712 17.116 92.4712 15.8665H92.4712Z" fill="white"/>
<path d="M94.8286 17.116C94.8286 16.0826 95.5975 15.4868 96.9624 15.4021L98.5165 15.3125V14.8169C98.5165 14.2105 98.1158 13.8681 97.3419 13.8681C96.7099 13.8681 96.2719 14.1003 96.1462 14.5063H95.0501C95.1658 13.5201 96.0927 12.8876 97.3942 12.8876C98.8325 12.8876 99.6437 13.6042 99.6437 14.8169V18.7396H98.5538V17.9328H98.4642C98.2824 18.2222 98.027 18.4582 97.7243 18.6165C97.4215 18.7749 97.0822 18.85 96.741 18.8342C96.5001 18.8593 96.2567 18.8336 96.0264 18.7588C95.7961 18.6839 95.584 18.5616 95.4038 18.3997C95.2237 18.2378 95.0794 18.04 94.9803 17.8189C94.8812 17.5978 94.8296 17.3583 94.8286 17.116V17.116ZM98.5165 16.6254V16.1454L97.1155 16.2351C96.3254 16.288 95.9671 16.557 95.9671 17.0631C95.9671 17.5798 96.415 17.8805 97.0309 17.8805C97.2114 17.8988 97.3937 17.8805 97.567 17.8269C97.7402 17.7732 97.901 17.6852 98.0396 17.5681C98.1782 17.451 98.2918 17.3072 98.3737 17.1453C98.4557 16.9833 98.5042 16.8065 98.5165 16.6254V16.6254Z" fill="white"/>
<path d="M101.132 15.8665C101.132 14.0524 102.064 12.9031 103.513 12.9031C103.872 12.8866 104.228 12.9726 104.539 13.1509C104.851 13.3293 105.105 13.5927 105.273 13.9104H105.357V10.7572H106.489V18.7396H105.404V17.8325H105.315C105.134 18.1481 104.871 18.4082 104.554 18.5848C104.236 18.7614 103.876 18.8476 103.513 18.8342C102.054 18.8343 101.132 17.685 101.132 15.8665ZM102.301 15.8665C102.301 17.0843 102.875 17.817 103.834 17.817C104.789 17.817 105.378 17.0737 105.378 15.8715C105.378 14.675 104.782 13.921 103.834 13.921C102.881 13.921 102.301 14.6588 102.301 15.8665H102.301Z" fill="white"/>
<path d="M111.174 15.8665C111.138 15.4892 111.181 15.1085 111.301 14.7489C111.42 14.3893 111.613 14.0586 111.868 13.7781C112.123 13.4977 112.433 13.2736 112.78 13.1202C113.126 12.9668 113.501 12.8876 113.879 12.8876C114.258 12.8876 114.633 12.9668 114.979 13.1202C115.325 13.2736 115.636 13.4977 115.891 13.7781C116.145 14.0586 116.339 14.3893 116.458 14.7489C116.578 15.1085 116.621 15.4892 116.585 15.8665C116.622 16.2442 116.579 16.6254 116.46 16.9856C116.341 17.3458 116.147 17.6771 115.893 17.9581C115.638 18.2392 115.327 18.4637 114.98 18.6174C114.634 18.7711 114.259 18.8505 113.879 18.8505C113.5 18.8505 113.125 18.7711 112.779 18.6174C112.432 18.4637 112.121 18.2392 111.866 17.9581C111.612 17.6771 111.418 17.3458 111.299 16.9856C111.18 16.6254 111.137 16.2442 111.174 15.8665V15.8665ZM115.42 15.8665C115.42 14.622 114.862 13.8943 113.881 13.8943C112.897 13.8943 112.344 14.622 112.344 15.8665C112.344 17.121 112.897 17.8431 113.881 17.8431C114.862 17.8431 115.42 17.116 115.42 15.8665Z" fill="white"/>
<path d="M118.104 12.9984H119.194V13.9104H119.279C119.422 13.5829 119.664 13.3083 119.971 13.1249C120.278 12.9416 120.634 12.8586 120.991 12.8876C121.27 12.8666 121.55 12.9087 121.811 13.0108C122.071 13.1129 122.306 13.2724 122.496 13.4775C122.687 13.6826 122.829 13.928 122.912 14.1955C122.995 14.463 123.017 14.7458 122.976 15.0229V18.7396H121.844V15.3075C121.844 14.3849 121.443 13.926 120.606 13.926C120.417 13.9172 120.227 13.9495 120.052 14.0206C119.876 14.0918 119.717 14.2002 119.587 14.3384C119.457 14.4766 119.358 14.6413 119.298 14.8213C119.237 15.0012 119.216 15.1921 119.236 15.3809V18.7396H118.104V12.9984Z" fill="white"/>
<path d="M129.374 11.569V13.0245H130.617V13.9789H129.374V16.9311C129.374 17.5325 129.622 17.7958 130.186 17.7958C130.33 17.7954 130.474 17.7866 130.617 17.7697V18.7135C130.414 18.7499 130.208 18.7692 130.001 18.7714C128.742 18.7714 128.241 18.3281 128.241 17.2212V13.9789H127.33V13.0245H128.241V11.569H129.374Z" fill="white"/>
<path d="M132.164 10.7572H133.286V13.921H133.375C133.526 13.5904 133.775 13.3142 134.088 13.1302C134.401 12.9461 134.763 12.8632 135.125 12.8926C135.402 12.8774 135.68 12.9238 135.938 13.0284C136.195 13.133 136.427 13.2933 136.616 13.4977C136.804 13.7021 136.946 13.9457 137.03 14.2111C137.113 14.4765 137.138 14.7571 137.101 15.0329V18.7396H135.967V15.3124C135.967 14.3954 135.54 13.931 134.74 13.931C134.546 13.915 134.35 13.9418 134.167 14.0094C133.984 14.0771 133.817 14.1839 133.68 14.3226C133.542 14.4612 133.437 14.6283 133.37 14.812C133.304 14.9958 133.279 15.1919 133.296 15.3865V18.7396H132.164L132.164 10.7572Z" fill="white"/>
<path d="M143.703 17.1895C143.549 17.7142 143.215 18.168 142.761 18.4717C142.307 18.7753 141.76 18.9094 141.217 18.8504C140.839 18.8604 140.463 18.788 140.116 18.6381C139.769 18.4883 139.458 18.2646 139.206 17.9827C138.954 17.7007 138.766 17.3672 138.656 17.0054C138.545 16.6435 138.515 16.2619 138.566 15.8871C138.516 15.5111 138.547 15.1287 138.657 14.7657C138.767 14.4028 138.954 14.0677 139.205 13.7833C139.456 13.4989 139.765 13.2717 140.111 13.1172C140.457 12.9626 140.833 12.8843 141.212 12.8876C142.808 12.8876 143.771 13.979 143.771 15.7818V16.1772H139.72V16.2407C139.702 16.4514 139.729 16.6634 139.798 16.8633C139.866 17.0632 139.976 17.2464 140.12 17.4012C140.264 17.5561 140.439 17.6792 140.633 17.7625C140.827 17.8459 141.036 17.8878 141.248 17.8854C141.519 17.918 141.793 17.8692 142.036 17.7452C142.279 17.6213 142.48 17.4278 142.613 17.1894L143.703 17.1895ZM139.72 15.3392H142.618C142.632 15.1465 142.606 14.953 142.541 14.771C142.476 14.589 142.374 14.4227 142.241 14.2826C142.108 14.1425 141.947 14.0319 141.769 13.9577C141.59 13.8835 141.398 13.8475 141.205 13.8519C141.01 13.8495 140.815 13.8863 140.634 13.9601C140.452 14.034 140.288 14.1435 140.149 14.2821C140.011 14.4207 139.901 14.5856 139.828 14.7672C139.754 14.9488 139.717 15.1432 139.72 15.3392H139.72Z" fill="white"/>
</svg>
