<svg width="52" height="52" fill="none" xmlns="http://www.w3.org/2000/svg"><path d="M41.6 6.934H10.4A3.466 3.466 0 0 0 6.934 10.4v31.2a3.466 3.466 0 0 0 3.466 3.467h31.2a3.466 3.466 0 0 0 3.467-3.467V10.4A3.466 3.466 0 0 0 41.6 6.934Zm-22.613 31.2h-5.113V21.68h5.113v16.453ZM16.38 19.329a2.981 2.981 0 1 1 0-5.961 2.983 2.983 0 0 1 2.98 2.98 2.983 2.983 0 0 1-2.98 2.98ZM38.14 38.134h-5.11v-8.002c0-1.908-.035-4.362-2.657-4.362-2.661 0-3.07 2.078-3.07 4.224v8.14h-5.11V21.68h4.905v2.248h.07c.683-1.293 2.35-2.657 4.837-2.657 5.178 0 6.135 3.408 6.135 7.838v9.024Z" fill="#fff"/></svg>