<svg width="36" height="36" viewBox="0 0 36 36" fill="none" xmlns="http://www.w3.org/2000/svg">
<g opacity="0.6">
<path d="M28.8003 4.8006H7.20029C5.87429 4.8006 4.80029 5.8746 4.80029 7.2006V28.8006C4.80029 30.1266 5.87429 31.2006 7.20029 31.2006H28.8003C30.1263 31.2006 31.2003 30.1266 31.2003 28.8006V7.2006C31.2003 5.8746 30.1263 4.8006 28.8003 4.8006ZM13.1451 26.4006H9.60509V15.0102H13.1451V26.4006ZM11.3391 13.3818C10.1979 13.3818 9.27509 12.4566 9.27509 11.3178C9.27509 10.179 10.1991 9.255 11.3391 9.255C12.4767 9.255 13.4019 10.1802 13.4019 11.3178C13.4019 12.4566 12.4767 13.3818 11.3391 13.3818ZM26.4051 26.4006H22.8675V20.8614C22.8675 19.5402 22.8435 17.841 21.0279 17.841C19.1859 17.841 18.9027 19.2798 18.9027 20.7654V26.4006H15.3651V15.0102H18.7611V16.5666H18.8091C19.2819 15.6714 20.4363 14.727 22.1583 14.727C25.7427 14.727 26.4051 17.0862 26.4051 20.1534V26.4006Z" fill="white"/>
</g>
</svg>
