<svg width="110" height="34" fill="none" xmlns="http://www.w3.org/2000/svg"><path d="M38.25 1.753h.33l.507.807h.307l-.53-.827c.288-.022.486-.173.486-.502 0-.37-.22-.545-.66-.545h-.725v1.872h.286l-.002-.805Zm0-.827h.396c.199 0 .42.045.42.283 0 .282-.221.304-.464.304h-.352V.926Z" fill="#ED1C24"/><path d="M38.602 3.28a1.66 1.66 0 0 0 1.652-1.657c0-.936-.772-1.612-1.652-1.612-.902 0-1.696.676-1.696 1.612.002.939.794 1.657 1.696 1.657Zm0-3.007c.748 0 1.321.588 1.321 1.35 0 .785-.573 1.35-1.32 1.35-.75 0-1.344-.567-1.344-1.35.002-.76.595-1.35 1.343-1.35ZM36.562 25.468c0 .99-.8 1.796-1.784 1.796a1.788 1.788 0 0 1-1.782-1.796c0-.991.798-1.794 1.782-1.794a1.79 1.79 0 0 1 1.784 1.794ZM58.658 3.694C56.03 2.22 44.336 5.552 40.586 18.276c-.441.12-2.564.678-2.564.678l-.928 2.514 3.29-1.011s-.361 6.1 5.155 6.281c4.332-.163 6.6-6.364 5.21-10.726-.264.141-3.726 1.818-3.726 1.818s.802 4.788-1.123 5.373c-.623.08-1.355-1.836-.683-4.707 9.203-4.814 15.038-13.9 13.44-14.802ZM54.988 6.6c1.763-.159-6.72 8.929-8.887 9.373-.702-.404 5.376-8.503 8.886-9.373Z" fill="#ED1C24"/><path d="M53.605 15.307v1.798s2.348-1.535 2.528-1.25c.06.806-2.907 7.634-2.969 8.663-.06.626.521 2.99 3.268 1.758 1.345-.585 4.951-3.561 4.951-3.561s-.581 1.517-.335 2.732c.245 1.214 1.74 1.533 3.09 1.03 1.349-.504 2.888-1.535 3.552-2.342-.1-.262-.481-1.475-.481-1.475S66 23.808 65.7 23.66c-.298-.151 3.432-11.158 3.432-11.158s-3.825-.15-4.207-.15c-.63 2.892-4.202 10.226-6.668 10.551-.844-.06 2.989-8.664 3.13-9.634.28-1.274-.666-1.859-1.787-1.596-1.18.403-5.996 3.635-5.996 3.635ZM79.889 12.229s-.463 1.152-.55 1.35c-.483-.842-2.157-2.48-5.613-.31-3.606 2.35-5.147 6.357-4.662 10.61.527 3.521 4.312 3.94 6.864.95-.263.777-2.971 9.149-2.971 9.149l4.201.022 6.866-21.682-4.135-.09ZM75.28 22.703c-.593.33-1.517.884-1.648-1.219-.066-2.48 1.917-5.252 2.295-5.688.99-1.13 2.226-1.15 2.194.638-.13 2.06-1.454 5.316-2.841 6.269ZM12.407 26.456c-2.1-2.235-.467-6.35-.114-9.995-.47.47-5.142 11.406-9.348 10.934-3.739-1.173-3.272-5.408-2.103-8.582h6.074c-1.868 5.174.702 3.057 2.454-.234 3.504-7.173 3.739-7.76 7.594-18.579h6.659c-1.987 6.116-3.857 12.112-4.673 18.462 0 .234.116.47.351.353 1.401-.234 9.111-17.637 9.813-18.813h6.425c0 .587-7.125 20.226-5.956 22.106.585 1.057 1.403-.94 2.103-1.763l1.052 1.059c-2.103 2.352-4.556 6.584-8.06 5.88-.468-.117-.935-.352-1.286-.707-3.622-3.174 2.92-14.65 2.22-15.403-.219.024-.435.607-.82 1.41-1.987 4.117-6.542 14.934-10.282 14.934-.583-.006-1.754-.592-2.103-1.062ZM88.103 23.228c7.789-4.12 9.659-9.346 7.261-10.809-3.544-1.993-13.246 1.572-12.146 11.34-.485.286-1.5.841-1.5.841l.706 1.95s1.43-.864 1.799-1.12c4.957 4.045 10.396-2.587 10.396-2.587l-.95-1.475c.001 0-4.116 3.985-5.566 1.86Zm1.033-5.98c1.123-1.994 2.927-3.544 3.807-2.924.88.62-.902 3.765-5.098 7.106-.166-.29.168-2.189 1.29-4.182Z" fill="#ED1C24"/><path d="m100.862 12.579 4.511-.133s-6.337 5.032-5.413 9.788c.728 2.891 3.41 1.483 4.886-1.794.284-.642 2.068-5.006.946-5.006-1.123 0-2.293 2.238-2.293 2.238l-1.227-1.241s2.485-3.568 5.318-4.522c.339-.107 2.384-.529 2.406 2.417.09 1.372-1.384 8.904-6.511 11.562-4.703 2.433-6.768-.48-7.139-1.352-2.58-6.435 4.516-11.957 4.516-11.957Z" fill="#ED1C24"/></svg>