<svg width="68" height="18" viewBox="0 0 68 18" fill="none" xmlns="http://www.w3.org/2000/svg">
<path d="M6.7793 13H8.08008V6.73633H8.11523L12.4688 13H13.6758V4.54492H12.375V10.7969H12.3398L7.99219 4.54492H6.7793V13ZM15.0002 13H20.3674V11.8691H16.3127V9.24414H20.1506V8.14258H16.3127V5.67578H20.3674V4.54492H15.0002V13ZM23.5727 13H24.8852V5.67578H27.4692V4.54492H20.9829V5.67578H23.5727V13ZM30.0593 13H31.3191L33.1413 6.625H33.1706L34.987 13H36.2468L38.532 4.54492H37.1667L35.5905 11.1719H35.5613L33.7741 4.54492H32.532L30.7448 11.1719H30.7214L29.1452 4.54492H27.78L30.0593 13ZM42.6982 13.1406C45.1416 13.1406 46.6591 11.459 46.6591 8.77539V8.76367C46.6591 6.08594 45.1357 4.4043 42.6982 4.4043C40.2666 4.4043 38.7373 6.08008 38.7373 8.76367V8.77539C38.7373 11.4648 40.2607 13.1406 42.6982 13.1406ZM42.6982 11.9805C41.0927 11.9805 40.0732 10.7441 40.0732 8.77539V8.76367C40.0732 6.79492 41.0986 5.56445 42.6982 5.56445C44.3037 5.56445 45.3173 6.80078 45.3173 8.76367V8.77539C45.3173 10.7266 44.3213 11.9805 42.6982 11.9805ZM47.673 13H48.9855V9.75391H50.7902L52.5129 13H54.0246L52.132 9.55469C53.1457 9.20898 53.7727 8.29492 53.7727 7.14648V7.13477C53.7727 5.54688 52.6828 4.54492 50.9543 4.54492H47.673V13ZM48.9855 8.67578V5.64648H50.7902C51.798 5.64648 52.4191 6.20898 52.4191 7.14648V7.1582C52.4191 8.11914 51.8391 8.67578 50.8254 8.67578H48.9855ZM54.8041 13H56.1166V10.1758L56.978 9.17969L59.7729 13H61.3959L57.9155 8.2832L61.1205 4.54492H59.562L56.1518 8.59375H56.1166V4.54492H54.8041V13Z" fill="#A0A0A3"/>
<rect x="0.5" y="0.5" width="67" height="17" rx="5.5" stroke="#A0A0A3"/>
</svg>
