<svg width="27" height="9" viewBox="0 0 27 9" fill="none" xmlns="http://www.w3.org/2000/svg">
<path d="M2.1 1.9C2.14 2.1 2.18 2.32667 2.22 2.58C2.27333 2.82 2.32667 3.07333 2.38 3.34C2.43333 3.59333 2.48 3.85333 2.52 4.12C2.56 4.38667 2.59333 4.64 2.62 4.88C2.78 4.53333 2.95333 4.16667 3.14 3.78C3.32667 3.39333 3.52667 3.04 3.74 2.72C3.96667 2.38667 4.2 2.11333 4.44 1.9C4.69333 1.68667 4.96667 1.58 5.26 1.58C5.7 1.58 6.06667 1.74 6.36 2.06C6.66667 2.38 6.92 2.78 7.12 3.26C7.33333 3.72667 7.5 4.22 7.62 4.74C7.74 5.26 7.84 5.72 7.92 6.12C8 6.48 7.84 6.74667 7.44 6.92C7.25333 7.01333 7.11333 7.02667 7.02 6.96C6.92667 6.89333 6.87333 6.82667 6.86 6.76C6.79333 6.6 6.70667 6.32 6.6 5.92C6.50667 5.52 6.39333 5.11333 6.26 4.7C6.14 4.28667 6 3.92667 5.84 3.62C5.68 3.31333 5.5 3.17333 5.3 3.2C5.06 3.21333 4.84667 3.39333 4.66 3.74C4.5 4.02 4.33333 4.33333 4.16 4.68C4 5.01333 3.84 5.36 3.68 5.72C3.52 6.06667 3.36 6.42 3.2 6.78C3.05333 7.12667 2.91333 7.44667 2.78 7.74C2.68667 7.83333 2.56667 7.9 2.42 7.94C2.28667 7.96667 2.14667 7.95333 2 7.9C1.86667 7.86 1.76 7.79333 1.68 7.7C1.6 7.60667 1.56 7.51333 1.56 7.42C1.44 6.38 1.31333 5.43333 1.18 4.58C1.06 3.72667 0.9 2.85333 0.7 1.96C0.606667 1.65333 0.586667 1.41333 0.64 1.24C0.706667 1.05333 0.906667 0.979999 1.24 1.02C1.70667 1.1 1.99333 1.39333 2.1 1.9ZM14.1366 3.8C13.6166 4.10667 13.0566 4.34667 12.4566 4.52C11.8566 4.68 11.2099 4.76 10.5166 4.76C10.5432 5.22667 10.6766 5.6 10.9166 5.88C11.1566 6.14667 11.4566 6.30667 11.8166 6.36C12.0299 6.38667 12.2432 6.38 12.4566 6.34C12.6832 6.3 12.8899 6.24 13.0766 6.16C13.2766 6.06667 13.4566 5.96667 13.6166 5.86C13.7766 5.75333 13.9166 5.64667 14.0366 5.54C14.1566 5.43333 14.2832 5.36667 14.4166 5.34C14.5499 5.3 14.6499 5.29333 14.7166 5.32C14.9032 5.38667 14.9699 5.58667 14.9166 5.92C14.7032 6.34667 14.3966 6.71333 13.9966 7.02C13.5966 7.31333 13.1499 7.5 12.6566 7.58C12.2299 7.66 11.7899 7.64 11.3366 7.52C10.8832 7.4 10.4766 7.16667 10.1166 6.82C9.8099 6.51333 9.57656 6.15333 9.41656 5.74C9.25656 5.32667 9.15656 4.9 9.11656 4.46C9.07656 4.04667 9.1099 3.65333 9.21656 3.28C9.33656 2.90667 9.51656 2.58 9.75656 2.3C9.99656 2.00667 10.2966 1.76667 10.6566 1.58C11.0166 1.39333 11.4366 1.28667 11.9166 1.26C12.4899 1.22 13.0099 1.32667 13.4766 1.58C13.9432 1.83333 14.2699 2.18667 14.4566 2.64C14.5632 2.89333 14.5899 3.11333 14.5366 3.3C14.4966 3.48667 14.3632 3.65333 14.1366 3.8ZM11.8366 2.44C11.7032 2.46667 11.5566 2.51333 11.3966 2.58C11.2499 2.64667 11.1099 2.73333 10.9766 2.84C10.8566 2.93333 10.7432 3.04667 10.6366 3.18C10.5432 3.3 10.4899 3.44 10.4766 3.6C10.7032 3.6 10.9499 3.58 11.2166 3.54C11.4966 3.5 11.7632 3.45333 12.0166 3.4C12.2832 3.33333 12.5232 3.26 12.7366 3.18C12.9632 3.1 13.1499 3.01333 13.2966 2.92C13.1899 2.66667 12.9899 2.51333 12.6966 2.46C12.4166 2.39333 12.1299 2.38667 11.8366 2.44ZM23.4283 8.04C23.3216 8.18667 23.2016 8.28667 23.0683 8.34C22.9349 8.38 22.8149 8.4 22.7083 8.4C22.5216 8.38667 22.3483 8.32667 22.1883 8.22C22.0283 8.1 21.9283 7.98 21.8883 7.86C21.8083 7.63333 21.7216 7.38 21.6283 7.1C21.5349 6.82 21.4416 6.54 21.3483 6.26C21.2683 5.96667 21.1816 5.68667 21.0883 5.42C20.9949 5.14 20.9083 4.88667 20.8283 4.66C20.5616 5.12667 20.3083 5.6 20.0683 6.08C19.8283 6.54667 19.5616 7.03333 19.2683 7.54C19.1349 7.74 18.9816 7.88 18.8083 7.96C18.6349 8.02667 18.4883 8.05333 18.3683 8.04C18.1949 8.02667 18.0349 7.96 17.8883 7.84C17.7549 7.72 17.6483 7.60667 17.5683 7.5C17.4216 7.26 17.2749 6.95333 17.1283 6.58C16.9816 6.19333 16.8416 5.79333 16.7083 5.38C16.5883 4.95333 16.4749 4.53333 16.3683 4.12C16.2616 3.69333 16.1749 3.31333 16.1083 2.98C16.0683 2.75333 16.0683 2.54 16.1083 2.34C16.1616 2.14 16.2816 2.02667 16.4683 2C16.6949 1.98667 16.9016 2.06667 17.0883 2.24C17.2749 2.4 17.3816 2.56 17.4083 2.72C17.4616 2.98667 17.5216 3.28 17.5883 3.6C17.6683 3.90667 17.7483 4.22 17.8283 4.54C17.9216 4.86 18.0083 5.17333 18.0883 5.48C18.1816 5.78667 18.2749 6.06 18.3683 6.3C18.5683 5.98 18.7883 5.61333 19.0283 5.2C19.2816 4.77333 19.5216 4.36667 19.7483 3.98C19.9749 3.58 20.1816 3.23333 20.3683 2.94C20.5549 2.64667 20.7016 2.46667 20.8083 2.4C20.8883 2.34667 21.0016 2.35333 21.1483 2.42C21.2949 2.47333 21.4016 2.55333 21.4683 2.66C21.7616 3.24667 22.0016 3.89333 22.1883 4.6C22.3883 5.29333 22.5816 5.94 22.7683 6.54C22.9549 6.3 23.1549 5.98667 23.3683 5.6C23.5816 5.2 23.7883 4.78 23.9883 4.34C24.1883 3.9 24.3749 3.46 24.5483 3.02C24.7216 2.58 24.8616 2.18667 24.9683 1.84C25.0749 1.48 25.2216 1.30667 25.4083 1.32C25.6483 1.34667 25.8549 1.42667 26.0283 1.56C26.2016 1.69333 26.2683 1.83333 26.2283 1.98C25.9349 3.15333 25.5549 4.23333 25.0883 5.22C24.6216 6.19333 24.0683 7.13333 23.4283 8.04Z" fill="#00D49B"/>
</svg>
