<svg width="110" height="29" fill="none" xmlns="http://www.w3.org/2000/svg"><path d="M72.918 1.74h.332l.51.805h.307l-.53-.825c.287-.022.486-.173.486-.502 0-.368-.221-.543-.662-.543h-.728v1.868h.288l-.003-.803Zm0-.826h.399c.199 0 .42.045.42.282 0 .282-.221.304-.464.304h-.355V.914Z" fill="#005BFF"/><path d="M73.272 3.262c.883 0 1.658-.717 1.658-1.653C74.93.674 74.155 0 73.272 0c-.905 0-1.702.674-1.702 1.609.002.936.797 1.653 1.702 1.653Zm0-3c.75 0 1.326.586 1.326 1.347 0 .783-.575 1.347-1.326 1.347-.752 0-1.348-.566-1.348-1.347A1.335 1.335 0 0 1 73.272.262ZM12.833 23.145c2.848-.374 5.15-2.758 5.513-5.711a6.862 6.862 0 0 0-.287-2.995 6.676 6.676 0 0 0-1.535-2.556 6.377 6.377 0 0 0-2.467-1.59 6.197 6.197 0 0 0-2.892-.298c-2.85.377-5.152 2.76-5.513 5.712a6.862 6.862 0 0 0 .287 2.995 6.676 6.676 0 0 0 1.535 2.555 6.378 6.378 0 0 0 2.467 1.59c.93.328 1.918.43 2.892.298Zm.388-18.939c2.743.3 5.303 1.565 7.253 3.585 1.95 2.02 3.172 4.672 3.46 7.513.753 7.86-5.572 14.412-13.162 13.633-2.742-.3-5.302-1.565-7.252-3.585C1.57 23.332.35 20.68.06 17.839-.69 9.979 5.634 3.427 13.222 4.206Zm17.152.492h17.563c.668 0 1.045.79.643 1.341L36.427 22.647h9.52c1.737 0 3.102 1.635 2.743 3.499-.264 1.367-1.502 2.299-2.847 2.299H26.77c-.661 0-1.036-.784-.639-1.327l12.161-16.622h-7.815c-1.345 0-2.583-.934-2.846-2.299-.361-1.863 1.006-3.499 2.742-3.499Zm76.219.066C108.405 4.369 110 5.79 110 7.597v20.01c0 .7-.779 1.087-1.306.654l-15.15-12.45v9.74c0 1.807-1.595 3.228-3.408 2.833-1.3-.283-2.19-1.537-2.19-2.911V5.533c0-.698.779-1.087 1.306-.654l15.153 12.452V7.675c0-1.374.892-2.626 2.19-2.911h-.003Zm-39.449-.621c9.276 0 16.796 5.563 16.796 12.425 0 6.862-7.52 12.425-16.796 12.425-9.275 0-16.795-5.563-16.795-12.425 0-6.862 7.52-12.425 16.795-12.425Zm0 5.798c-6.408 0-11.197 3.5-11.197 6.627s4.789 6.627 11.197 6.627c6.409 0 11.198-3.497 11.198-6.627s-4.789-6.627-11.198-6.627Z" fill="#005BFF"/></svg>