<svg width="72" height="72" viewBox="0 0 72 72" fill="none" xmlns="http://www.w3.org/2000/svg">
<path d="M33.711 42.0118C35.0027 42.0118 36.2817 41.7574 37.475 41.2631C38.6684 40.7688 39.7527 40.0443 40.6661 39.1309C41.5794 38.2175 42.3039 37.1332 42.7982 35.9399C43.2925 34.7465 43.5469 33.4675 43.5469 32.1758C43.5469 30.8841 43.2925 29.6051 42.7982 28.4118C42.3039 27.2184 41.5794 26.1341 40.6661 25.2207C39.7527 24.3074 38.6684 23.5829 37.475 23.0886C36.2817 22.5943 35.0027 22.3398 33.711 22.3398C31.1023 22.3398 28.6005 23.3761 26.7559 25.2207C24.9113 27.0653 23.875 29.5672 23.875 32.1758C23.875 34.7845 24.9113 37.2863 26.7559 39.1309C28.6005 40.9755 31.1023 42.0118 33.711 42.0118V42.0118Z" stroke="#090E13" stroke-width="2" stroke-miterlimit="10"/>
<path d="M18.1367 51.0267C19.6327 48.2791 21.8618 46.0005 24.576 44.4447C27.3547 42.8455 30.5057 42.0064 33.7117 42.0117C36.9355 42.0117 40.096 42.852 42.8447 44.4447C45.5589 46.0005 47.788 48.2791 49.284 51.0267" stroke="#090E13" stroke-width="2" stroke-linecap="round" stroke-linejoin="round"/>
<path d="M64.5 10.5L54.4904 19.7308L49.5 15.1154" stroke="#090E13" stroke-width="2" stroke-linecap="round" stroke-linejoin="round"/>
<path d="M60.2951 32.024C61.1232 37.5497 60.1866 43.1958 57.6185 48.1582C55.0505 53.1205 50.982 57.1459 45.9927 59.661C41.0033 62.1761 35.3475 63.0527 29.8309 62.1658C24.3143 61.2789 19.2182 58.6739 15.2686 54.7217C11.3189 50.7695 8.71713 45.6718 7.83381 40.1546C6.95048 34.6374 7.83067 28.9822 10.349 23.9944C12.8673 19.0067 16.8953 14.9408 21.8593 12.376C26.8233 9.81112 32.47 8.87808 37.9952 9.70977" stroke="#090E13" stroke-width="2" stroke-linecap="round"/>
</svg>
