<svg width="101" height="99" fill="none" xmlns="http://www.w3.org/2000/svg"><ellipse opacity=".3" cx="50.126" cy="49.355" rx="50.126" ry="49.355" fill="#000"/><path fill-rule="evenodd" clip-rule="evenodd" d="M67.221 46.79c1.924 1.168 1.924 3.96 0 5.129l-25.79 15.658c-1.999 1.214-4.556-.225-4.556-2.564V33.695c0-2.338 2.557-3.778 4.557-2.564L67.22 46.79Z" fill="#000"/><g><ellipse cx="50.126" cy="49.355" rx="50.126" ry="49.355" fill="#fff"/></g><path fill-rule="evenodd" clip-rule="evenodd" d="M67.221 46.79c1.924 1.168 1.924 3.96 0 5.129l-25.79 15.658c-1.999 1.214-4.556-.225-4.556-2.564V33.695c0-2.338 2.557-3.778 4.557-2.564L67.22 46.79Z" fill="#000"/><defs><filter id="a" x="-30" y="-30" width="160.252" height="158.709" filterUnits="userSpaceOnUse" color-interpolation-filters="sRGB"><feFlood flood-opacity="0" result="BackgroundImageFix"/><feGaussianBlur in="BackgroundImage" stdDeviation="15"/><feComposite in2="SourceAlpha" operator="in" result="effect1_backgroundBlur_1227_75862"/><feBlend in="SourceGraphic" in2="effect1_backgroundBlur_1227_75862" result="shape"/></filter></defs></svg>
