<svg width="14" height="16" viewBox="0 0 14 16" fill="none" xmlns="http://www.w3.org/2000/svg">
<path d="M1.71312 15.9063C1.44931 15.9058 1.19016 15.8367 0.961172 15.7057C0.445547 15.4135 0.125 14.8463 0.125 14.2305V1.76961C0.125 1.15215 0.445547 0.586677 0.961172 0.29449C1.19561 0.159755 1.46194 0.090468 1.73231 0.0938695C2.00269 0.0972709 2.26719 0.173237 2.49816 0.313826L13.148 6.68867C13.3699 6.82784 13.5529 7.0211 13.6797 7.25033C13.8065 7.47956 13.8731 7.73724 13.8731 7.99922C13.8731 8.26119 13.8065 8.51888 13.6797 8.74811C13.5529 8.97733 13.3699 9.17059 13.148 9.30977L2.49644 15.6863C2.26007 15.8292 1.98933 15.9053 1.71312 15.9063Z" fill="black"/>
</svg>
