<svg width="16" height="16" viewBox="0 0 16 16" fill="none" xmlns="http://www.w3.org/2000/svg">
<path d="M8 16C12.4183 16 16 12.4183 16 8C16 3.58172 12.4183 0 8 0C3.58172 0 0 3.58172 0 8C0 12.4183 3.58172 16 8 16Z" fill="#A1A1A4"/>
<path d="M10.6284 6.39391C10.438 6.28916 10.1904 6.28916 9.98088 6.39391L8.49533 7.19702L7.48594 7.72079L6.00041 8.52389C5.80994 8.62864 5.56236 8.62864 5.35286 8.52389L4.17204 7.89537C3.98159 7.79062 3.84828 7.59857 3.84828 7.38906V6.14948C3.84828 5.93998 3.96255 5.74793 4.17204 5.64318L5.33381 5.03211C5.52426 4.92735 5.77185 4.92735 5.98136 5.03211L7.14312 5.64318C7.33358 5.74793 7.46689 5.93998 7.46689 6.14948V6.95259L8.47629 6.41136V5.60825C8.47629 5.39875 8.36202 5.20669 8.15253 5.10194L6.00041 3.94966C5.80994 3.84491 5.56236 3.84491 5.35286 3.94966L3.16264 5.10194C2.95314 5.20669 2.83887 5.39875 2.83887 5.60825V7.93029C2.83887 8.13979 2.95314 8.33184 3.16264 8.43659L5.35286 9.58888C5.54332 9.69365 5.7909 9.69365 6.00041 9.58888L7.48594 8.80323L8.49533 8.262L9.98088 7.47636C10.1713 7.37161 10.4189 7.37161 10.6284 7.47636L11.7902 8.08741C11.9806 8.19218 12.114 8.38422 12.114 8.59373V9.83331C12.114 10.0428 11.9997 10.2349 11.7902 10.3396L10.6284 10.9681C10.438 11.0729 10.1904 11.0729 9.98088 10.9681L8.81911 10.3571C8.62866 10.2523 8.49533 10.0603 8.49533 9.85077V9.04766L7.48594 9.58888V10.392C7.48594 10.6015 7.6002 10.7936 7.80971 10.8983L9.99993 12.0506C10.1904 12.1553 10.438 12.1553 10.6475 12.0506L12.8377 10.8983C13.0281 10.7936 13.1614 10.6015 13.1614 10.392V8.06996C13.1614 7.86045 13.0472 7.66841 12.8377 7.56364L10.6284 6.39391Z" fill="#F8F9F9"/>
</svg>
