<svg width="72" height="72" viewBox="0 0 72 72" fill="none" xmlns="http://www.w3.org/2000/svg">
<path d="M63 36C63 43.1608 60.1554 50.0284 55.0919 55.0919C50.0284 60.1554 43.1608 63 36 63C28.8392 63 21.9716 60.1554 16.9081 55.0919C11.8446 50.0284 9 43.1608 9 36" stroke="#090E13" stroke-width="2" stroke-linecap="round" stroke-linejoin="round"/>
<path d="M63 36C63 28.8392 60.1554 21.9716 55.0919 16.9081C50.0284 11.8446 43.1608 9 36 9C28.8392 9 21.9716 11.8446 16.9081 16.9081C11.8446 21.9716 9 28.8392 9 36" stroke="#090E13" stroke-width="2" stroke-linecap="round" stroke-linejoin="round"/>
<path d="M36.6581 21.1953V26.6493M33.8906 35.9306C32.6599 35.9306 31.4795 35.4416 30.6092 34.5714C29.7389 33.7011 29.25 32.5207 29.25 31.2899C29.25 30.0592 29.7389 28.8788 30.6092 28.0085C31.4795 27.1382 32.6599 26.6493 33.8906 26.6493H43.9819M36.6581 45.2118V50.6658M29.385 45.2084H39.4762C40.707 45.2084 41.8874 44.7195 42.7577 43.8492C43.628 42.9789 44.1169 41.7986 44.1169 40.5678C44.1169 39.337 43.628 38.1567 42.7577 37.2864C41.8874 36.4161 40.707 35.9272 39.4762 35.9272H33.9075" stroke="#090E13" stroke-width="2" stroke-linecap="round" stroke-linejoin="round"/>
</svg>
