<svg width="72" height="72" viewBox="0 0 72 72" fill="none" xmlns="http://www.w3.org/2000/svg">
<path d="M34.6366 43.6092C36.0478 43.6092 37.4452 43.3312 38.7489 42.7912C40.0527 42.2512 41.2373 41.4596 42.2352 40.4618C43.2331 39.4639 44.0246 38.2793 44.5646 36.9755C45.1047 35.6717 45.3826 34.2744 45.3826 32.8632C45.3826 31.452 45.1047 30.0546 44.5646 28.7509C44.0246 27.4471 43.2331 26.2625 42.2352 25.2646C41.2373 24.2668 40.0527 23.4752 38.7489 22.9352C37.4452 22.3951 36.0478 22.1172 34.6366 22.1172C31.7866 22.1172 29.0533 23.2494 27.0381 25.2646C25.0228 27.2799 23.8906 30.0132 23.8906 32.8632C23.8906 35.7132 25.0228 38.4465 27.0381 40.4618C29.0533 42.477 31.7866 43.6092 34.6366 43.6092V43.6092Z" stroke="white" stroke-width="2" stroke-miterlimit="10"/>
<path d="M17.6172 53.4584C19.2516 50.4566 21.6869 47.9672 24.6522 46.2674C27.6881 44.5203 31.1305 43.6036 34.6332 43.6094C38.1552 43.6094 41.6082 44.5274 44.6112 46.2674C47.5764 47.9672 50.0118 50.4566 51.6462 53.4584" stroke="white" stroke-width="2" stroke-linecap="round" stroke-linejoin="round"/>
<path d="M65.273 14.635H50M57.635 7V22.27V7Z" stroke="white" stroke-width="2" stroke-linecap="round" stroke-linejoin="round"/>
<path d="M63.6797 32.7018C64.5845 38.7387 63.5611 44.9073 60.7555 50.3287C57.9499 55.7501 53.505 60.148 48.054 62.8958C42.603 65.6436 36.424 66.6013 30.397 65.6324C24.37 64.6634 18.8024 61.8174 14.4873 57.4995C10.1722 53.1817 7.32974 47.6123 6.36469 41.5846C5.39964 35.557 6.36126 29.3786 9.11258 23.9294C11.8639 18.4802 16.2646 14.0381 21.6878 11.2359C27.1111 8.43379 33.2803 7.41443 39.3167 8.32307" stroke="white" stroke-width="2" stroke-linecap="round"/>
</svg>
