<svg width="300" height="300" fill="none" xmlns="http://www.w3.org/2000/svg"><g filter="url(#a)"><rect x="250" y="240" width="200" height="200" rx="20" transform="rotate(-180 250 240)" fill="#fff"/></g><path d="M78.073 61.818h-6.255v6.254h6.255v-6.254ZM78.073 68.072h-6.255v6.254h6.255v-6.254ZM78.073 74.327h-6.255v6.254h6.255v-6.254Z" fill="#000"/><path d="M78.073 80.58h-6.255v6.255h6.255v-6.254ZM78.073 86.836h-6.255v6.254h6.255v-6.254ZM78.073 93.09h-6.255v6.255h6.255v-6.254Z" fill="#000"/><path d="M78.073 99.344h-6.255v6.255h6.255v-6.255ZM78.073 111.854h-6.255v6.254h6.255v-6.254Z" fill="#000"/><path d="M78.073 118.107h-6.255v6.255h6.255v-6.255ZM78.073 124.363h-6.255v6.254h6.255v-6.254ZM78.073 136.872h-6.255v6.254h6.255v-6.254ZM78.073 143.127h-6.255v6.254h6.255v-6.254ZM78.073 155.635h-6.255v6.254h6.255v-6.254ZM78.073 174.399h-6.255v6.255h6.255v-6.255ZM78.073 180.654h-6.255v6.254h6.255v-6.254ZM78.073 186.908h-6.255v6.255h6.255v-6.255ZM78.073 193.163h-6.255v6.254h6.255v-6.254ZM78.073 199.417h-6.255v6.255h6.255v-6.255ZM78.073 205.672h-6.255v6.254h6.255v-6.254ZM78.073 211.926h-6.255v6.255h6.255v-6.255ZM84.326 61.818H78.07v6.254h6.255v-6.254ZM84.326 99.344H78.07v6.255h6.255v-6.255Z" fill="#000"/><path d="M84.326 111.854H78.07v6.254h6.255v-6.254Z" fill="#000"/><path d="M84.326 118.107H78.07v6.255h6.255v-6.255ZM84.326 130.618H78.07v6.254h6.255v-6.254ZM84.326 136.872H78.07v6.254h6.255v-6.254ZM84.326 143.127H78.07v6.254h6.255v-6.254ZM84.326 149.381H78.07v6.254h6.255v-6.254ZM84.326 161.89H78.07v6.254h6.255v-6.254ZM84.326 174.399H78.07v6.255h6.255v-6.255ZM84.326 211.926H78.07v6.255h6.255v-6.255ZM90.582 61.818h-6.255v6.254h6.255v-6.254ZM90.582 74.327h-6.255v6.254h6.255v-6.254Z" fill="#000"/><path d="M90.582 80.58h-6.255v6.255h6.255v-6.254ZM90.582 86.836h-6.255v6.254h6.255v-6.254ZM90.582 99.344h-6.255v6.255h6.255v-6.255ZM90.582 111.854h-6.255v6.254h6.255v-6.254ZM90.582 124.363h-6.255v6.254h6.255v-6.254ZM90.582 130.618h-6.255v6.254h6.255v-6.254ZM90.582 136.872h-6.255v6.254h6.255v-6.254ZM90.582 143.127h-6.255v6.254h6.255v-6.254ZM90.582 155.635h-6.255v6.254h6.255v-6.254ZM90.582 161.89h-6.255v6.254h6.255v-6.254ZM90.582 174.399h-6.255v6.255h6.255v-6.255ZM90.582 186.908h-6.255v6.255h6.255v-6.255ZM90.582 193.163h-6.255v6.254h6.255v-6.254ZM90.582 199.417h-6.255v6.255h6.255v-6.255ZM90.582 211.926h-6.255v6.255h6.255v-6.255ZM96.838 61.818h-6.255v6.254h6.255v-6.254ZM96.838 74.327h-6.255v6.254h6.255v-6.254Z" fill="#000"/><path d="M96.838 80.58h-6.255v6.255h6.255v-6.254ZM96.838 86.836h-6.255v6.254h6.255v-6.254ZM96.838 99.344h-6.255v6.255h6.255v-6.255ZM96.838 118.107h-6.255v6.255h6.255v-6.255ZM96.838 143.127h-6.255v6.254h6.255v-6.254ZM96.838 149.381h-6.255v6.254h6.255v-6.254ZM96.838 161.89h-6.255v6.254h6.255v-6.254ZM96.838 174.399h-6.255v6.255h6.255v-6.255ZM96.838 186.908h-6.255v6.255h6.255v-6.255ZM96.838 193.163h-6.255v6.254h6.255v-6.254ZM96.838 199.417h-6.255v6.255h6.255v-6.255ZM96.838 211.926h-6.255v6.255h6.255v-6.255ZM103.091 61.818h-6.254v6.254h6.254v-6.254Z" fill="#000"/><path d="M103.091 74.327h-6.254v6.254h6.254v-6.254Z" fill="#000"/><path d="M103.091 80.58h-6.254v6.255h6.254v-6.254ZM103.091 86.836h-6.254v6.254h6.254v-6.254ZM103.091 99.344h-6.254v6.255h6.254v-6.255ZM103.091 111.854h-6.254v6.254h6.254v-6.254ZM103.091 130.618h-6.254v6.254h6.254v-6.254ZM103.091 155.635h-6.254v6.254h6.254v-6.254ZM103.091 161.89h-6.254v6.254h6.254v-6.254ZM103.091 174.399h-6.254v6.255h6.254v-6.255ZM103.091 186.908h-6.254v6.255h6.254v-6.255ZM103.091 193.163h-6.254v6.254h6.254v-6.254ZM103.091 199.417h-6.254v6.255h6.254v-6.255ZM103.091 211.926h-6.254v6.255h6.254v-6.255ZM109.345 61.818h-6.254v6.254h6.254v-6.254ZM109.345 99.344h-6.254v6.255h6.254v-6.255ZM109.345 111.854h-6.254v6.254h6.254v-6.254Z" fill="#000"/><path d="M109.345 118.107h-6.254v6.255h6.254v-6.255ZM109.345 136.872h-6.254v6.254h6.254v-6.254ZM109.345 143.127h-6.254v6.254h6.254v-6.254ZM109.345 149.381h-6.254v6.254h6.254v-6.254ZM109.345 155.635h-6.254v6.254h6.254v-6.254ZM109.345 174.399h-6.254v6.255h6.254v-6.255ZM109.345 211.926h-6.254v6.255h6.254v-6.255ZM115.599 61.818h-6.255v6.254h6.255v-6.254ZM115.599 68.072h-6.255v6.254h6.255v-6.254ZM115.599 74.327h-6.255v6.254h6.255v-6.254Z" fill="#000"/><path d="M115.599 80.58h-6.255v6.255h6.255v-6.254ZM115.599 86.836h-6.255v6.254h6.255v-6.254ZM115.599 93.09h-6.255v6.255h6.255v-6.254Z" fill="#000"/><path d="M115.599 99.344h-6.255v6.255h6.255v-6.255ZM115.599 111.854h-6.255v6.254h6.255v-6.254ZM115.599 124.363h-6.255v6.254h6.255v-6.254ZM115.599 136.872h-6.255v6.254h6.255v-6.254ZM115.599 149.381h-6.255v6.254h6.255v-6.254ZM115.599 161.89h-6.255v6.254h6.255v-6.254ZM115.599 174.399h-6.255v6.255h6.255v-6.255ZM115.599 180.654h-6.255v6.254h6.255v-6.254ZM115.599 186.908h-6.255v6.255h6.255v-6.255ZM115.599 193.163h-6.255v6.254h6.255v-6.254ZM115.599 199.417h-6.255v6.255h6.255v-6.255ZM115.599 205.672h-6.255v6.254h6.255v-6.254ZM115.599 211.926h-6.255v6.255h6.255v-6.255ZM121.855 111.854H115.6v6.254h6.255v-6.254Z" fill="#000"/><path d="M121.855 118.107H115.6v6.255h6.255v-6.255ZM121.855 124.363H115.6v6.254h6.255v-6.254ZM121.855 130.618H115.6v6.254h6.255v-6.254ZM121.855 136.872H115.6v6.254h6.255v-6.254ZM121.855 155.635H115.6v6.254h6.255v-6.254ZM128.109 74.327h-6.255v6.254h6.255v-6.254ZM128.109 99.344h-6.255v6.255h6.255v-6.255ZM128.109 105.6h-6.255v6.254h6.255V105.6Z" fill="#000"/><path d="M128.109 111.854h-6.255v6.254h6.255v-6.254ZM128.109 124.363h-6.255v6.254h6.255v-6.254ZM128.109 136.872h-6.255v6.254h6.255v-6.254ZM128.109 143.127h-6.255v6.254h6.255v-6.254ZM128.109 168.144h-6.255v6.254h6.255v-6.254ZM128.109 174.399h-6.255v6.255h6.255v-6.255ZM128.109 180.654h-6.255v6.254h6.255v-6.254ZM128.109 186.908h-6.255v6.255h6.255v-6.255ZM128.109 199.417h-6.255v6.255h6.255v-6.255ZM128.109 205.672h-6.255v6.254h6.255v-6.254ZM128.109 211.926h-6.255v6.255h6.255v-6.255ZM134.364 68.072h-6.255v6.254h6.255v-6.254ZM134.364 80.58h-6.255v6.255h6.255v-6.254ZM134.364 86.836h-6.255v6.254h6.255v-6.254ZM134.364 118.107h-6.255v6.255h6.255v-6.255ZM134.364 130.618h-6.255v6.254h6.255v-6.254ZM134.364 149.381h-6.255v6.254h6.255v-6.254ZM134.364 174.399h-6.255v6.255h6.255v-6.255ZM134.364 180.654h-6.255v6.254h6.255v-6.254ZM134.364 186.908h-6.255v6.255h6.255v-6.255ZM134.364 205.672h-6.255v6.254h6.255v-6.254ZM140.618 61.818h-6.255v6.254h6.255v-6.254ZM140.618 93.09h-6.255v6.255h6.255v-6.254Z" fill="#000"/><path d="M140.618 99.344h-6.255v6.255h6.255v-6.255ZM140.618 124.363h-6.255v6.254h6.255v-6.254ZM140.618 130.618h-6.255v6.254h6.255v-6.254ZM140.618 136.872h-6.255v6.254h6.255v-6.254ZM140.618 143.127h-6.255v6.254h6.255v-6.254ZM140.618 155.635h-6.255v6.254h6.255v-6.254ZM140.618 161.89h-6.255v6.254h6.255v-6.254ZM140.618 174.399h-6.255v6.255h6.255v-6.255ZM140.618 186.908h-6.255v6.255h6.255v-6.255ZM140.618 199.417h-6.255v6.255h6.255v-6.255ZM146.872 74.327h-6.254v6.254h6.254v-6.254ZM146.872 93.09h-6.254v6.255h6.254v-6.254ZM146.872 105.6h-6.254v6.254h6.254V105.6ZM146.872 118.107h-6.254v6.255h6.254v-6.255ZM146.872 124.363h-6.254v6.254h6.254v-6.254ZM146.872 136.872h-6.254v6.254h6.254v-6.254ZM146.872 143.127h-6.254v6.254h6.254v-6.254ZM146.872 155.635h-6.254v6.254h6.254v-6.254ZM146.872 168.144h-6.254v6.254h6.254v-6.254ZM146.872 174.399h-6.254v6.255h6.254v-6.255ZM146.872 186.908h-6.254v6.255h6.254v-6.255ZM146.872 193.163h-6.254v6.254h6.254v-6.254ZM146.872 205.672h-6.254v6.254h6.254v-6.254ZM153.126 80.58h-6.254v6.255h6.254v-6.254ZM153.126 86.836h-6.254v6.254h6.254v-6.254ZM153.126 93.09h-6.254v6.255h6.254v-6.254Z" fill="#000"/><path d="M153.126 99.344h-6.254v6.255h6.254v-6.255ZM153.126 111.854h-6.254v6.254h6.254v-6.254Z" fill="#000"/><path d="M153.126 118.107h-6.254v6.255h6.254v-6.255ZM153.126 124.363h-6.254v6.254h6.254v-6.254ZM153.126 130.618h-6.254v6.254h6.254v-6.254ZM153.126 161.89h-6.254v6.254h6.254v-6.254ZM153.126 168.144h-6.254v6.254h6.254v-6.254ZM153.126 174.399h-6.254v6.255h6.254v-6.255ZM153.126 180.654h-6.254v6.254h6.254v-6.254ZM153.126 211.926h-6.254v6.255h6.254v-6.255ZM159.381 61.818h-6.255v6.254h6.255v-6.254ZM159.381 68.072h-6.255v6.254h6.255v-6.254ZM159.381 86.836h-6.255v6.254h6.255v-6.254ZM159.381 105.6h-6.255v6.254h6.255V105.6ZM159.381 111.854h-6.255v6.254h6.255v-6.254Z" fill="#000"/><path d="M159.381 118.107h-6.255v6.255h6.255v-6.255ZM159.381 124.363h-6.255v6.254h6.255v-6.254ZM159.381 130.618h-6.255v6.254h6.255v-6.254ZM159.381 136.872h-6.255v6.254h6.255v-6.254ZM159.381 149.381h-6.255v6.254h6.255v-6.254ZM159.381 155.635h-6.255v6.254h6.255v-6.254ZM159.381 161.89h-6.255v6.254h6.255v-6.254ZM159.381 180.654h-6.255v6.254h6.255v-6.254ZM159.381 199.417h-6.255v6.255h6.255v-6.255ZM165.637 61.818h-6.255v6.254h6.255v-6.254ZM165.637 68.072h-6.255v6.254h6.255v-6.254ZM165.637 86.836h-6.255v6.254h6.255v-6.254ZM165.637 93.09h-6.255v6.255h6.255v-6.254Z" fill="#000"/><path d="M165.637 99.344h-6.255v6.255h6.255v-6.255ZM165.637 124.363h-6.255v6.254h6.255v-6.254ZM165.637 130.618h-6.255v6.254h6.255v-6.254ZM165.637 155.635h-6.255v6.254h6.255v-6.254ZM165.637 180.654h-6.255v6.254h6.255v-6.254ZM165.637 186.908h-6.255v6.255h6.255v-6.255ZM171.89 61.818h-6.255v6.254h6.255v-6.254ZM171.89 68.072h-6.255v6.254h6.255v-6.254ZM171.89 80.58h-6.255v6.255h6.255v-6.254ZM171.89 86.836h-6.255v6.254h6.255v-6.254Z" fill="#000"/><path d="M171.89 93.09h-6.255v6.255h6.255v-6.254ZM171.89 136.872h-6.255v6.254h6.255v-6.254ZM171.89 155.635h-6.255v6.254h6.255v-6.254ZM171.89 168.144h-6.255v6.254h6.255v-6.254ZM171.89 174.399h-6.255v6.255h6.255v-6.255ZM171.89 193.163h-6.255v6.254h6.255v-6.254ZM171.89 199.417h-6.255v6.255h6.255v-6.255ZM171.89 211.926h-6.255v6.255h6.255v-6.255ZM178.145 68.072h-6.255v6.254h6.255v-6.254ZM178.145 93.09h-6.255v6.255h6.255v-6.254Z" fill="#000"/><path d="M178.145 99.344h-6.255v6.255h6.255v-6.255ZM178.145 105.6h-6.255v6.254h6.255V105.6ZM178.145 111.854h-6.255v6.254h6.255v-6.254Z" fill="#000"/><path d="M178.145 118.107h-6.255v6.255h6.255v-6.255ZM178.145 124.363h-6.255v6.254h6.255v-6.254ZM178.145 130.618h-6.255v6.254h6.255v-6.254ZM178.145 136.872h-6.255v6.254h6.255v-6.254ZM178.145 143.127h-6.255v6.254h6.255v-6.254ZM178.145 161.89h-6.255v6.254h6.255v-6.254ZM178.145 168.144h-6.255v6.254h6.255v-6.254ZM178.145 174.399h-6.255v6.255h6.255v-6.255ZM178.145 180.654h-6.255v6.254h6.255v-6.254ZM178.145 186.908h-6.255v6.255h6.255v-6.255ZM178.145 199.417h-6.255v6.255h6.255v-6.255ZM178.145 205.672h-6.255v6.254h6.255v-6.254ZM178.145 211.926h-6.255v6.255h6.255v-6.255ZM184.4 111.854h-6.255v6.254h6.255v-6.254ZM184.4 130.618h-6.255v6.254h6.255v-6.254ZM184.4 136.872h-6.255v6.254h6.255v-6.254ZM184.4 155.635h-6.255v6.254h6.255v-6.254ZM184.4 161.89h-6.255v6.254h6.255v-6.254ZM184.4 186.908h-6.255v6.255h6.255v-6.255ZM184.4 193.163h-6.255v6.254h6.255v-6.254ZM190.654 61.818H184.4v6.254h6.254v-6.254ZM190.654 68.072H184.4v6.254h6.254v-6.254ZM190.654 74.327H184.4v6.254h6.254v-6.254Z" fill="#000"/><path d="M190.654 80.58H184.4v6.255h6.254v-6.254ZM190.654 86.836H184.4v6.254h6.254v-6.254ZM190.654 93.09H184.4v6.255h6.254v-6.254Z" fill="#000"/><path d="M190.654 99.344H184.4v6.255h6.254v-6.255ZM190.654 111.854H184.4v6.254h6.254v-6.254Z" fill="#000"/><path d="M190.654 118.107H184.4v6.255h6.254v-6.255ZM190.654 124.363H184.4v6.254h6.254v-6.254ZM190.654 136.872H184.4v6.254h6.254v-6.254ZM190.654 143.127H184.4v6.254h6.254v-6.254ZM190.654 149.381H184.4v6.254h6.254v-6.254ZM190.654 161.89H184.4v6.254h6.254v-6.254ZM190.654 174.399H184.4v6.255h6.254v-6.255ZM190.654 186.908H184.4v6.255h6.254v-6.255ZM190.654 205.672H184.4v6.254h6.254v-6.254ZM196.908 61.818h-6.254v6.254h6.254v-6.254ZM196.908 99.344h-6.254v6.255h6.254v-6.255ZM196.908 124.363h-6.254v6.254h6.254v-6.254ZM196.908 130.618h-6.254v6.254h6.254v-6.254ZM196.908 149.381h-6.254v6.254h6.254v-6.254ZM196.908 161.89h-6.254v6.254h6.254v-6.254ZM196.908 186.908h-6.254v6.255h6.254v-6.255ZM196.908 193.163h-6.254v6.254h6.254v-6.254ZM196.908 211.926h-6.254v6.255h6.254v-6.255ZM203.163 61.818h-6.254v6.254h6.254v-6.254ZM203.163 74.327h-6.254v6.254h6.254v-6.254Z" fill="#000"/><path d="M203.163 80.58h-6.254v6.255h6.254v-6.254ZM203.163 86.836h-6.254v6.254h6.254v-6.254ZM203.163 99.344h-6.254v6.255h6.254v-6.255ZM203.163 124.363h-6.254v6.254h6.254v-6.254ZM203.163 155.635h-6.254v6.254h6.254v-6.254ZM203.163 161.89h-6.254v6.254h6.254v-6.254ZM203.163 168.144h-6.254v6.254h6.254v-6.254ZM203.163 174.399h-6.254v6.255h6.254v-6.255ZM203.163 180.654h-6.254v6.254h6.254v-6.254ZM203.163 186.908h-6.254v6.255h6.254v-6.255ZM203.163 193.163h-6.254v6.254h6.254v-6.254ZM203.163 199.417h-6.254v6.255h6.254v-6.255ZM203.163 205.672h-6.254v6.254h6.254v-6.254ZM209.419 61.818h-6.254v6.254h6.254v-6.254ZM209.419 74.327h-6.254v6.254h6.254v-6.254Z" fill="#000"/><path d="M209.419 80.58h-6.254v6.255h6.254v-6.254ZM209.419 86.836h-6.254v6.254h6.254v-6.254ZM209.419 99.344h-6.254v6.255h6.254v-6.255ZM209.417 136.872h-6.254v6.254h6.254v-6.254ZM209.419 143.127h-6.254v6.254h6.254v-6.254ZM209.417 161.89h-6.254v6.254h6.254v-6.254ZM209.419 168.144h-6.254v6.254h6.254v-6.254ZM209.419 174.399h-6.254v6.255h6.254v-6.255ZM209.419 180.654h-6.254v6.254h6.254v-6.254ZM209.419 186.908h-6.254v6.255h6.254v-6.255ZM209.419 193.163h-6.254v6.254h6.254v-6.254ZM209.417 205.672h-6.254v6.254h6.254v-6.254ZM215.673 61.818h-6.255v6.254h6.255v-6.254Z" fill="#000"/><path d="M215.673 74.327h-6.255v6.254h6.255v-6.254Z" fill="#000"/><path d="M215.673 80.58h-6.255v6.255h6.255v-6.254ZM215.673 86.836h-6.255v6.254h6.255v-6.254ZM215.673 99.344h-6.255v6.255h6.255v-6.255ZM215.673 111.854h-6.255v6.254h6.255v-6.254ZM215.673 124.363h-6.255v6.254h6.255v-6.254ZM215.673 149.381h-6.255v6.254h6.255v-6.254ZM215.673 193.163h-6.255v6.254h6.255v-6.254ZM221.926 61.818h-6.255v6.254h6.255v-6.254Z" fill="#000"/><path d="M221.926 99.344h-6.255v6.255h6.255v-6.255ZM221.926 124.363h-6.255v6.254h6.255v-6.254ZM221.926 130.618h-6.255v6.254h6.255v-6.254ZM221.926 136.872h-6.255v6.254h6.255v-6.254ZM221.926 149.381h-6.255v6.254h6.255v-6.254ZM221.926 155.635h-6.255v6.254h6.255v-6.254ZM221.926 168.144h-6.255v6.254h6.255v-6.254ZM221.926 174.399h-6.255v6.255h6.255v-6.255ZM221.926 180.654h-6.255v6.254h6.255v-6.254ZM221.926 186.908h-6.255v6.255h6.255v-6.255ZM221.926 205.672h-6.255v6.254h6.255v-6.254ZM221.926 211.926h-6.255v6.255h6.255v-6.255ZM228.183 61.818h-6.255v6.254h6.255v-6.254ZM228.183 68.072h-6.255v6.254h6.255v-6.254ZM228.183 74.327h-6.255v6.254h6.255v-6.254Z" fill="#000"/><path d="M228.183 80.58h-6.255v6.255h6.255v-6.254ZM228.183 86.836h-6.255v6.254h6.255v-6.254ZM228.183 93.09h-6.255v6.255h6.255v-6.254Z" fill="#000"/><path d="M228.183 99.344h-6.255v6.255h6.255v-6.255ZM228.183 118.107h-6.255v6.255h6.255v-6.255ZM228.183 124.363h-6.255v6.254h6.255v-6.254ZM228.183 136.872h-6.255v6.254h6.255v-6.254ZM228.183 143.127h-6.255v6.254h6.255v-6.254ZM228.183 149.381h-6.255v6.254h6.255v-6.254ZM228.183 168.144h-6.255v6.254h6.255v-6.254ZM228.183 174.399h-6.255v6.255h6.255v-6.255ZM228.183 180.654h-6.255v6.254h6.255v-6.254ZM228.183 186.908h-6.255v6.255h6.255v-6.255ZM228.183 199.417h-6.255v6.255h6.255v-6.255ZM228.183 211.926h-6.255v6.255h6.255v-6.255Z" fill="#000"/><defs><filter id="a" x="0" y="0" width="300" height="300" filterUnits="userSpaceOnUse" color-interpolation-filters="sRGB"><feFlood flood-opacity="0" result="BackgroundImageFix"/><feColorMatrix in="SourceAlpha" values="0 0 0 0 0 0 0 0 0 0 0 0 0 0 0 0 0 0 127 0" result="hardAlpha"/><feOffset dy="10"/><feGaussianBlur stdDeviation="25"/><feComposite in2="hardAlpha" operator="out"/><feColorMatrix values="0 0 0 0 0 0 0 0 0 0 0 0 0 0 0 0 0 0 0.1 0"/><feBlend in2="BackgroundImageFix" result="effect1_dropShadow_1227_75918"/><feBlend in="SourceGraphic" in2="effect1_dropShadow_1227_75918" result="shape"/></filter></defs></svg>