<svg width="176" height="149" fill="#686868" xmlns="http://www.w3.org/2000/svg"><path fill-rule="evenodd" clip-rule="evenodd" d="M.772 125.729c26.245-12.929 39.367-28.12 39.367-45.573-11.186-1.293-20.436-5.871-27.75-13.736C5.074 58.555 1.417 49.45 1.417 39.108c0-10.989 3.55-20.254 10.649-27.796C19.165 3.771 28.092 0 38.849 0c12.047 0 22.48 4.902 31.3 14.706 8.82 9.804 13.23 21.709 13.23 35.715 0 42.017-23.448 74.877-70.345 98.579L.772 125.729Zm92.62 0c26.461-12.929 39.691-28.12 39.691-45.573-11.402-1.293-20.76-5.871-28.074-13.736S94.038 49.45 94.038 39.108c0-10.989 3.603-20.254 10.81-27.796C112.054 3.771 121.036 0 131.792 0c12.047 0 22.427 4.902 31.139 14.706C171.644 24.51 176 36.415 176 50.421c0 42.017-23.341 74.877-70.023 98.579l-12.585-23.271Z" fill="#686868"/></svg>
