<svg width="22" height="22" viewBox="0 0 22 22" fill="none" xmlns="http://www.w3.org/2000/svg">
<path d="M19.7263 18.3951L15.289 13.9395C16.4299 12.6301 17.055 10.9826 17.055 9.26749C17.055 5.26026 13.6781 2 9.52752 2C5.37691 2 2 5.26026 2 9.26749C2 13.2747 5.37691 16.535 9.52752 16.535C11.0857 16.535 12.5706 16.0812 13.8401 15.2199L18.3111 19.7093C18.498 19.8967 18.7494 20 19.0187 20C19.2737 20 19.5156 19.9062 19.6992 19.7355C20.0893 19.3731 20.1017 18.7721 19.7263 18.3951ZM9.52752 3.89587C12.5955 3.89587 15.0913 6.30552 15.0913 9.26749C15.0913 12.2295 12.5955 14.6391 9.52752 14.6391C6.45956 14.6391 3.9637 12.2295 3.9637 9.26749C3.9637 6.30552 6.45956 3.89587 9.52752 3.89587Z" fill="#090E13"/>
</svg>
