<svg width="72" height="72" viewBox="0 0 72 72" fill="none" xmlns="http://www.w3.org/2000/svg">
<path d="M12.9717 33.81C12.9717 32.2398 13.281 30.685 13.882 29.2343C14.483 27.7837 15.3638 26.4656 16.4743 25.3555C17.5847 24.2453 18.903 23.3648 20.3538 22.7641C21.8046 22.1635 23.3595 21.8546 24.9297 21.855H59.7057" stroke="white" stroke-width="2" stroke-linecap="round" stroke-linejoin="round"/>
<path d="M49.5538 32.0102L59.9998 21.5672L49.5508 11.1152" stroke="white" stroke-width="2" stroke-linecap="round" stroke-linejoin="round"/>
<path d="M59.7027 40.374C59.7027 41.944 59.3935 43.4986 58.7927 44.949C58.1919 46.3994 57.3113 47.7174 56.2011 48.8275C55.091 49.9376 53.7731 50.8182 52.3227 51.419C50.8722 52.0198 49.3176 52.329 47.7477 52.329H12.9717" stroke="white" stroke-width="2" stroke-linecap="round" stroke-linejoin="round"/>
<path d="M22.4217 42.1709L11.9727 52.6229L22.4217 63.0719" stroke="white" stroke-width="2" stroke-linecap="round" stroke-linejoin="round"/>
</svg>
