<svg width="16" height="16" viewBox="0 0 16 16" fill="none" xmlns="http://www.w3.org/2000/svg">
<rect width="16" height="16" rx="8" fill="#A1A1A4"/>
<path d="M12.3418 10.4363L10.8934 12.02C10.8619 12.0544 10.8238 12.0818 10.7814 12.1005C10.7391 12.1193 10.6934 12.1289 10.6473 12.1289H3.78095C3.74818 12.1289 3.71613 12.1191 3.68874 12.1008C3.66134 12.0825 3.63979 12.0564 3.62673 12.0258C3.61367 11.9952 3.60967 11.9613 3.61523 11.9284C3.62078 11.8955 3.63565 11.8649 3.658 11.8405L5.10754 10.2569C5.13895 10.2226 5.17692 10.1952 5.21911 10.1765C5.26132 10.1577 5.30684 10.148 5.35287 10.148H12.2188C12.2516 10.148 12.2836 10.1577 12.3111 10.176C12.3384 10.1943 12.36 10.2204 12.3731 10.2511C12.3861 10.2817 12.3901 10.3155 12.3846 10.3485C12.379 10.3814 12.3641 10.4119 12.3418 10.4363ZM10.8934 7.24738C10.8619 7.21298 10.8238 7.18555 10.7814 7.16681C10.7391 7.14807 10.6934 7.13841 10.6473 7.13843H3.78095C3.74818 7.13843 3.71613 7.14819 3.68874 7.16651C3.66134 7.18482 3.63979 7.2109 3.62673 7.24152C3.61367 7.27216 3.60967 7.30602 3.61523 7.33893C3.62078 7.37184 3.63565 7.40239 3.658 7.42682L5.10754 9.01043C5.13895 9.04474 5.17692 9.07211 5.21911 9.09085C5.26132 9.10959 5.30684 9.11931 5.35287 9.11938H12.2188C12.2516 9.11938 12.2836 9.10962 12.3111 9.09131C12.3384 9.07299 12.36 9.04692 12.3731 9.01629C12.3861 8.98565 12.3901 8.9518 12.3846 8.91888C12.379 8.88597 12.3641 8.85542 12.3418 8.831L10.8934 7.24738ZM3.78095 6.10986H10.6473C10.6934 6.10988 10.7391 6.10022 10.7814 6.08148C10.8238 6.06273 10.8619 6.03531 10.8934 6.00091L12.3418 4.41729C12.3641 4.39287 12.379 4.36232 12.3846 4.32941C12.3901 4.29649 12.3861 4.26264 12.3731 4.232C12.36 4.20137 12.3384 4.1753 12.3111 4.15698C12.2836 4.13867 12.2516 4.12891 12.2188 4.12891H5.35287C5.30684 4.12899 5.26132 4.1387 5.21911 4.15744C5.17692 4.17618 5.13895 4.20355 5.10754 4.23786L3.65838 5.82148C3.63605 5.84587 3.62119 5.87639 3.61562 5.90926C3.61005 5.94214 3.61401 5.97597 3.62703 6.00659C3.64004 6.03721 3.66154 6.06328 3.68888 6.08162C3.71622 6.09997 3.74822 6.10978 3.78095 6.10986Z" fill="#F8F9F9"/>
</svg>
