<svg width="30" height="30" fill="none" xmlns="http://www.w3.org/2000/svg"><path d="M17.5 23.75c4.714 0 7.071 0 8.535-1.465C27.5 20.822 27.5 18.464 27.5 13.75s0-7.071-1.465-8.536C24.572 3.75 22.214 3.75 17.5 3.75h-5c-4.714 0-7.071 0-8.536 1.464C2.5 6.68 2.5 9.036 2.5 13.75c0 4.714 0 7.071 1.464 8.535.817.817 1.91 1.178 3.536 1.338" stroke="#000" stroke-width="1.2" stroke-linecap="round" stroke-linejoin="round"/><path d="M17.5 23.75c-1.545 0-3.247.624-4.801 1.431-2.497 1.297-3.746 1.945-4.36 1.532-.616-.413-.5-1.694-.267-4.256l.053-.582" stroke="#000" stroke-width="1.2" stroke-linecap="round"/><path d="M11.835 11.781c.032-.806.317-1.463.854-1.969.543-.505 1.292-.758 2.25-.758.893 0 1.62.239 2.18.717.56.474.841 1.08.841 1.819 0 .989-.479 1.77-1.436 2.345-.437.26-.736.5-.895.724-.16.219-.24.506-.24.861v.418h-1.414l-.007-.547c-.018-.474.077-.878.287-1.21.214-.333.558-.643 1.032-.93.42-.25.711-.492.875-.725.164-.232.246-.524.246-.875a1.23 1.23 0 0 0-.424-.963c-.282-.251-.656-.377-1.12-.377-.47 0-.848.133-1.136.397-.287.264-.446.622-.478 1.073h-1.415Zm2.857 7.321a.877.877 0 0 1-.635-.252.842.842 0 0 1-.26-.63c0-.25.086-.46.26-.628a.877.877 0 0 1 .635-.253c.256 0 .47.084.643.253.173.168.26.378.26.629 0 .25-.087.46-.26.629a.885.885 0 0 1-.643.252Z" fill="#000"/></svg>