<svg width="111" height="26" viewBox="0 0 111 26" fill="none" xmlns="http://www.w3.org/2000/svg">
<path d="M13.9258 12.2993V24.9604H16.0103C18.9902 24.9604 20.2563 23.6943 20.2563 20.9646V12.2993H13.9258Z" fill="#1C1C1E"/>
<path d="M6.33203 12.2993V24.9604H4.24754C1.26759 24.9604 0.00147963 23.6943 0.00147963 20.9646V12.2993H6.33203Z" fill="#1C1C1E"/>
<path fill-rule="evenodd" clip-rule="evenodd" d="M-0.000976562 7.23485H7.59763H12.6601H20.2587V5.15036C20.2587 2.17041 18.9926 0.904297 16.2629 0.904297H12.6601H7.59763H3.99482C1.26513 0.904297 -0.000976562 2.17041 -0.000976562 5.15036V7.23485Z" fill="#1C1C1E"/>
<path d="M32.3131 6.48438H35.5625V9.23297H37.7658V11.6811H35.5625V17.3897C35.5625 18.2874 36.0299 18.7362 36.9646 18.7362C37.2688 18.7362 37.5321 18.7177 37.7547 18.6806V21.0731C37.3763 21.1621 36.8607 21.2066 36.2079 21.2066C34.8058 21.2066 33.8043 20.9544 33.2034 20.4499C32.6099 19.9455 32.3131 19.1109 32.3131 17.9461V11.6811H30.6328V9.23297H32.3131V6.48438Z" fill="#1C1C1E"/>
<path d="M44.2699 19.0033C44.9895 19.0033 45.5978 18.7956 46.0948 18.3801C46.5993 17.9573 46.8515 17.4268 46.8515 16.7888V15.9209L44.3366 16.0766C43.7283 16.1212 43.2572 16.2732 42.9234 16.5329C42.597 16.7925 42.4338 17.1338 42.4338 17.5567C42.4338 18.0018 42.6007 18.3542 42.9345 18.6138C43.2683 18.8735 43.7135 19.0033 44.2699 19.0033ZM43.2016 21.3513C42.0517 21.3513 41.0984 21.0137 40.3417 20.3386C39.585 19.6635 39.2067 18.7956 39.2067 17.7347C39.2067 16.6516 39.6073 15.8022 40.4085 15.1864C41.2097 14.5707 42.3559 14.2183 43.847 14.1293L46.8515 13.9512V13.1611C46.8515 12.6122 46.6698 12.1819 46.3063 11.8703C45.9502 11.5587 45.4643 11.4029 44.8485 11.4029C44.255 11.4029 43.7691 11.5365 43.3908 11.8035C43.0198 12.0706 42.7936 12.4304 42.712 12.8829H39.7408C39.8001 11.7108 40.3009 10.7686 41.2431 10.0564C42.1852 9.33683 43.4353 8.97703 44.9932 8.97703C46.5214 8.97703 47.7455 9.34054 48.6654 10.0676C49.5853 10.7946 50.0453 11.759 50.0453 12.9608V21.1621H46.9072V19.3371H46.8404C46.514 19.9603 46.0169 20.4536 45.3493 20.8171C44.6816 21.1732 43.9657 21.3513 43.2016 21.3513Z" fill="#1C1C1E"/>
<path d="M52.3763 21.1621V9.23297H55.5144V11.3584H55.5812C55.9076 10.6017 56.3824 10.0231 57.0055 9.62245C57.6361 9.21443 58.404 9.01041 59.309 9.01041C60.6295 9.01041 61.6496 9.4036 62.3692 10.19C63.0888 10.9763 63.4486 12.0706 63.4486 13.4727V21.1621H60.1993V14.1515C60.1993 13.3651 60.0138 12.7605 59.6429 12.3377C59.2719 11.9148 58.7267 11.7034 58.0071 11.7034C57.2875 11.7034 56.7088 11.9445 56.2711 12.4267C55.8408 12.9089 55.6257 13.5395 55.6257 14.3184V21.1621H52.3763Z" fill="#1C1C1E"/>
<path d="M71.2435 18.6249C72.0595 18.6249 72.705 18.3208 73.1798 17.7124C73.662 17.0967 73.9031 16.251 73.9031 15.1753C73.9031 14.0996 73.662 13.2427 73.1798 12.6047C72.6975 11.9667 72.0521 11.6477 71.2435 11.6477C70.4423 11.6477 69.8043 11.9667 69.3295 12.6047C68.8621 13.2353 68.6284 14.0922 68.6284 15.1753C68.6284 16.2584 68.8621 17.1041 69.3295 17.7124C69.7969 18.3208 70.4349 18.6249 71.2435 18.6249ZM71.1879 25.6578C69.6374 25.6578 68.3614 25.3165 67.3599 24.634C66.3658 23.9589 65.8019 23.0835 65.6684 22.0078H68.851C68.9771 22.4233 69.259 22.7571 69.6967 23.0093C70.1418 23.269 70.6686 23.3988 71.2769 23.3988C72.1003 23.3988 72.7421 23.1874 73.202 22.7645C73.662 22.3491 73.8919 21.789 73.8919 21.0842V18.9922H73.8252C73.5433 19.6376 73.0722 20.1569 72.4119 20.5501C71.7517 20.9358 70.995 21.1287 70.1418 21.1287C68.673 21.1287 67.4971 20.5946 66.6143 19.5263C65.7389 18.458 65.3012 17.0003 65.3012 15.153C65.3012 13.2613 65.7389 11.7701 66.6143 10.6796C67.4897 9.58907 68.6841 9.0438 70.1975 9.0438C71.0432 9.0438 71.7888 9.24781 72.4342 9.65583C73.0796 10.0639 73.5618 10.6165 73.8808 11.3139H73.9365V9.23297H77.1413V20.9952C77.1413 22.4121 76.596 23.5435 75.5055 24.3892C74.4224 25.2349 72.9832 25.6578 71.1879 25.6578Z" fill="#1C1C1E"/>
<path d="M84.8472 11.3807C84.1424 11.3807 83.5526 11.6218 83.0778 12.104C82.6105 12.5862 82.3471 13.2019 82.2877 13.9512H87.3509C87.3139 13.1871 87.0653 12.5676 86.6054 12.0928C86.1528 11.6181 85.5668 11.3807 84.8472 11.3807ZM87.3955 17.5121H90.3777C90.1997 18.6843 89.6136 19.6302 88.6195 20.3498C87.6329 21.062 86.4051 21.418 84.9362 21.418C83.1038 21.418 81.6646 20.8691 80.6186 19.7711C79.5799 18.6732 79.0606 17.1672 79.0606 15.2532C79.0606 13.3466 79.5799 11.8258 80.6186 10.6907C81.6572 9.54826 83.0556 8.97703 84.8138 8.97703C86.5423 8.97703 87.9185 9.51859 88.9422 10.6017C89.966 11.6848 90.4779 13.1352 90.4779 14.9527V15.9431H82.2544V16.1434C82.2544 16.9966 82.5029 17.6902 82.9999 18.2243C83.5044 18.7511 84.1684 19.0144 84.9918 19.0144C85.5853 19.0144 86.0972 18.8809 86.5275 18.6138C86.9578 18.3393 87.2471 17.9721 87.3955 17.5121Z" fill="#1C1C1E"/>
<path d="M92.3861 21.1621V9.23297H95.5242V11.3918H95.591C95.8432 10.6648 96.2735 10.0861 96.8818 9.65583C97.4901 9.22555 98.1949 9.01041 98.9961 9.01041C99.8567 9.01041 100.576 9.22555 101.155 9.65583C101.734 10.0787 102.123 10.6796 102.323 11.4586H102.39C102.657 10.7093 103.121 10.1158 103.781 9.67809C104.449 9.23297 105.22 9.01041 106.096 9.01041C107.268 9.01041 108.21 9.37763 108.922 10.1121C109.642 10.8465 110.002 11.8147 110.002 13.0165V21.1621H106.752V13.8288C106.752 13.1389 106.585 12.6122 106.252 12.2486C105.918 11.8777 105.435 11.6922 104.805 11.6922C104.189 11.6922 103.692 11.8963 103.314 12.3043C102.943 12.7123 102.757 13.2502 102.757 13.9178V21.1621H99.6304V13.7287C99.6304 13.0907 99.4598 12.5936 99.1185 12.2375C98.7772 11.874 98.3062 11.6922 97.7053 11.6922C97.0895 11.6922 96.5888 11.9037 96.203 12.3265C95.8246 12.7494 95.6355 13.2947 95.6355 13.9623V21.1621H92.3861Z" fill="#1C1C1E"/>
</svg>
