<svg width="101" height="27" fill="none" xmlns="http://www.w3.org/2000/svg"><path d="M10.664 10.654V21.31h4.652a.683.683 0 0 0 .68-.681v-9.974h-5.332ZM0 20.628a.682.682 0 0 0 .68.68h4.652V10.655H0v9.974ZM15.995 5.327V.68a.682.682 0 0 0-.68-.679H.68A.682.682 0 0 0 0 .679v4.648h15.995Zm25.256 1.731c-.696-.36-1.728-.54-3.097-.54a18.68 18.68 0 0 0-4.169.455V9.4c1.09-.133 2.185-.21 3.283-.228.819 0 1.404.059 1.757.177a1.158 1.158 0 0 1 .741.77c.144.4.216 1.066.215 1.997v.707a57.34 57.34 0 0 0-3.026-.115c-.934 0-1.662.143-2.186.428-.54.306-.942.806-1.127 1.399-.229.647-.343 1.53-.342 2.652 0 1.52.262 2.623.784 3.308.523.684 1.385 1.027 2.586 1.027h.026c.568.012 2.3-.039 3.097-1.06.13-.164.24-.342.33-.531l.086 1.366h2.856V12.28c0-1.5-.129-2.655-.386-3.465a2.86 2.86 0 0 0-1.428-1.756Zm-1.27 8.703c0 1.236-.134 2.035-.4 2.395a1.362 1.362 0 0 1-.657.457 3.089 3.089 0 0 1-.913.114c-.685 0-1.133-.117-1.341-.353-.21-.236-.314-.726-.315-1.47a4.274 4.274 0 0 1 .129-1.226.845.845 0 0 1 .428-.542c.296-.112.612-.16.927-.143h2.142v.768Zm26.169-7.89a3.082 3.082 0 0 0-.204-.297c-.966-1.237-3.276-1.048-3.276-1.048-.911.016-1.633.228-2.15.633-.544.428-.93 1.175-1.157 2.24-.228 1.066-.34 2.589-.336 4.569 0 1.939.109 3.432.327 4.48.218 1.048.594 1.79 1.127 2.224.531.439 1.304.656 2.315.656h.08-.01s2.087.16 3.126-.884c0 1.192-.06 2.039-.177 2.532-.117.493-.366.861-.757 1.041-.392.18-1.062.27-2.013.27l-3.199-.056v2.426c.59.113 1.187.193 1.786.242.732.066 1.432.1 2.098.1 1.618 0 2.807-.257 3.57-.77.762-.512 1.247-1.273 1.456-2.282.209-1.01.313-2.512.313-4.509V6.745h-2.847l-.073 1.126Zm-.355 9.401c-.095.472-.276.805-.543 1-.266.194-.657.292-1.171.293-.63 0-1.072-.09-1.33-.27-.256-.181-.427-.576-.512-1.185a25.67 25.67 0 0 1-.126-3.142c0-1.52.043-2.576.13-3.167.085-.59.252-.97.498-1.14.248-.171.696-.257 1.343-.257.552 0 .961.11 1.227.327.265.219.446.631.543 1.238.095.552.143 1.55.143 2.995-.002 1.653-.07 2.755-.203 3.308h.001ZM80.37 7.25c-.657-.485-1.747-.728-3.27-.728-1.541 0-2.674.252-3.398.755-.724.504-1.19 1.26-1.398 2.27-.211 1.01-.316 2.514-.315 4.51 0 2.015.11 3.522.33 4.52.219.998.703 1.74 1.454 2.226.752.485 1.928.727 3.527.727a21.509 21.509 0 0 0 2.3-.128c.64-.06 1.276-.17 1.899-.328V18.64a34.025 34.025 0 0 1-3.511.23c-.953 0-1.62-.082-2-.244a1.293 1.293 0 0 1-.743-.97c-.118-.484-.177-1.344-.177-2.58h6.767v-1.062c0-2.113-.08-3.649-.242-4.607-.162-.958-.57-1.678-1.223-2.159ZM78.9 12.8h-3.827c-.004-.803.048-1.604.156-2.398.087-.476.262-.8.531-.97.269-.17.694-.256 1.285-.256.552 0 .952.076 1.2.228.247.152.418.475.513.97.116.793.163 1.595.143 2.397l-.002.028Zm21.827-4.101c-.18-.732-.503-1.279-.97-1.64-.465-.363-1.146-.543-2.041-.542h-.114s-2.313-.134-3.284 1.061a2.508 2.508 0 0 0-.28.426 2.24 2.24 0 0 0-.768-.999c-.45-.311-1.12-.468-2.001-.48 0 0-2.359-.146-3.286 1.06a3.023 3.023 0 0 0-.278.424l-.08-1.253h-2.831v14.55h3.083v-7.6c-.015-.91.019-1.819.1-2.724.066-.561.223-.966.471-1.213.248-.248.657-.371 1.228-.37.552 0 .933.071 1.142.214.21.142.354.465.414.969.084.896.118 1.796.1 2.696v8.017h3.085v-7.589a25.89 25.89 0 0 1 .1-2.724c.066-.561.228-.966.484-1.213.257-.246.672-.37 1.239-.37.566 0 .932.07 1.143.214.21.143.354.465.414.969.082.896.116 1.796.1 2.696v8.017h3.084V11.71c.012-1.274-.072-2.278-.254-3.011ZM54.928 7.072c-.484-.371-1.203-.557-2.155-.557h-.094s-2.34-.129-3.286 1.061c-.07.09-.129.177-.177.264l-.067-1.093h-2.831v14.55h3.084v-7.591a25.92 25.92 0 0 1 .1-2.71c.066-.552.233-.955.5-1.213.267-.258.708-.384 1.313-.384.572 0 .972.071 1.2.214.228.141.38.47.456.983.096.89.135 1.787.117 2.682v8.016h3.084v-9.448a14.572 14.572 0 0 0-.252-3.089c-.175-.75-.506-1.312-.992-1.685ZM29.616 2.523h-3.083v4.14H24.62v2.655h1.913v11.976h3.083V9.318h2.341V6.664h-2.341V2.523Z"/></svg>