<svg width="108" height="29" viewBox="0 0 108 29" fill="none" xmlns="http://www.w3.org/2000/svg">
<path d="M11.4028 11.4434V22.8869H16.3776C16.5703 22.8859 16.7548 22.8085 16.8909 22.6715C17.027 22.5346 17.1037 22.3492 17.1042 22.1557V11.4434H11.4028Z" />
<path d="M0 22.1557C0.000496729 22.3492 0.077151 22.5346 0.213258 22.6715C0.349365 22.8085 0.533891 22.8859 0.726623 22.8869H5.70134V11.4434H0V22.1557Z" />
<path d="M17.104 5.72176V0.729225C17.103 0.535803 17.0259 0.350616 16.8894 0.214022C16.753 0.0774273 16.5682 0.000498508 16.3755 0L0.726623 0C0.534064 0.000501296 0.349535 0.0774911 0.213375 0.214139C0.0772146 0.350787 0.000499506 0.535977 0 0.729225L0 5.72176H17.104Z" />
<path d="M44.1103 7.58074C43.366 7.19334 42.2622 6.99964 40.7988 6.99964C39.2992 6.99433 37.8037 7.15869 36.3407 7.48958V10.095C37.5057 9.95167 38.6773 9.8699 39.8508 9.85007C40.7263 9.85007 41.3526 9.91337 41.7298 10.04C41.9186 10.1038 42.0893 10.2123 42.2273 10.3565C42.3654 10.5006 42.4667 10.6761 42.5227 10.8679C42.6766 11.2971 42.7529 12.0118 42.7516 13.0119V13.7716C41.364 13.6905 40.2854 13.6494 39.5159 13.6481C38.5181 13.6481 37.7391 13.8013 37.179 14.1077C36.6019 14.4369 36.171 14.9738 35.9736 15.6098C35.7289 16.3049 35.6071 17.2544 35.6084 18.4584C35.6084 20.0915 35.8878 21.2759 36.4467 22.0114C37.0055 22.747 37.927 23.1148 39.2112 23.1148H39.2396C39.847 23.1281 41.6995 23.073 42.5511 21.9753C42.6903 21.8 42.8084 21.6088 42.903 21.4056L42.9957 22.8736H46.0498V13.1886C46.0498 11.5769 45.9123 10.3362 45.6373 9.46647C45.5239 9.06447 45.33 8.6899 45.0674 8.36567C44.8049 8.04144 44.4792 7.77435 44.1103 7.58074V7.58074ZM42.7516 16.9277C42.7516 18.2558 42.6091 19.1135 42.324 19.5009C42.1441 19.731 41.8995 19.9017 41.622 19.9909C41.3045 20.0808 40.9753 20.1224 40.6456 20.1143C39.9126 20.1143 39.4345 19.9877 39.2112 19.7345C38.988 19.4813 38.8757 18.9553 38.8744 18.1564C38.8568 17.7127 38.9033 17.2688 39.0126 16.8385C39.0439 16.7148 39.1009 16.599 39.1798 16.4989C39.2587 16.3988 39.3577 16.3165 39.4705 16.2574C39.7866 16.137 40.1244 16.0846 40.462 16.1036H42.7516V16.9277Z"/>
<path d="M70.7341 8.45434C70.6678 8.34384 70.5951 8.23732 70.5165 8.13531C69.4833 6.80599 67.0139 7.00919 67.0139 7.00919C66.0394 7.02628 65.2674 7.25416 64.7148 7.68904C64.1333 8.1486 63.7208 8.95062 63.4773 10.0951C63.2338 11.2396 63.114 12.8753 63.1178 15.0022C63.1178 17.0848 63.2345 18.6888 63.4678 19.8143C63.7012 20.9398 64.103 21.7361 64.6732 22.2033C65.2409 22.6742 66.0678 22.9078 67.1483 22.9078H67.2334H67.2239C67.2239 22.9078 69.4549 23.0787 70.5657 21.9583C70.5657 23.2383 70.5013 24.1479 70.3764 24.6777C70.2515 25.2075 69.9847 25.6025 69.5665 25.7962C69.1484 25.9899 68.4312 26.0868 67.4151 26.0868L63.9939 26.026V28.6315C64.6252 28.7522 65.2626 28.839 65.9032 28.8916C66.6865 28.9625 67.4346 28.998 68.1474 28.998C69.8769 28.998 71.1491 28.7226 71.964 28.1719C72.779 27.6212 73.2981 26.804 73.5213 25.7203C73.7446 24.6366 73.8563 23.0224 73.8563 20.8778V7.24467H70.8116L70.7341 8.45434ZM70.3556 18.5515C70.2534 19.0579 70.0598 19.4155 69.7747 19.6244C69.4896 19.8333 69.072 19.9384 68.522 19.9396C67.8496 19.9396 67.376 19.8428 67.1009 19.6491C66.8259 19.4554 66.643 19.0313 66.5522 18.3767C66.4388 17.2557 66.394 16.1287 66.4178 15.0022C66.4178 13.369 66.4639 12.2353 66.556 11.601C66.6481 10.9668 66.8259 10.5585 67.0896 10.3762C67.3545 10.1926 67.8332 10.1008 68.5258 10.1008C69.1162 10.1008 69.5533 10.2179 69.8371 10.4521C70.121 10.6863 70.3146 11.1294 70.4181 11.7814C70.5202 12.3739 70.5713 13.4462 70.5713 14.9984C70.5688 16.7733 70.4963 17.9577 70.3537 18.5515H70.3556Z"/>
<path d="M85.9402 7.78587C85.2376 7.26554 84.0719 7.00537 82.4433 7.00537C80.7958 7.00537 79.5848 7.27567 78.8102 7.81625C78.0357 8.35684 77.5374 9.16963 77.3153 10.2546C77.0895 11.3396 76.9773 12.9537 76.9785 15.0971C76.9785 17.262 77.0958 18.8806 77.3305 19.9529C77.5651 21.0252 78.0836 21.8222 78.8859 22.3438C79.6908 22.8641 80.9478 23.1243 82.6572 23.1243C83.479 23.1229 84.3001 23.0773 85.1171 22.9876C85.802 22.923 86.4809 22.8049 87.1475 22.6343V20.0213C85.9012 20.1686 84.6481 20.251 83.3933 20.2682C82.374 20.2682 81.6612 20.1808 81.255 20.0061C81.0474 19.9118 80.8662 19.7674 80.7275 19.5859C80.5888 19.4043 80.497 19.1912 80.4603 18.9654C80.3341 18.4451 80.271 17.5209 80.271 16.1928H87.507V15.0534C87.507 12.7835 87.4206 11.1338 87.2478 10.1046C87.0749 9.07531 86.6391 8.3024 85.9402 7.78587ZM84.3678 13.7469H80.2767C80.2715 12.8857 80.3272 12.0252 80.4432 11.1718C80.536 10.661 80.7233 10.3135 81.0109 10.1312C81.2985 9.94886 81.7527 9.85581 82.3847 9.85581C82.9751 9.85581 83.4027 9.93746 83.6676 10.1008C83.9325 10.2641 84.1155 10.611 84.2164 11.1414C84.3402 11.9939 84.3915 12.8554 84.3697 13.7165L84.3678 13.7469Z"/>
<path d="M107.709 9.34338C107.516 8.55718 107.17 7.96975 106.672 7.58108C106.173 7.19241 105.446 6.99871 104.488 6.99998C104.446 6.99998 104.409 6.99998 104.367 6.99998C104.367 6.99998 101.894 6.85566 100.855 8.1394C100.74 8.28133 100.64 8.43468 100.556 8.59706C100.39 8.16794 100.105 7.79557 99.7348 7.52411C99.2541 7.18988 98.537 7.02087 97.5946 7.00758C97.5946 7.00758 95.0723 6.85186 94.0807 8.14699C93.9692 8.29031 93.8698 8.44276 93.7836 8.60276L93.6985 7.25635H90.6709V22.8834H93.9672V14.7214C93.9517 13.7447 93.9877 12.7679 94.0751 11.795C94.1457 11.1924 94.3135 10.7582 94.5784 10.4923C94.8433 10.2264 95.281 10.0941 95.8916 10.0954C96.482 10.0954 96.8888 10.172 97.1121 10.3252C97.3373 10.4771 97.4906 10.8246 97.5549 11.3658C97.6451 12.3284 97.6811 13.2952 97.6628 14.2619V22.872H100.961V14.7214C100.945 13.7448 100.98 12.7679 101.067 11.795C101.139 11.1924 101.312 10.7582 101.585 10.4923C101.86 10.2283 102.304 10.0954 102.91 10.0954C103.515 10.0954 103.907 10.1714 104.132 10.3252C104.358 10.479 104.511 10.8246 104.575 11.3658C104.663 12.3285 104.699 13.2953 104.681 14.2619V22.872H107.979V12.5774C107.993 11.2089 107.903 10.1308 107.709 9.34338Z" />
<path d="M58.7355 7.59625C58.217 7.19746 57.4488 6.99806 56.4307 6.99806H56.3305C56.3305 6.99806 53.827 6.85943 52.8166 8.13747C52.7409 8.23432 52.6784 8.32737 52.6273 8.42043L52.5554 7.24683H49.5278V22.8739H52.826V14.7214C52.8107 13.7498 52.8461 12.7781 52.932 11.8102C53.0039 11.2177 53.1818 10.7847 53.4675 10.5075C53.7532 10.2302 54.2244 10.0954 54.8715 10.0954C55.4834 10.0954 55.911 10.172 56.1545 10.3251C56.3986 10.4771 56.5613 10.8303 56.6427 11.381C56.7447 12.3377 56.7864 13.2999 56.7676 14.2618V22.872H60.0657V12.7236C60.0933 11.6112 60.0025 10.4991 59.7952 9.40602C59.6085 8.59957 59.2552 7.99631 58.7355 7.59625Z" />
<path d="M31.6685 2.70996H28.3722V7.15748H26.3267V10.0079H28.3722V22.8719H31.6685V10.0079H34.1719V7.15748H31.6685V2.70996Z" />
</svg>
