<svg width="24" height="24" fill="none" xmlns="http://www.w3.org/2000/svg"><path d="M21.818 0H2.182A2.181 2.181 0 0 0 0 2.182v19.636C0 23.024.976 24 2.182 24h19.636A2.181 2.181 0 0 0 24 21.818V2.182A2.181 2.181 0 0 0 21.818 0ZM7.586 19.636H4.368V9.281h3.218v10.355ZM5.944 7.801a1.876 1.876 0 1 1 0-3.752 1.876 1.876 0 0 1 0 3.752Zm13.697 11.835h-3.216v-5.035c0-1.201-.022-2.746-1.673-2.746-1.674 0-1.932 1.308-1.932 2.659v5.122H9.604V9.281h3.088v1.415h.043c.43-.813 1.48-1.672 3.045-1.672 3.258 0 3.86 2.145 3.86 4.933v5.68Z" fill="#0A66C2"/></svg>