<svg width="52" height="52" viewBox="0 0 52 52" fill="none" xmlns="http://www.w3.org/2000/svg">
<path d="M43.4193 9.30899C43.4193 9.30899 47.3046 7.79399 46.9808 11.4733C46.8729 12.9883 45.9016 18.2908 45.1461 24.0262L42.5559 41.0159C42.5559 41.0159 42.3401 43.5048 40.3974 43.9377C38.4547 44.3705 35.5408 42.4227 35.0011 41.9898C34.5694 41.6652 26.9068 36.7955 24.2086 34.4148C23.4531 33.7655 22.5897 32.4669 24.3165 30.9519L35.6487 20.1305C36.9438 18.8319 38.2389 15.8019 32.8426 19.4812L17.7331 29.7616C17.7331 29.7616 16.0063 30.8437 12.7686 29.8698L5.75342 27.7055C5.75342 27.7055 3.16321 26.0823 7.58815 24.459C18.3807 19.3729 31.6555 14.1786 43.4193 9.30899Z" fill="#fff"/>
</svg>
