<svg width="22" height="22" viewBox="0 0 22 22" fill="none" xmlns="http://www.w3.org/2000/svg">
<circle cx="11" cy="11" r="11" fill="#A1A1A4"/>
<path d="M11.7172 17.875C10.7819 17.875 10.0993 17.6387 9.66932 17.166C9.27098 16.7659 9.03981 16.2166 9.02636 15.6382C9.02152 15.4625 9.06034 15.2885 9.13899 15.1333C9.21236 14.9992 9.31834 14.8879 9.44612 14.8108C9.59463 14.7331 9.75832 14.6926 9.92428 14.6926C10.0902 14.6926 10.2539 14.7331 10.4025 14.8108C10.53 14.8876 10.6355 14.999 10.7078 15.1333C10.7888 15.2877 10.829 15.462 10.8245 15.6382C10.8329 15.8486 10.7753 16.0561 10.6607 16.229C10.5652 16.3702 10.4286 16.475 10.2715 16.5279C10.4251 16.7331 10.6425 16.8753 10.8858 16.9297C11.158 17.0126 11.4399 17.0552 11.7233 17.0564C12.0986 17.0598 12.4661 16.9445 12.778 16.7255C13.1015 16.4857 13.3428 16.143 13.466 15.748C13.6223 15.2779 13.6985 14.7827 13.6913 14.285C13.7039 13.766 13.6204 13.2494 13.4455 12.7638C13.314 12.3754 13.0643 12.0433 12.735 11.8185C12.4288 11.6153 12.0735 11.5087 11.7112 11.5113C11.3956 11.5394 11.0912 11.6478 10.8245 11.8271L10.167 12.173V11.8271L13.122 7.66823H9.02636V11.984C9.01479 12.2954 9.09332 12.6032 9.25163 12.867C9.32822 12.9819 9.4318 13.0741 9.55235 13.1347C9.67289 13.1953 9.8063 13.2222 9.93967 13.2128C10.1861 13.2076 10.4244 13.1195 10.6195 12.9615C10.8406 12.7915 11.0331 12.5838 11.1888 12.347C11.2028 12.3055 11.2287 12.2695 11.2629 12.244C11.2903 12.2191 11.3253 12.2054 11.3616 12.2053C11.4327 12.2121 11.5001 12.2421 11.5541 12.2912C11.6225 12.3714 11.6598 12.4757 11.6585 12.5834C11.6506 12.6557 11.6383 12.7275 11.6216 12.7982C11.4762 13.1676 11.2323 13.4853 10.9192 13.7131C10.6284 13.9196 10.285 14.029 9.93391 14.0271C9.04718 14.0271 8.43288 13.8438 8.09101 13.4771C7.91529 13.2745 7.77986 13.0371 7.69266 12.7788C7.60545 12.5206 7.56822 12.2467 7.58314 11.9732V7.66823H5.5V6.86636H7.59285V5.03804L7.11369 4.535V4.125H8.5041L9.02636 4.40863V6.86636L14.4366 6.8491L14.9752 7.41628L11.6578 10.9137C11.8582 10.8291 12.0693 10.7756 12.2844 10.7547C12.7101 10.7742 13.1255 10.8986 13.4969 11.1178C13.927 11.3323 14.2895 11.6717 14.5413 12.0957C14.767 12.4546 14.9268 12.8546 15.0123 13.2752C15.0827 13.6069 15.1204 13.9453 15.125 14.2851C15.1272 14.9335 14.987 15.5738 14.7154 16.1563C14.4578 16.7203 14.0243 17.1752 13.4867 17.4454C12.9363 17.7299 12.3307 17.8769 11.7172 17.875Z" fill="#F8F9F9"/>
</svg>
