<svg width="1027" height="762" fill="none" xmlns="http://www.w3.org/2000/svg"><g filter="url(#a)"><rect x="233.464" y="304" width="114" height="114" rx="57" fill="#fff"/></g><path d="M324.416 369.467c-4.675 18.75-23.668 30.161-42.422 25.485-18.747-4.675-30.159-23.666-25.482-42.415 4.673-18.752 23.666-30.164 42.415-25.49 18.753 4.675 30.164 23.669 25.489 42.42Z" fill="#F7931A"/><path d="M306.878 356.689c.686-4.624-2.808-7.109-7.587-8.767l1.55-6.263-3.784-.95-1.51 6.098c-.995-.25-2.016-.485-3.032-.719l1.52-6.138-3.782-.95-1.552 6.261c-.823-.189-1.632-.376-2.416-.572l.004-.02-5.219-1.313-1.007 4.072s2.808.648 2.749.688c1.532.386 1.809 1.408 1.763 2.218l-1.766 7.134c.106.028.243.067.394.127-.126-.031-.261-.066-.4-.099l-2.475 9.994c-.188.469-.663 1.173-1.734.906.037.055-2.751-.692-2.751-.692l-1.879 4.364 4.925 1.237c.916.231 1.814.473 2.698.701l-1.566 6.335 3.78.95 1.551-6.267c1.033.282 2.035.543 3.016.788l-1.545 6.238 3.784.95 1.566-6.323c6.454 1.231 11.307.734 13.35-5.145 1.646-4.734-.082-7.465-3.478-9.246 2.473-.574 4.336-2.213 4.833-5.597Zm-8.648 12.214c-1.169 4.734-9.082 2.175-11.648 1.533l2.078-8.392c2.566.645 10.793 1.922 9.57 6.859Zm1.171-12.283c-1.067 4.307-7.653 2.119-9.79 1.582l1.884-7.611c2.137.536 9.017 1.537 7.906 6.029Z" fill="#fff"/><g filter="url(#b)"><rect x="365.464" y="304" width="114" height="114" rx="57" fill="#fff"/></g><path d="m422.459 328-.447 1.504v43.64l.447.442 20.494-11.974L422.459 328Z" fill="#343434"/><path d="m422.458 328-20.494 33.612 20.494 11.974V328Z" fill="#8C8C8C"/><path d="m422.457 377.422-.252.304v15.546l.252.728 20.507-28.546-20.507 11.968Z" fill="#3C3C3B"/><path d="M422.458 394v-16.578l-20.494-11.968L422.458 394Z" fill="#8C8C8C"/><path d="m422.457 373.586 20.494-11.974-20.494-9.207v21.181Z" fill="#141414"/><path d="m401.964 361.612 20.494 11.974v-21.181l-20.494 9.207Z" fill="#393939"/><g filter="url(#c)"><rect x="497.464" y="304" width="114" height="114" rx="57" fill="#fff"/></g><path fill-rule="evenodd" clip-rule="evenodd" d="M548.688 352.846c.132.453.318.884.549 1.285a4.145 4.145 0 0 0-.634 2.215c0 2.33 1.887 4.269 4.216 4.335.593.017 1.194.029 1.794.029.852.055 1.703.089 2.547.102 2.29.037 4.065-1.879 4.065-4.169 0-.917-.284-1.774-.771-2.479.21-.366.382-.756.51-1.166 9.768 2.057 7.362 9.019-6.501 9.019-14.351 0-16.549-7.332-5.775-9.171Zm12.534-1.384c.002-.064.003-.129.003-.194a5.81 5.81 0 0 1 5.811-5.81h5.038a5.229 5.229 0 1 0 0-10.458h-34.542a5.156 5.156 0 0 0 0 10.313h5.039a5.882 5.882 0 0 1 5.882 5.882c0 .076.002.151.005.226-13.172.679-22.994 3.546-22.994 6.965 0 3.917 12.893 7.11 28.945 7.117-3.223.029-5.956 2.64-5.956 5.868v9.318a6.311 6.311 0 1 0 12.622 0v-8.857c0-3.56-3-6.299-6.554-6.329 16.051-.007 28.943-3.2 28.943-7.117 0-3.354-9.45-6.176-22.242-6.924Z" fill="#00A478"/><g filter="url(#d)"><rect x="629.464" y="304" width="114" height="114" rx="57" fill="#fff"/></g><circle cx="686.464" cy="361" r="35" fill="#2D7DF8"/><path d="M690.842 383c-2.915 0-5.043-.756-6.383-2.269-1.241-1.28-1.962-3.038-2.004-4.889a3.453 3.453 0 0 1 .351-1.616c.229-.429.559-.785.957-1.031a3.146 3.146 0 0 1 1.491-.379c.517 0 1.027.13 1.49.379.398.245.727.602.952 1.031.252.495.378 1.052.364 1.616a3.262 3.262 0 0 1-.511 1.891 2.395 2.395 0 0 1-1.213.956 3.288 3.288 0 0 0 1.915 1.286 8.849 8.849 0 0 0 2.61.405 5.533 5.533 0 0 0 3.288-1.058 6.181 6.181 0 0 0 2.144-3.128c.487-1.505.725-3.089.702-4.682a13.75 13.75 0 0 0-.766-4.868c-.41-1.243-1.188-2.306-2.215-3.025a5.586 5.586 0 0 0-3.19-.983 5.789 5.789 0 0 0-2.764 1.011l-2.05 1.107v-1.107l9.211-13.309h-12.766v13.811a5.238 5.238 0 0 0 .702 2.825c.239.368.562.663.938.857.375.194.791.28 1.207.25a3.433 3.433 0 0 0 2.119-.804 7.988 7.988 0 0 0 1.774-1.967.681.681 0 0 1 .231-.329.452.452 0 0 1 .308-.124c.222.022.431.118.6.275.213.257.329.59.325.935a5.692 5.692 0 0 1-.115.687 6.584 6.584 0 0 1-2.189 2.928 5.156 5.156 0 0 1-3.071 1.005c-2.764 0-4.679-.587-5.744-1.76a6.711 6.711 0 0 1-1.242-2.235 7.046 7.046 0 0 1-.341-2.578v-13.776h-6.493v-2.566h6.523v-5.85l-1.493-1.61V339h4.333l1.628.908v7.864l16.863-.055 1.679 1.815-10.34 11.192a6.535 6.535 0 0 1 1.953-.509 8.02 8.02 0 0 1 3.779 1.162c1.341.686 2.471 1.772 3.256 3.129a11.536 11.536 0 0 1 1.468 3.775 17.08 17.08 0 0 1 .351 3.231 14.377 14.377 0 0 1-1.277 5.988c-.803 1.805-2.154 3.26-3.83 4.125a11.663 11.663 0 0 1-5.515 1.375Z" fill="#fff"/><g filter="url(#e)"><rect x="761.464" y="304" width="114" height="114" rx="57" fill="#fff"/></g><path d="M817.436 393.816c18.691 0 33.844-15.153 33.844-33.844 0-18.691-15.153-33.844-33.844-33.844-18.691 0-33.844 15.153-33.844 33.844 0 18.691 15.153 33.844 33.844 33.844Z" fill="#F2E3EE"/><path d="M818.464 396c19.33 0 35-15.67 35-35s-15.67-35-35-35-35 15.67-35 35 15.67 35 35 35Z" fill="#D9327C"/><path fill-rule="evenodd" clip-rule="evenodd" d="M817.033 346.601c-.281.225-.618.617-.842 1.347-.225.729-1.46 4.32-3.031 8.809h10.496c-1.572-4.489-2.807-8.08-3.031-8.809-.225-.73-.561-1.122-.842-1.347-.281-.224-.674-.393-1.403-.393-.73 0-1.067.169-1.347.393Zm-15.492 10.156h7.128c1.74-5.106 3.256-9.37 3.48-10.156.449-1.347 1.179-2.525 2.302-3.367 1.122-.841 2.469-1.234 3.873-1.234 1.403 0 2.75.337 3.873 1.234 1.122.842 1.852 2.02 2.301 3.367.28.786 1.74 4.994 3.48 10.156h7.241a2.132 2.132 0 1 1 0 4.265h-33.678c-1.179 0-2.077-.954-2.077-2.133 0-1.178.954-2.132 2.077-2.132Zm0 8.417c-1.179 0-2.077.954-2.077 2.132 0 1.178.954 2.132 2.077 2.132h2.806l-1.122 3.255-1.123 3.254-.449 1.235c-.393 1.122.224 2.3 1.291 2.693 1.123.393 2.301-.224 2.694-1.291l.449-1.234 1.123-3.254c.449-1.347 1.01-2.918 1.628-4.658h19.196a138.797 138.797 0 0 0 1.628 4.658l1.122 3.254.449 1.234c.393 1.123 1.572 1.684 2.695 1.291a2.084 2.084 0 0 0 1.291-2.693l-.449-1.235-1.123-3.254-1.123-3.255h2.807a2.132 2.132 0 1 0 0-4.264h-33.79Zm31.601 12.625 1.964-.673-1.964.673Zm0 0-1.965.673 1.965-.673Zm-29.468 0 1.964.673-1.964-.673Zm0 0-1.965-.673 1.965.673Z" fill="#fff"/><g filter="url(#f)"><rect x="155.464" y="436" width="114" height="114" rx="57" fill="#fff"/></g><circle cx="212.464" cy="493" r="57" fill="#fff"/><g filter="url(#g)"><rect x="177.464" y="458" width="70" height="70" rx="35" fill="#000"/></g><path d="M212.983 474.007a18.303 18.303 0 0 0-7.282 1.291 18.576 18.576 0 0 0-6.216 4.082 19.018 19.018 0 0 0-4.17 6.229 19.353 19.353 0 0 0-1.412 8.841 3.513 3.513 0 0 1-.425 1.955 3.423 3.423 0 0 1-1.415 1.386l-1.599.833v3.881l4.708-2.45 1.525-.793 1.504-.781 26.968-14.028 3.03-1.575 6.265-3.258v-3.882l-6.21 3.234-5.298 2.757-25.584 13.302a15.798 15.798 0 0 1 1.894-9.756 15.408 15.408 0 0 1 5.512-5.678 15.01 15.01 0 0 1 7.547-2.134 15.008 15.008 0 0 1 7.59 1.973l3.032-1.577.453-.236a18.375 18.375 0 0 0-10.417-3.616Zm21.481 9.496-34.733 18.051-3.03 1.58-6.237 3.247v3.877l6.193-3.222 5.298-2.757 25.612-13.319c.086.678.129 1.361.128 2.044a15.807 15.807 0 0 1-2.021 7.732 15.407 15.407 0 0 1-5.52 5.684 15.01 15.01 0 0 1-7.557 2.13 15 15 0 0 1-7.595-1.986l-.185.101-3.287 1.71a18.384 18.384 0 0 0 9.479 3.567 18.293 18.293 0 0 0 9.909-2.014 18.77 18.77 0 0 0 7.419-6.999 19.304 19.304 0 0 0 2.689-11.385c-.05-.68.098-1.359.425-1.954a3.42 3.42 0 0 1 1.414-1.386l1.599-.833v-3.868Z" fill="#fff"/><g filter="url(#h)"><rect x="287.464" y="436" width="114" height="114" rx="57" fill="#fff"/></g><path d="M344.464 528c19.33 0 35-15.67 35-35s-15.67-35-35-35-35 15.67-35 35 15.67 35 35 35Z" fill="#fff"/><path d="M344.464 458a35 35 0 1 0 35 35 34.896 34.896 0 0 0-21.449-32.305A34.898 34.898 0 0 0 344.667 458h-.203Zm.593 36.186-3.644 12.289h19.492a.975.975 0 0 1 .705.263.993.993 0 0 1 .312.686v.322l-1.695 5.847a1.263 1.263 0 0 1-1.272.932h-29.83l5-17.033-5.593 1.694 1.271-3.898 5.593-1.695 7.034-23.898a1.28 1.28 0 0 1 1.271-.932h7.543a.975.975 0 0 1 .705.263.988.988 0 0 1 .311.686v.322l-5.932 20.169 5.594-1.695-1.187 4.068-5.678 1.61Z" fill="#345D9D"/><g filter="url(#i)"><rect x="419.464" y="436" width="114" height="114" rx="57" fill="#fff"/></g><path d="M476.464 458c19.332 0 35 15.671 35 35 0 19.332-15.668 35-35 35-19.329 0-35-15.67-35-35 0-19.329 15.671-35 35-35Z" fill="#F5AC37"/><path d="M477.477 495.291h12.497c.267 0 .393 0 .412-.344.102-1.251.102-2.51 0-3.763 0-.243-.123-.344-.391-.344h-24.871c-.308 0-.391.101-.391.385v3.601c0 .465 0 .465.493.465h12.251Zm11.513-8.659a.384.384 0 0 0 0-.283 7.958 7.958 0 0 0-.743-1.275 10.347 10.347 0 0 0-1.521-1.882 5.041 5.041 0 0 0-.946-.911 14.865 14.865 0 0 0-6.167-3.075 15.544 15.544 0 0 0-3.494-.364h-11.038c-.308 0-.349.121-.349.384v7.183c0 .303 0 .384.39.384h23.72s.206-.04.247-.161h-.1.001Zm0 12.868a4.859 4.859 0 0 0-1.051 0h-22.794c-.308 0-.412 0-.412.405v7.022c0 .324 0 .405.412.405h10.524a5.349 5.349 0 0 0 1.499-.1 15.903 15.903 0 0 0 4.462-.972 8.259 8.259 0 0 0 1.499-.688h.144a13.249 13.249 0 0 0 5.735-5.683s.144-.306-.018-.386v-.003Zm-28.388 11.473v-11.189c0-.264 0-.303-.328-.303h-4.461c-.247 0-.349 0-.349-.323v-3.845h4.768c.267 0 .37 0 .37-.344v-3.804c0-.243 0-.303-.328-.303h-4.461c-.247 0-.349 0-.349-.323v-3.561c0-.223 0-.282.328-.282h4.42c.308 0 .39 0 .39-.385v-10.906c0-.323 0-.405.412-.405h15.416a24 24 0 0 1 3.33.364 20.314 20.314 0 0 1 6.433 2.347 18.13 18.13 0 0 1 3.617 2.752 19.526 19.526 0 0 1 2.199 2.691 16.153 16.153 0 0 1 1.606 3.096.534.534 0 0 0 .614.425h3.68c.472 0 .472 0 .493.446v3.319c0 .323-.123.405-.453.405h-2.837c-.288 0-.37 0-.35.364a20.256 20.256 0 0 1 0 3.702c0 .344 0 .385.392.385h3.246c.144.182 0 .364 0 .547.021.235.021.472 0 .707v2.449c0 .344-.102.446-.411.446h-3.885a.514.514 0 0 0-.597.384 16.176 16.176 0 0 1-4.317 6.192 24.764 24.764 0 0 1-2.199 1.739c-.823.467-1.624.952-2.467 1.336a22.474 22.474 0 0 1-4.852 1.517c-1.586.28-3.195.406-4.81.385h-14.266v-.021l.006-.004Z" fill="#FEFEFD"/><g filter="url(#j)"><rect x="551.464" y="436" width="114" height="114" rx="57" fill="#fff"/></g><path d="M598.38 470.148c-.761-.11-.797-.146-.435-.183.689-.11 2.283.037 3.406.293 2.609.623 4.964 2.234 7.464 5.053l.653.769.942-.146c4.022-.659 8.153-.147 11.595 1.464.942.44 2.428 1.318 2.609 1.538.072.073.181.549.253 1.025.254 1.721.145 3.003-.398 3.992-.29.549-.29.695-.109 1.171.145.366.58.623.978.623.87 0 1.776-1.392 2.211-3.332l.181-.769.326.366c1.848 2.087 3.297 4.98 3.515 7.03l.072.55-.326-.476c-.543-.843-1.051-1.392-1.739-1.868-1.232-.842-2.537-1.098-5.979-1.281-3.116-.184-4.892-.44-6.631-1.026-2.971-.988-4.493-2.27-8.008-6.993-1.558-2.088-2.536-3.223-3.514-4.175-2.138-2.087-4.276-3.185-7.066-3.625Z" fill="#FF007A"/><path d="M625.375 474.798c.072-1.391.253-2.306.652-3.149.145-.329.29-.622.326-.622.036 0-.036.256-.145.549-.29.806-.326 1.941-.145 3.222.254 1.648.362 1.868 2.102 3.662a59.045 59.045 0 0 1 2.101 2.343l.616.806-.616-.586c-.761-.732-2.5-2.124-2.898-2.307-.254-.146-.29-.146-.472.037-.144.146-.181.366-.181 1.428-.036 1.648-.253 2.673-.797 3.735-.29.549-.326.439-.072-.183.181-.476.217-.696.217-2.27 0-3.186-.362-3.955-2.573-5.237-.543-.329-1.485-.805-2.029-1.061-.579-.257-1.014-.476-.978-.476.072-.074 2.21.549 3.044.915 1.268.513 1.485.549 1.63.513.109-.11.181-.403.218-1.319ZM599.865 480.254c-1.522-2.123-2.5-5.419-2.283-7.872l.072-.769.363.073c.652.11 1.775.549 2.319.879 1.449.879 2.101 2.087 2.717 5.09.182.878.435 1.904.544 2.233.181.549.869 1.831 1.449 2.636.399.586.145.879-.761.806-1.377-.146-3.225-1.428-4.42-3.076ZM623.527 496.182c-7.175-2.929-9.711-5.456-9.711-9.74 0-.622.036-1.135.036-1.135.036 0 .29.22.616.476 1.449 1.172 3.08 1.684 7.609 2.344 2.645.402 4.167.695 5.544 1.171 4.384 1.465 7.102 4.468 7.754 8.532.181 1.172.073 3.405-.217 4.577-.254.915-.978 2.6-1.16 2.636-.036 0-.108-.183-.108-.476-.073-1.538-.834-3.002-2.102-4.137-1.522-1.318-3.478-2.307-8.261-4.248ZM618.453 497.391a8.694 8.694 0 0 0-.362-1.538l-.181-.549.326.402c.471.55.833 1.209 1.159 2.124.254.696.254.916.254 2.051 0 1.098-.036 1.355-.254 1.977-.362.989-.797 1.684-1.521 2.453-1.305 1.355-3.008 2.088-5.436 2.417-.434.037-1.666.147-2.753.22-2.718.146-4.53.439-6.16 1.025-.218.073-.435.146-.471.11-.073-.073 1.05-.732 1.956-1.172 1.269-.622 2.573-.952 5.436-1.465 1.413-.219 2.862-.512 3.224-.659 3.588-1.135 5.363-3.954 4.783-7.396Z" fill="#FF007A"/><path d="M621.751 503.286c-.942-2.087-1.159-4.064-.652-5.932.072-.183.145-.366.217-.366.073 0 .29.11.508.257.434.293 1.34.805 3.659 2.087 2.935 1.611 4.602 2.856 5.762 4.284 1.014 1.245 1.63 2.673 1.92 4.43.181.989.072 3.369-.181 4.358-.797 3.112-2.609 5.602-5.254 7.03-.399.22-.725.366-.761.366-.036 0 .109-.366.326-.805.87-1.868.978-3.662.326-5.676-.399-1.245-1.232-2.746-2.899-5.273-1.993-2.929-2.464-3.698-2.971-4.76ZM594.756 514.491c2.681-2.27 5.979-3.881 9.022-4.394 1.305-.219 3.479-.146 4.675.183 1.92.513 3.659 1.611 4.565 2.966.87 1.318 1.268 2.454 1.667 4.98.145.989.326 2.014.362 2.234.29 1.318.87 2.343 1.595 2.892 1.123.843 3.08.879 5 .147.326-.11.616-.22.616-.183.072.073-.906.732-1.558 1.062-.906.476-1.631.622-2.609.622-1.739 0-3.225-.915-4.421-2.746-.253-.366-.761-1.428-1.195-2.417-1.269-2.966-1.921-3.844-3.406-4.833-1.305-.842-2.972-1.025-4.24-.403-1.667.806-2.101 2.966-.942 4.284.471.549 1.341.989 2.065 1.099 1.341.183 2.501-.879 2.501-2.234 0-.879-.327-1.391-1.196-1.794-1.16-.513-2.428.073-2.392 1.208 0 .476.218.769.689.989.29.146.29.146.072.11-1.051-.22-1.304-1.538-.471-2.38 1.015-1.026 3.153-.586 3.877.842.29.586.326 1.757.073 2.49-.616 1.611-2.355 2.453-4.131 1.977-1.196-.329-1.703-.659-3.152-2.16-2.537-2.637-3.515-3.149-7.139-3.699l-.688-.109.761-.733Z" fill="#FF007A"/><path fill-rule="evenodd" clip-rule="evenodd" d="M575.697 455.575c8.443 10.362 21.451 26.473 22.104 27.352.543.732.326 1.428-.58 1.941-.508.293-1.558.586-2.066.586-.579 0-1.268-.293-1.739-.769-.326-.33-1.739-2.417-4.928-7.434-2.427-3.844-4.493-7.03-4.529-7.067-.145-.073-.145-.073 4.276 7.91 2.79 5.016 3.696 6.81 3.696 7.03 0 .476-.145.732-.725 1.391-.978 1.099-1.413 2.344-1.739 4.944-.363 2.892-1.341 4.943-4.131 8.421-1.631 2.051-1.884 2.417-2.283 3.259-.507 1.026-.652 1.611-.725 2.93-.072 1.391.073 2.27.471 3.588.363 1.172.761 1.941 1.74 3.442.833 1.318 1.34 2.307 1.34 2.673 0 .293.073.293 1.377 0 3.116-.732 5.689-1.977 7.102-3.515.87-.952 1.087-1.465 1.087-2.783 0-.842-.036-1.025-.253-1.538-.363-.806-1.051-1.465-2.537-2.49-1.956-1.355-2.79-2.453-3.007-3.918-.181-1.245.036-2.087 1.123-4.394 1.123-2.38 1.413-3.369 1.594-5.785.109-1.538.29-2.161.725-2.637.471-.512.87-.695 1.993-.842 1.848-.256 3.044-.732 3.986-1.648.833-.768 1.195-1.537 1.232-2.673l.036-.842-.471-.512C598.163 480.217 574.574 454 574.465 454c-.036 0 .544.696 1.232 1.575Zm11.124 52.068a1.52 1.52 0 0 0-.471-2.014c-.616-.403-1.558-.219-1.558.33 0 .146.073.293.29.366.326.183.363.366.109.769s-.254.769.072 1.025c.508.403 1.196.183 1.558-.476ZM601.496 488.383c-.87.256-1.703 1.208-1.957 2.16-.145.586-.072 1.648.181 1.978.399.512.761.659 1.776.659 1.993 0 3.696-.879 3.877-1.941.181-.879-.58-2.087-1.631-2.636-.543-.293-1.666-.403-2.246-.22Zm2.319 1.831c.29-.44.181-.916-.362-1.245-.979-.623-2.464-.11-2.464.842 0 .476.761.989 1.485.989.471 0 1.124-.293 1.341-.586Z" fill="#FF007A"/><g filter="url(#k)"><rect x="683.464" y="436" width="114" height="114" rx="57" fill="#fff"/></g><path fill-rule="evenodd" clip-rule="evenodd" d="M759.637 507.08c7.637 0 13.827-6.311 13.827-14.097s-6.19-14.097-13.827-14.097c-7.636 0-13.826 6.311-13.826 14.097s6.19 14.097 13.826 14.097ZM742.166 473.595c3.682 0 6.667-3.043 6.667-6.797 0-3.755-2.985-6.798-6.667-6.798s-6.667 3.043-6.667 6.798c0 3.754 2.985 6.797 6.667 6.797ZM742.166 526c3.682 0 6.667-3.043 6.667-6.798 0-3.754-2.985-6.797-6.667-6.797s-6.667 3.043-6.667 6.797c0 3.755 2.985 6.798 6.667 6.798ZM737.502 489.165a4.673 4.673 0 0 1-.755-1.038s-3.252-6.965-14.385-2.478c-.591.301-1.182.569-1.774.77h-.032c-3.482 1.139-7.39.301-10.149-2.511-3.941-3.985-3.908-10.481 0-14.466 3.909-3.985 10.247-3.985 14.188.033a10.216 10.216 0 0 1 2.628 4.722s2.693 10.581 11.691 8.036c.197-.1.427-.167.624-.201h.033a4.048 4.048 0 0 1 3.81 1.139c1.642 1.641 1.642 4.32 0 5.994-1.609 1.674-4.237 1.674-5.879 0Zm2.858 14.199c-.427 0-.854-.067-1.248-.201 0 0-7.127-2.545-11.922 8.672a10.936 10.936 0 0 1-.722 1.809v.033c-1.643 3.282-5.025 5.525-8.901 5.525-5.55 0-10.049-4.587-10.049-10.246 0-5.659 4.499-10.247 10.049-10.247 1.905 0 3.646.536 5.157 1.44 0 0 9.228 5.525 13.826-2.746a1.86 1.86 0 0 1 .296-.569v-.034c.755-1.172 2.036-1.942 3.514-1.942 2.299 0 4.171 1.909 4.171 4.253 0 2.344-1.872 4.253-4.171 4.253Z" fill="#2B5EBA"/><g filter="url(#l)"><rect x="815.464" y="436" width="114" height="114" rx="57" fill="#fff"/></g><path d="M897.27 482.467c-2.515-2.294-5.995-5.797-8.829-8.281l-.167-.116a3.211 3.211 0 0 0-.931-.514c-6.833-1.258-38.635-7.13-39.256-7.055-.173.024-.34.086-.486.182l-.159.124a1.852 1.852 0 0 0-.436.696l-.042.107V468.289c3.58 9.847 17.716 42.102 20.5 49.671.167.513.486 1.49 1.081 1.54h.134c.319 0 1.677-1.772 1.677-1.772s24.282-29.084 26.738-32.181c.318-.381.599-.792.839-1.225a1.976 1.976 0 0 0-.663-1.855Zm-20.684 3.387 10.363-8.488 6.079 5.531-16.442 2.957Zm-4.025-.555-17.842-14.442 28.868 5.258-11.026 9.184Zm1.61 3.784 18.261-2.906-20.877 24.843 2.616-21.937Zm-21.875-16.785 18.773 15.734-2.717 23.005-16.056-38.739Z" fill="#FF060A"/><g filter="url(#m)"><rect x="60.464" y="568" width="114" height="114" rx="57" fill="#fff"/></g><path d="M117.464 660c19.396 0 35-15.604 35-35s-15.604-35-35-35-35 15.604-35 35 15.604 35 35 35Z" fill="#2775CA"/><path fill-rule="evenodd" clip-rule="evenodd" d="M98.848 618.087c-3.857 10.237 1.462 21.803 11.834 25.526.399.266.798.797.798 1.196v1.862c0 .266 0 .399-.133.531-.133.532-.665.798-1.197.532-7.446-2.393-13.164-8.11-15.558-15.555-3.989-12.63 2.926-26.058 15.558-30.046.133-.133.399-.133.532-.133.532.133.798.532.798 1.063v1.862c0 .665-.266 1.063-.798 1.329-5.452 1.994-9.84 6.249-11.834 11.833Zm24.733-15.422c.132-.532.664-.798 1.196-.532 7.314 2.393 13.165 8.11 15.558 15.688 3.989 12.63-2.925 26.058-15.558 30.046-.133.133-.398.133-.532.133-.532-.133-.797-.532-.797-1.063v-1.862c0-.665.265-1.063.797-1.329 5.452-1.994 9.84-6.249 11.835-11.833 3.856-10.237-1.463-21.803-11.835-25.526-.398-.266-.797-.797-.797-1.329v-1.861c0-.267 0-.399.133-.532Zm-5.943 20.155c5.531.66 8.297 2.246 8.297 6.871 0 3.568-2.634 6.343-6.585 7.004v3.171c-.132.661-.527 1.057-1.054 1.057h-1.975c-.658-.132-1.054-.529-1.054-1.057v-3.171c-4.345-.661-6.453-3.04-6.979-6.343v-.132c0-.529.395-.926.921-.926h2.239c.395 0 .791.265.922.793.395 1.982 1.58 3.436 5.005 3.436 2.502 0 4.346-1.453 4.346-3.568 0-2.114-1.186-2.907-4.873-3.567-5.531-.661-8.165-2.379-8.165-6.74 0-3.303 2.502-5.946 6.453-6.475v-3.039c.131-.661.527-1.057 1.053-1.057h1.976c.658.132 1.053.528 1.053 1.057v3.172c3.029.264 5.4 2.51 5.927 5.417v.132a.901.901 0 0 1-.922.925h-2.107a.991.991 0 0 1-.922-.66c-.659-1.982-1.976-2.775-4.346-2.775-2.634 0-3.951 1.189-3.951 3.039s.79 2.907 4.741 3.436Z" fill="#fff"/><g filter="url(#n)"><rect x="192.464" y="568" width="114" height="114" rx="57" fill="#fff"/></g><path d="M265.473 595.751a45.077 45.077 0 0 0-4.904 5.918l-.462-.153a33.065 33.065 0 0 0-8.215-1.619c-.839-.066-3.968-.066-4.989 0-3.086.208-5.452.678-8.14 1.63a4.528 4.528 0 0 1-.301.109 44.262 44.262 0 0 0-5.065-5.874 34.658 34.658 0 0 1 28.71-1.543c1 .383 1.979.832 2.936 1.313l.43.219ZM282.118 637.241a34.304 34.304 0 0 1-6.022 10.742 37.68 37.68 0 0 1-4.709 4.693 34.515 34.515 0 0 1-13.581 6.815 35.014 35.014 0 0 1-16.688 0 34.442 34.442 0 0 1-13.581-6.815 37.68 37.68 0 0 1-4.709-4.693c-7.581-9.112-9.882-21.626-6.022-32.904a35.997 35.997 0 0 1 2.742-6.016c.505-.875 1.129-1.86 1.43-2.264a114.907 114.907 0 0 0 2.774 9.921 2.43 2.43 0 0 1-.118.241c-2.505 5.163-3.86 10.14-4.183 15.434 0 .066-.011.143-.011.208-.086 1.586-.043 2.341.215 3.337.807 3.117 3.291 6.552 7.183 9.921 6.377 5.513 15.022 9.495 21.57 9.955 6.828.47 16.903-3.588 23.613-9.517a34.08 34.08 0 0 0 2.968-3.03c.666-.788 1.656-2.144 1.58-2.144-.021 0 0-.022.043-.044.033-.022.065-.055.043-.077-.01-.011.011-.043.043-.054.033-.011.054-.033.043-.055-.01-.022 0-.044.044-.055.032-.011.043-.044.032-.065-.011-.022 0-.044.021-.044.022 0 .043-.033.043-.055s.022-.055.043-.055a.045.045 0 0 0 .043-.043c.033-.088.086-.175.14-.252.161-.251.807-1.422.893-1.619.612-1.411 1-2.669 1.182-3.927.086-.602.14-1.706.097-1.969-.011-.044-.011-.12-.021-.241-.022-.218-.033-.546-.054-.875a38.99 38.99 0 0 0-.097-1.52c-.462-4.966-1.71-9.025-4.075-13.324a3.84 3.84 0 0 1-.237-.459c-.021-.033-.032-.066-.043-.088a115.365 115.365 0 0 0 2.785-10.14l.022.022.161.219c.28.383 1.021 1.52 1.355 2.067a34.714 34.714 0 0 1 3.537 8.04 34.695 34.695 0 0 1-.494 20.729Z" fill="#F00500"/><path d="M268.161 624.17c-.032.175-.538.7-1.043 1.083-1.484 1.105-4.14 2.133-6.839 2.625-1.538.285-3.075.329-3.538.099-.301-.153-.344-.274-.236-.668.226-.82.957-1.717 2.097-2.56.58-.426 2.935-1.881 4.032-2.494 1.806-1.006 3.269-1.608 4.258-1.75.312-.044.688-.055.806 0 .194.076.409.656.495 1.356.043.372.022 2.013-.032 2.309ZM242.827 627.791c-.064.131-.387.273-.752.328-.366.055-1.484.022-2.118-.055-2.28-.306-4.699-1.017-6.463-1.892-.989-.492-1.699-.985-2.226-1.521l-.301-.317-.032-.416c-.054-.722-.043-1.86.043-2.264.054-.339.172-.668.333-.963.086-.109.086-.109.473-.109.474 0 .871.076 1.517.284 1.322.416 3.29 1.422 5.688 2.888 1.978 1.204 2.72 1.794 3.29 2.604.387.503.645 1.214.548 1.433ZM258.053 643.017c0 .033-.129.558-.29 1.181-.161.624-.29 1.127-.29 1.149-.119.011-.226.022-.344.011h-.345l-.473 1.137c-.258.624-.494 1.204-.527 1.291l-.064.153-.226-.372-.226-.372v-3.03l-.086.022c-.182.044-1.484.219-2.053.274-2.355.24-4.721.186-7.065-.154-.376-.054-.699-.098-.71-.087-.01.011 0 .711.022 1.575l.032 1.553-.183.285c-.096.153-.193.284-.193.295-.032.033-.14-.142-.387-.645a7.423 7.423 0 0 1-.602-1.663l-.076-.317-.333.022-.333.033-.086-.405a12.177 12.177 0 0 1-.119-.744l-.032-.35-.28-.252c-.161-.142-.322-.284-.354-.306-.054-.044-.076-.12-.076-.186v-.131l1.344.011 1.345.011.043.142.043.142.462.022c.258.011 1.075.033 1.806.055l1.344.033.345-.547.354-.547h.452l-.011-1.138-.01-1.138-.592-.262c-1.903-.853-3.021-1.827-3.441-3.008-.086-.241-.086-.328-.107-1.422-.011-1.083-.011-1.182.064-1.422.151-.547.57-.974 1.108-1.116.183-.055.666-.055 3.204-.055l2.989.011.334.164c.397.197.58.339.806.646.258.35.333.623.333 1.29 0 .952-.064 1.772-.161 2.101-.14.448-.355.875-.624 1.258-.537.7-1.516 1.4-2.408 1.717l-.258.098.011 1.149.01 1.149.237.021.236.022.323.493.312.492h1.441c.795 0 1.494.011 1.559.022.107.022.129.011.236-.175l.129-.197h1.237c.925-.044 1.204-.022 1.204.011Z" fill="#000"/><path d="M252.376 646.156c-.204.121-.344.175-.376.154-.033-.011-.183-.143-.344-.263l-.291-.241-.301.329c-.656.722-.677.754-.871.765-.301.033-.365-.022-.731-.579-.194-.285-.344-.526-.344-.526s-.14-.021-.301-.032l-.301-.033-.14.295-.14.296-.247-.077a5.141 5.141 0 0 1-.57-.23l-.323-.164v-.623l2.861.01 2.86.011.011.296c.01.35.021.339-.452.612Z" fill="#000"/><path d="M279.258 632.811c-.011-.044-.011-.12-.022-.241-2.581-.284-9.946-.459-16.785 5.284 0 0-2.204-10.283-12.527-10.283-10.322 0-14.15 10.283-14.15 10.283-5.785-6.334-13.527-5.874-16.323-5.459 0 .066-.011.143-.011.208-.086 1.586-.043 2.341.215 3.337.807 3.117 3.291 6.552 7.183 9.921 6.377 5.513 15.022 9.495 21.57 9.954 6.828.471 16.903-3.588 23.613-9.516a34.08 34.08 0 0 0 2.968-3.03c.666-.788 1.656-2.144 1.58-2.144-.021 0 0-.022.043-.044.033-.022.065-.055.043-.077-.01-.011.011-.044.043-.054.033-.011.054-.033.043-.055-.01-.022 0-.044.044-.055.032-.011.043-.044.032-.066-.011-.021 0-.043.021-.043.022 0 .043-.033.043-.055s.022-.055.043-.055c.022 0 .043-.022.043-.043.033-.088.086-.175.14-.252a29.11 29.11 0 0 0 .893-1.619c.612-1.411 1-2.669 1.182-3.927.065-.602.119-1.706.076-1.969Zm-26.882 13.345c-.204.121-.344.175-.376.154-.033-.011-.183-.143-.345-.263l-.29-.241-.301.329c-.656.721-.677.754-.871.765-.301.033-.365-.022-.731-.58-.194-.284-.344-.525-.344-.525s-.14-.021-.301-.032l-.301-.033-.14.295-.14.295-.247-.076a5.141 5.141 0 0 1-.57-.23l-.323-.164v-.623l2.861.011 2.86.01.011.296c.01.35.021.339-.452.612Zm5.376-1.969c-.161.624-.29 1.127-.29 1.149-.118.011-.226.022-.344.011h-.344l-.463 1.149c-.258.623-.494 1.203-.527 1.29l-.064.153-.226-.371-.226-.372v-3.03l-.086.021c-.182.044-1.484.219-2.053.274a28.804 28.804 0 0 1-7.065-.153c-.376-.055-.699-.099-.71-.088-.01.011 0 .711.022 1.575l.032 1.554-.183.284c-.096.153-.193.285-.193.295-.032.033-.14-.142-.387-.645a7.423 7.423 0 0 1-.602-1.663l-.076-.317-.333.022-.333.033-.086-.405a12.177 12.177 0 0 1-.119-.744l-.032-.35-.28-.251a9.766 9.766 0 0 0-.354-.307c-.054-.043-.076-.12-.076-.186v-.131l1.344.011 1.345.011.043.142.043.142.462.022c.258.011 1.075.033 1.806.055l1.344.033.345-.547.354-.547h.452l-.011-1.138-.01-1.137-.592-.263c-1.903-.853-3.021-1.827-3.441-3.008-.086-.241-.086-.328-.107-1.422-.011-1.083-.011-1.182.064-1.422.151-.547.57-.974 1.108-1.116.183-.055.666-.055 3.204-.055l2.989.011.334.164c.398.197.58.339.806.646.258.35.333.623.333 1.291 0 .951-.064 1.772-.161 2.1-.14.448-.355.875-.624 1.258-.537.7-1.516 1.4-2.408 1.717l-.258.099.011 1.148.01 1.149.237.022.236.022.323.492.312.492h1.441c.795 0 1.494.011 1.559.022.107.022.129.011.236-.175l.129-.197h1.237c.957 0 1.237.011 1.237.044-.033-.011-.172.525-.334 1.137Z" fill="#fff"/><path d="M279.172 631.695a38.99 38.99 0 0 0-.097-1.52c-.463-4.966-1.71-9.025-4.075-13.324a3.84 3.84 0 0 1-.237-.459c-.021-.033-.032-.066-.043-.088a115.742 115.742 0 0 0 2.785-10.14c1.473-6.607 2.409-14.33-.452-16.649 0 0-4.946-.372-11.57 6.235a45.15 45.15 0 0 0-4.903 5.918l-.462-.153a33.065 33.065 0 0 0-8.215-1.619c-.839-.066-3.968-.066-4.989 0-3.086.208-5.452.678-8.14 1.63-.108.044-.205.076-.301.109a44.335 44.335 0 0 0-5.065-5.874c-6.892-6.64-12.021-6.257-12.021-6.257-3.033 2.396-2 10.469-.43 17.294a114.852 114.852 0 0 0 2.774 9.922 2.443 2.443 0 0 1-.119.241c-2.505 5.163-3.86 10.14-4.182 15.434 2.806-.415 10.537-.886 16.333 5.459 0 0 3.828-10.283 14.151-10.283 10.322 0 12.526 10.283 12.526 10.283 6.839-5.743 14.205-5.557 16.785-5.284-.01-.218-.032-.547-.053-.875Zm-53.409-19.099s-4.021-10.228-2.989-16.069c.172-.985.494-1.849 1-2.505 0 0 4.559.459 11.914 8.773 0 0-1.398.689-3.269 2.155 0 0-.011.011-.022.011-2.032 1.586-4.634 4.102-6.634 7.635Zm17.065 15.194c-.065.131-.388.274-.753.328-.366.055-1.484.022-2.118-.054-2.28-.307-4.699-1.018-6.463-1.893-.989-.492-1.699-.984-2.226-1.52l-.301-.318-.032-.415c-.054-.722-.043-1.86.043-2.265.054-.339.172-.667.333-.962.086-.11.086-.11.474-.11.473 0 .87.077 1.516.285 1.322.415 3.29 1.422 5.688 2.888 1.978 1.203 2.72 1.794 3.29 2.603.387.503.645 1.214.549 1.433Zm25.333-3.621c-.032.175-.538.7-1.043 1.083-1.484 1.105-4.14 2.133-6.839 2.626-1.537.284-3.075.328-3.537.098-.302-.153-.345-.273-.237-.667.226-.821.957-1.718 2.097-2.56.58-.427 2.935-1.881 4.032-2.494 1.806-1.006 3.269-1.608 4.258-1.75.312-.044.688-.055.807 0 .193.076.408.656.494 1.356.043.372.022 2.013-.032 2.308Zm-1.785-19.219-.022-.011c-1.806-1.466-3.161-2.155-3.161-2.155 7.108-8.314 11.506-8.773 11.506-8.773.483.667.795 1.52.967 2.505 1 5.841-2.881 16.08-2.881 16.08a25.941 25.941 0 0 0-6.409-7.646Z" fill="#FFA409"/><path d="M275.677 596.516c-.839-.11-4.806-.132-9.301 8.434l-.022-.011c-1.806-1.466-3.161-2.155-3.161-2.155 7.108-8.314 11.505-8.773 11.505-8.773.495.667.807 1.52.979 2.505Z" fill="#FF9300"/><path d="M272.795 612.596a25.82 25.82 0 0 0-6.419-7.646c4.495-8.565 8.452-8.544 9.301-8.434 1 5.852-2.882 16.08-2.882 16.08ZM275.838 596.549l-.161-.033.161.033Z" fill="#FF8300"/><path d="M235.688 602.784s-1.398.689-3.269 2.155c0 0-.011.011-.022.011-4.656-8.576-8.752-8.544-9.634-8.434.172-.985.495-1.849 1-2.505.011 0 4.57.459 11.925 8.773Z" fill="#FF9300"/><path d="M232.408 604.95c-2.043 1.597-4.645 4.102-6.645 7.646 0 0-4.022-10.228-2.989-16.08.871-.11 4.978-.131 9.634 8.434ZM222.774 596.516l-.172.033.172-.033Z" fill="#FF8300"/><path d="M261.914 618.273s-3.441.219-3.011-2.516c.43-2.735 3.118-3.063 3.871-2.954.752.11 3.763 1.204 3.226 3.501-.538 2.298-1.291 1.86-1.721 1.969-.43.11-2.365 0-2.365 0ZM236.537 618.273s-3.441.219-3.011-2.516c.431-2.735 3.119-3.063 3.871-2.954.753.11 3.764 1.204 3.226 3.501-.537 2.298-1.29 1.86-1.72 1.969-.43.11-2.366 0-2.366 0Z" fill="#fff"/><g filter="url(#o)"><rect x="324.464" y="568" width="114" height="114" rx="57" fill="#fff"/></g><path d="m381.464 594.22-5.549 3.187-15.122 8.73-5.549 3.188v30.21l5.549 3.187 15.26 8.73 5.55 3.188 5.549-3.188 14.983-8.73 5.549-3.187v-30.21l-5.549-3.188-15.122-8.73-5.549-3.187Zm-15.122 38.94v-17.461l15.122-8.73 15.121 8.73v17.461l-15.121 8.731-15.122-8.731Z" fill="#2A5ADA"/><g filter="url(#p)"><rect x="456.464" y="568" width="114" height="114" rx="57" fill="#fff"/></g><path d="M513.463 660c19.33 0 35-15.67 35-35s-15.67-35-35-35-35 15.67-35 35 15.67 35 35 35Z" fill="#0AC18E"/><path d="M524.183 614.378c-1.631-3.674-5.379-4.46-9.966-3.699L512.742 605l-3.475.892 1.449 5.663c-.914.229-1.853.425-2.784.687l-1.449-5.63-3.476.892 1.474 5.679c-.749.213-7.017 1.809-7.017 1.809l.955 3.699s2.554-.712 2.529-.655c1.416-.368 2.084.336 2.397.998l4.052 15.565c.049.45-.033 1.219-1.005 1.481.058.033-2.528.647-2.528.647l.378 4.312s6.211-1.579 7.026-1.784l1.491 5.745 3.476-.892-1.491-5.786c.955-.221 1.886-.45 2.792-.687l1.482 5.753 3.476-.892-1.491-5.737c5.354-1.293 9.134-4.648 8.36-9.779-.494-3.093-3.896-5.63-6.721-5.916 1.738-1.53 2.62-3.764 1.541-6.686Zm-1.672 13.543c.691 5.082-6.417 5.704-8.764 6.318l-2.042-7.602c2.355-.614 9.636-3.192 10.806 1.284Zm-4.283-10.351c.733 4.517-5.346 5.04-7.306 5.54l-1.861-6.899c1.968-.483 7.676-2.823 9.167 1.359Z" fill="#fff"/><g filter="url(#q)"><rect x="588.464" y="568" width="114" height="114" rx="57" fill="#fff"/></g><rect x="610.464" y="590" width="70" height="70" rx="35" fill="url(#r)"/><path d="m665.276 643.081-15.282-37.218c-.862-1.924-2.143-2.863-3.832-2.863h-1.351c-1.689 0-2.97.939-3.832 2.863l-6.651 16.215h-5.032a2.766 2.766 0 0 0-2.737 2.758v.035c.011 1.514 1.234 2.746 2.737 2.757h2.702l-6.348 15.453c-.116.34-.186.692-.186 1.056 0 .868.268 1.549.745 2.077.478.528 1.165.786 2.027.786a2.698 2.698 0 0 0 1.572-.528c.49-.34.827-.833 1.095-1.396l6.989-17.459h4.846a2.768 2.768 0 0 0 2.737-2.758v-.07c-.012-1.514-1.235-2.746-2.737-2.758h-2.586l5.334-13.387 14.537 36.42c.268.563.606 1.056 1.095 1.396a2.712 2.712 0 0 0 1.572.528c.862 0 1.538-.258 2.027-.786.489-.528.745-1.208.745-2.077a2.468 2.468 0 0 0-.186-1.044Z" fill="#fff"/><g filter="url(#s)"><rect x="720.464" y="568" width="114" height="114" rx="57" fill="#fff"/></g><path d="M777.464 660c19.513 0 35-15.796 35-35 0-19.513-15.797-35-35-35-19.513 0-35 15.796-35 35s15.796 35 35 35Z" fill="#2C374B"/><path d="m795.306 631.019-9.474-14.574-3.474 5.703 9.158 14.891 4.105-1.901-.315-4.119ZM790.885 638.939l-9.474-14.574-4.105 6.337 7.579 12.039 4.737-1.901 1.263-1.901Z" fill="#24A2EE"/><path fill-rule="evenodd" clip-rule="evenodd" d="m759.938 614.545 17.368-10.139 17.368 10.139v20.277l-17.368 10.138-12.947-7.287-.029 3.283 12.66 7.806c.316.317.632.317.948 0l19.894-11.406c.316-.316.632-.633.632-.95v-22.812c0-.317-.316-.634-.632-.95l-19.894-11.406c-.316-.317-.632-.317-.948 0l-19.895 11.089c-.315.317-.631.633-.631.95v22.812c0 .317.316.634.631.951l3.991 2.289 1.622-3.255-2.455-1.252v-20.277h-.315Z" fill="#98BCDC"/><path d="M784.885 614.788h-6.632l-15.473 25.347 5.368 3.168 16.737-28.515ZM768.148 617.079c1.579-2.535 6-2.535 7.895-2.218l-14.957 24.469c-.632-.317-2.096-1.023-3.043-1.657-1.263-.634-1.579-.634-1.579-1.584v-1.267c3.474-5.07 10.105-15.208 11.684-17.743Z" fill="#fff"/><g filter="url(#t)"><rect x="852.464" y="568" width="114" height="114" rx="57" fill="#fff"/></g><path fill-rule="evenodd" clip-rule="evenodd" d="M874.464 625c0-19.377 15.623-35 35-35 19.256 0 35 15.623 35 35 0 19.377-15.623 35-35 35-19.377 0-35-15.623-35-35Zm34.758 21.678c6.055 0 11.989-2.543 16.107-7.145.121-.242.242-.485.363-.606-.121-.363-.242-.605-.484-.726l-2.543-1.696c-.243-.121-.485-.242-.727-.242-.363 0-.727.121-.969.363-3.149 3.149-7.266 4.845-11.626 4.845-.727 0-1.332 0-1.938-.122-7.509-.847-13.564-6.903-14.412-14.411-.605-4.723.848-9.326 3.997-12.838 3.028-3.512 7.508-5.571 12.232-5.571 3.27 0 6.539.969 9.325 2.907.121.121.484.242.727.242.363 0 .726-.121.968-.363l2.301-2.059c.243-.242.364-.484.364-.848 0-.242-.121-.605-.364-.726-3.875-3.028-8.477-4.602-13.321-4.602-.848 0-1.696 0-2.544.121-10.052 1.211-18.045 9.204-19.135 19.256-.605 6.297 1.212 12.232 5.45 16.955a21.85 21.85 0 0 0 16.229 7.266Zm12.353-29.429c0 2.907 2.422 5.329 5.328 5.329 2.907 0 5.329-2.422 5.329-5.329 0-2.906-2.422-5.329-5.329-5.329-2.906 0-5.328 2.423-5.328 5.329Zm7.889-.049a2.5 2.5 0 1 1-5 0 2.5 2.5 0 0 1 5 0Z" fill="#262761"/><g filter="url(#u)"><rect x="177.464" y="172" width="114" height="114" rx="57" fill="#fff"/></g><circle cx="234.464" cy="229" r="35" fill="#C2A633"/><path fill-rule="evenodd" clip-rule="evenodd" d="M222.942 247.428H235.053s17.028 1.45 17.028-18.054c0-18.748-15.55-18.682-18.555-18.669h-10.584v16.359h-4.269v4.007h4.269v16.357Zm6.822-29.935h4.777c1.787 0 10.778.731 10.793 12.013.014 11.147-9.051 11.136-10.509 11.134h-5.061v-9.57h7.517v-4.007h-7.517v-9.57Z" fill="#fff"/><g filter="url(#v)"><rect x="309.464" y="172" width="114" height="114" rx="57" fill="#fff"/></g><circle cx="366.464" cy="229" r="35" fill="#fff"/><path d="M366.464 264c-19.331 0-35-15.669-35-35s15.669-35 35-35 35 15.669 35 35-15.669 35-35 35Zm15.468-52.5-.004.002-10.004 9.892a7.78 7.78 0 0 1-10.929 0l-9.346-9.25a2.226 2.226 0 0 0-1.567-.644c-1.989 0-2.98 2.411-1.566 3.81l9.318 9.221a12.299 12.299 0 0 0 17.26 0l8.667-8.583c1.651-1.634.494-4.448-1.829-4.448Zm-31.01 36.23h.001l10.081-9.98a7.779 7.779 0 0 1 10.929 0l9.422 9.336c.417.414.98.646 1.568.646 1.989 0 2.981-2.411 1.566-3.811l-9.395-9.299a12.296 12.296 0 0 0-17.26 0l-10.055 9.951c-1.172 1.159-.351 3.156 1.298 3.156h1.844l.001.001Z" fill="#000"/><g filter="url(#w)"><rect x="441.464" y="172" width="114" height="114" rx="57" fill="#fff"/></g><circle cx="498.464" cy="229" r="35" fill="#000"/><path d="m517.268 239.095-6.273 6.928a1.443 1.443 0 0 1-1.066.477h-29.737a.711.711 0 0 1-.399-.123.745.745 0 0 1-.269-.328.76.76 0 0 1 .136-.811l6.277-6.928a1.429 1.429 0 0 1 1.063-.477h29.736c.141 0 .28.043.399.123s.212.194.269.328a.778.778 0 0 1-.136.811Zm-6.273-13.952a1.454 1.454 0 0 0-1.066-.476h-29.737a.704.704 0 0 0-.399.123.745.745 0 0 0-.269.328.757.757 0 0 0 .136.81l6.277 6.929a1.428 1.428 0 0 0 1.063.476h29.736c.141 0 .28-.042.399-.122a.754.754 0 0 0 .318-.755.755.755 0 0 0-.185-.384l-6.273-6.929Zm-30.803-4.976h29.737c.2 0 .398-.042.581-.124a1.47 1.47 0 0 0 .485-.353l6.273-6.928a.775.775 0 0 0 .136-.811.745.745 0 0 0-.269-.328.716.716 0 0 0-.399-.123H487c-.199 0-.397.043-.579.125a1.46 1.46 0 0 0-.484.352l-6.276 6.928a.764.764 0 0 0 .132 1.138c.119.08.257.123.399.124Z" fill="url(#x)"/><g filter="url(#y)"><rect x="573.464" y="172" width="114" height="114" rx="57" fill="#fff"/></g><circle cx="630.464" cy="229" r="35" fill="#fff"/><path fill-rule="evenodd" clip-rule="evenodd" d="M665.464 229c0 19.33-15.67 35-35 35s-35-15.67-35-35 15.67-35 35-35 35 15.67 35 35Zm-44.918 13.928h-6.793c-1.427 0-2.132 0-2.562-.275a1.724 1.724 0 0 1-.782-1.35c-.026-.507.326-1.126 1.031-2.364l16.772-29.563c.714-1.255 1.075-1.883 1.53-2.115a1.733 1.733 0 0 1 1.565 0c.456.232.817.86 1.531 2.115l3.448 6.019.017.031c.771 1.347 1.162 2.03 1.333 2.746a5.112 5.112 0 0 1 0 2.391c-.172.722-.559 1.41-1.342 2.777l-8.809 15.573-.023.04c-.776 1.358-1.169 2.046-1.714 2.565a5.133 5.133 0 0 1-2.09 1.213c-.713.197-1.513.197-3.112.197Zm17.153 0h9.733c1.436 0 2.158 0 2.589-.283.464-.301.756-.809.782-1.359.025-.49-.32-1.086-.996-2.252a6.503 6.503 0 0 1-.07-.121l-4.876-8.34-.055-.094c-.685-1.159-1.031-1.744-1.475-1.97a1.714 1.714 0 0 0-1.556 0c-.447.232-.808.843-1.522 2.072l-4.858 8.341-.017.028c-.711 1.228-1.066 1.841-1.041 2.345.035.55.318 1.057.783 1.358.421.275 1.143.275 2.579.275Z" fill="#E84142"/><g filter="url(#z)"><rect x="705.464" y="172" width="114" height="114" rx="57" fill="#fff"/></g><path d="M762.464 264c19.33 0 35-15.67 35-35s-15.67-35-35-35-35 15.67-35 35 15.67 35 35 35Z" fill="#00EF8B"/><path d="M778.494 222.84h-9.87v9.87h9.87v-9.87ZM758.754 236.42c0 2.03-1.68 3.71-3.71 3.71-2.03 0-3.71-1.68-3.71-3.71 0-2.03 1.68-3.71 3.71-3.71h3.71v-9.87h-3.71c-7.49 0-13.58 6.09-13.58 13.58s6.09 13.58 13.58 13.58 13.58-6.09 13.58-13.58v-3.71h-9.87v3.71Z" fill="#fff"/><path d="M772.334 217.87h11.13V208h-11.13c-7.49 0-13.581 6.09-13.581 13.58v1.26h9.871v-1.26c0-2.03 1.68-3.71 3.71-3.71Z" fill="#fff"/><path d="M768.624 222.84h-9.871v9.87h9.871v-9.87Z" fill="#16FF99"/><g filter="url(#A)"><rect x="837.464" y="172" width="114" height="114" rx="57" fill="#fff"/></g><circle cx="894.464" cy="229" r="35" fill="#fff"/><path d="M913.559 241.109c2.53 3.395 5.139 6.869 7.749 10.342-5.219 6.159-11.702 10.106-19.53 11.764-8.697 1.816-16.92.474-24.905-3.947 7.116-5.29 14.074-10.501 21.11-15.711 1.582 1.5 3.084 3 4.586 4.421 1.66 1.579 1.028 1.658 3.163.473 2.925-1.658 5.376-3.947 7.274-6.71.079-.158.237-.316.316-.474-.079 0 0 0 .237-.158Zm-31.072 6.948c-1.977 1.5-3.796 2.842-5.614 4.263-1.344 1.026-2.688 1.974-4.032 3-.554.474-.949.474-1.582-.079-6.009-5.368-9.804-12-11.227-19.895-1.423-7.974-.158-15.553 3.637-22.738.079-.158.237-.395.316-.552 0-.079.079-.079.237-.158 5.219 6.868 10.516 13.737 15.734 20.606-.158.236-.237.394-.395.552-1.581 1.658-3.163 3.316-4.823 4.895-.474.474-.553.869-.237 1.421 1.66 3.158 3.953 5.764 6.8 7.895.395.237.711.474 1.186.79Zm29.491-49.028c-2.53 1.816-5.06 3.631-7.59 5.368-4.349 3.079-8.698 6.237-12.967 9.316-.554.395-.949.474-1.423-.078-1.423-1.501-2.926-2.843-4.349-4.343-.395-.394-.791-.473-1.344-.237-3.4 1.737-6.088 4.185-8.302 7.264-.158.158-.316.395-.474.631-1.265-1.658-2.451-3.158-3.637-4.737-1.265-1.658-2.451-3.315-3.637-4.894-.396-.553-.475-.948.079-1.501 6.088-6.71 13.599-10.658 22.613-11.605 7.115-.79 13.915.631 20.24 4.026.237.158.475.237.712.395 0 .237 0 .316.079.395Zm12.888 47.37c-1.661-2.132-3.163-4.106-4.665-6.079-3.479-4.58-6.958-9.238-10.516-13.817-.474-.631-.474-1.026.079-1.579 1.502-1.5 2.925-3 4.428-4.5.395-.395.553-.789.237-1.342-1.74-3.316-4.111-6.079-7.195-8.29-.237-.158-.474-.394-.791-.552.238-.237.475-.395.633-.553 3.004-2.29 6.009-4.5 9.013-6.79.475-.394.87-.552 1.423 0 7.512 6.79 11.544 15.238 11.939 25.422.158 5.921-1.186 11.527-3.874 16.817a5.95 5.95 0 0 0-.711 1.263Z" fill="#231815"/><g filter="url(#B)"><rect x="137.464" y="40" width="114" height="114" rx="57" fill="#fff"/></g><circle cx="194.464" cy="97" r="35" fill="#0033AD"/><path d="M193.912 76.124c.981-.516 2.178.682 1.657 1.672-.303.807-1.45 1.021-2.037.406-.621-.59-.418-1.757.38-2.078Zm-10.549 1.149c.595-.248 1.35.304 1.289.96.063.712-.799 1.236-1.406.897-.805-.315-.713-1.634.117-1.857Zm21.606 1.877c-.931-.113-1.079-1.592-.182-1.89.695-.342 1.333.3 1.434.966-.145.568-.617 1.088-1.252.924Zm-19.206 2.658c.996-.636 2.417.311 2.264 1.48-.052 1.18-1.603 1.864-2.479 1.066-.846-.626-.718-2.064.215-2.546Zm15.206.675c.444-1.156 2.245-1.191 2.751-.065.5.876-.115 1.961-1.006 2.26-1.18.222-2.301-1.067-1.745-2.195Zm-8.328 2.129c-.009-.995.887-1.736 1.823-1.803.621.125 1.297.392 1.563 1.025.496.872.056 2.074-.841 2.474-.41.232-.894.145-1.341.118-.682-.338-1.257-1.002-1.204-1.814Zm-15.688 1.448c.91-.565 2.138.467 1.793 1.465-.189.864-1.339 1.215-1.996.664-.701-.517-.59-1.759.203-2.129Zm33.689-.001c.772-.606 2.045.089 1.953 1.073.052.898-1.049 1.575-1.816 1.113-.844-.383-.93-1.695-.137-2.186Zm-13.589 1.787c1.274-.462 2.787.091 3.513 1.238.958 1.403.449 3.539-1.038 4.343-1.54.952-3.789.145-4.358-1.592-.645-1.555.295-3.501 1.883-3.989Zm-7.474.153c1.412-.673 3.312-.108 3.994 1.35.802 1.42.182 3.398-1.253 4.131-1.437.824-3.463.2-4.159-1.325-.779-1.475-.087-3.477 1.418-4.156Zm-7.484 2.585c.107-.92.965-1.517 1.831-1.579a2.027 2.027 0 0 1 1.779 1.8c-.061.943-.783 1.866-1.774 1.86-1.089.095-2.045-1-1.836-2.081Zm22.105-1.38c1.119-.657 2.673.3 2.623 1.599.077 1.375-1.643 2.344-2.757 1.538-1.157-.672-1.067-2.564.134-3.136Zm-17.663 4.849c1.308-.364 2.804.259 3.446 1.474.703 1.222.416 2.92-.676 3.818-1.4 1.315-3.983.787-4.728-1.008-.856-1.646.184-3.851 1.958-4.285Zm14.177-.007c1.272-.368 2.766.127 3.45 1.298.904 1.339.472 3.335-.873 4.198-1.41 1.002-3.594.476-4.37-1.09-.94-1.622.006-3.912 1.793-4.406Zm-22.592 1.527c1.13-.432 2.383.828 1.925 1.96-.28 1.03-1.718 1.412-2.462.652-.869-.714-.547-2.303.537-2.612Zm30.634 1.642c-.033-.946.652-1.783 1.612-1.836.774.124 1.527.755 1.466 1.606.071 1.124-1.27 1.888-2.218 1.36-.445-.228-.673-.688-.86-1.13Zm-36.191-1.087c.68-.3 1.521.296 1.365 1.058-.036.864-1.298 1.196-1.762.474-.41-.5-.164-1.273.397-1.532Zm42.872-.017c.479-.344 1.247-.097 1.437.468.321.617-.269 1.463-.956 1.358-.965.09-1.278-1.397-.481-1.826Zm-25.207 4.146c1.789-.47 3.713 1.037 3.724 2.898.117 1.88-1.778 3.547-3.609 3.113-1.416-.23-2.527-1.608-2.481-3.053-.004-1.382 1.029-2.666 2.366-2.958Zm7.086-.004c1.816-.513 3.797 1.021 3.768 2.925.096 1.846-1.74 3.457-3.533 3.091-1.687-.221-2.932-2.093-2.461-3.747.238-1.103 1.149-1.999 2.226-2.269Zm-13.662 1.145c1.257-.216 2.435 1.2 1.925 2.405-.372 1.284-2.222 1.633-3.04.584-.96-1.008-.243-2.85 1.115-2.989Zm20.78.057c1.12-.474 2.496.505 2.41 1.733.045 1.352-1.653 2.285-2.749 1.496-1.241-.709-1.015-2.794.339-3.229Zm5.808 5.884c-.439-.826.358-1.921 1.266-1.768.452-.008.769.352 1.058.654.059.49.159 1.074-.243 1.451-.547.698-1.784.499-2.081-.337Zm-33.293-1.538c.849-.571 2.07.281 1.88 1.283-.102.886-1.207 1.393-1.935.89-.782-.457-.753-1.757.055-2.173Zm16.768 1.856c1.111-.496 2.526.481 2.421 1.718.082 1.365-1.669 2.311-2.755 1.491-1.207-.704-1.005-2.776.334-3.209Zm-7.766 1.83c.946-.503 2.216.365 2.13 1.435.029.878-.82 1.627-1.678 1.497-.711-.015-1.175-.659-1.403-1.271.012-.667.284-1.41.951-1.661Zm15.73.015c.973-.607 2.357.265 2.265 1.409.024 1.196-1.539 1.962-2.445 1.176-.877-.615-.77-2.095.18-2.585Zm2.736 6.831c-.433-.661.077-1.458.78-1.609.565.116 1.162.545 1.044 1.207-.083.896-1.38 1.17-1.824.402Zm-21.715-.574c.172-.525.59-1.046 1.201-.909.891.063 1.155 1.42.375 1.837-.701.478-1.514-.176-1.576-.928Zm10.476.601c.171-.775 1.165-1.153 1.82-.741.433.188.559.677.67 1.093-.059.217-.112.434-.164.65-.268.321-.613.643-1.06.631-.829.098-1.578-.849-1.266-1.633Z" fill="#fff"/><g filter="url(#C)"><rect x="269.464" y="40" width="114" height="114" rx="57" fill="#fff"/></g><path fill-rule="evenodd" clip-rule="evenodd" d="m314.04 91.892 12.43-12.425 12.436 12.435 7.229-7.234L326.47 65l-19.664 19.663 7.234 7.229ZM294.464 97l7.231-7.23 7.231 7.23-7.231 7.231-7.231-7.231Zm32.006 17.537-12.43-12.43-7.244 7.223.01.01L326.47 129l19.665-19.669.005-.005-7.234-7.223-12.436 12.435Zm17.531-17.535 7.232-7.231 7.231 7.23-7.231 7.231-7.232-7.23Zm-17.53-7.346 7.334 7.34h.006l-.006.005-7.334 7.34-7.335-7.33-.011-.015.011-.01 1.284-1.284.626-.622 5.425-5.424Z" fill="#F3BA2F"/><g filter="url(#D)"><rect x="401.464" y="40" width="114" height="114" rx="57" fill="#fff"/></g><circle cx="458.464" cy="97" r="35" fill="#13B5EC"/><path fill-rule="evenodd" clip-rule="evenodd" d="m461.264 90.103 8.4-4.749v9.498l-8.4-4.749Zm8.4 20.352-11.2 6.331-11.2-6.331v-11.08l11.2 6.331 11.2-6.332v11.081Zm-22.4-25.1 8.4 4.748-8.4 4.749v-9.498Zm12.6 7.01 8.4 4.748-8.4 4.749v-9.498Zm-2.8 9.497-8.4-4.749 8.4-4.749v9.498Zm11.2-18.769-9.8 5.427-9.8-5.427 9.8-5.653 9.8 5.653Zm-23.8-.905v29.624l14 7.688 14-7.688V82.188l-14-7.688-14 7.688Z" fill="#fff"/><g filter="url(#E)"><rect x="533.464" y="40" width="114" height="114" rx="57" fill="#fff"/></g><path d="M590.464 132c19.33 0 35-15.67 35-35s-15.67-35-35-35-35 15.67-35 35 15.67 35 35 35Z" fill="#8247E5"/><path d="M601.921 89.998c-.83-.457-1.909-.457-2.822 0l-6.476 3.5-4.401 2.284-6.476 3.501c-.83.457-1.909.457-2.823 0l-5.147-2.74c-.831-.456-1.412-1.294-1.412-2.207v-5.404c0-.913.498-1.75 1.412-2.207l5.064-2.664c.83-.456 1.91-.456 2.823 0l5.065 2.664c.83.457 1.411 1.294 1.411 2.207v3.501l4.401-2.359v-3.501c0-.913-.499-1.75-1.412-2.207l-9.382-5.023c-.83-.457-1.909-.457-2.823 0l-9.548 5.023c-.913.456-1.411 1.294-1.411 2.207v10.123c0 .913.498 1.75 1.411 2.207l9.548 5.023c.831.457 1.91.457 2.823 0l6.476-3.425 4.401-2.36 6.476-3.424c.83-.457 1.909-.457 2.822 0l5.065 2.663c.83.457 1.411 1.294 1.411 2.208v5.404c0 .913-.498 1.75-1.411 2.207l-5.065 2.74c-.83.456-1.909.456-2.822 0l-5.065-2.664c-.83-.457-1.411-1.294-1.411-2.207v-3.501l-4.401 2.359v3.501c0 .913.498 1.751 1.412 2.207l9.548 5.024c.83.456 1.909.456 2.822 0l9.548-5.024c.831-.456 1.412-1.294 1.412-2.207V97.304c0-.913-.498-1.75-1.412-2.207l-9.631-5.1Z" fill="#fff"/><g filter="url(#F)"><rect x="665.464" y="40" width="114" height="114" rx="57" fill="#fff"/></g><path d="M722.464 132c19.33 0 35-15.67 35-35s-15.67-35-35-35-35 15.67-35 35 15.67 35 35 35Z" fill="#0055D5"/><path fill-rule="evenodd" clip-rule="evenodd" d="M705.273 83.84s-3.927-3.15-4.197 4.627c-.27 6.026-.263 17.727 2.518 23.255 1.176 2.08 2.745 1.443 5.665-.629 2.541-1.882 11.732-10.376 15.622-14.103 3.891-3.727 11.783-14.417 13.425-7.154.65 3.053 1.453 5.646.84 12.419-.19 2.086-1.081 3.668-5.139.842-3.066-1.977-5.979-4.1-5.979-4.1s-.562-1.011-1.891.629c-1.044 1.311-1.569 1.633.102 2.629 1.679.995 10.169 6.868 13.425 7.783 2.687.784 4.22.769 4.3-4.525-.015-4.203-.256-16.233-1.781-21.359-1.154-3.192-2.847-4.642-6.505-1.054-3.657 3.588-15.191 14.805-21.498 19.887-4.183 3.148-5.972 5.989-7.549.739-1.109-3.975-2.547-16.35 1.993-13.992 2.84 1.362 4.256 1.354 3.147 2.211-1.11.85-4.3 3.786-4.3 3.786s-.986.798-.526 2.526c.46 1.208.46 1.808 2.935-.528 2.475-2.335 4.3-4.1 4.3-4.1s.394-.622 1.569.527c1.175 1.15 1.365 1.472 1.365 1.472s.314.857 1.57-.63c1.263-1.486 2.073-2.394-.314-3.785-2.38-1.406-13.097-7.374-13.097-7.374Z" fill="#fff"/><g filter="url(#G)"><rect x="797.464" y="40" width="114" height="114" rx="57" fill="#fff"/></g><path d="M853.464 131c19.33 0 35-15.67 35-35s-15.67-35-35-35-35 15.67-35 35 15.67 35 35 35Z" fill="#14C8FF"/><path d="M874.348 85.6c1.456 1.18 2.374 3.62 2.052 5.412l-3.128 17.305c-.327 1.803-2.052 3.788-3.828 4.411l-17.063 5.992c-1.776.623-4.416.172-5.87-1.008l-13.933-11.309c-1.456-1.18-2.376-3.609-2.047-5.412l3.128-17.305c.324-1.803 2.049-3.786 3.827-4.411l17.066-5.994c1.778-.626 4.416-.17 5.872 1.007L874.348 85.6Zm-14.515 7.77.694-3.52-6.513.012.92-4.637h-2.105a13.246 13.246 0 0 1-6.32 5.117l-.591 3.034h2.847s-.964 4.356-1.288 5.964c-.805 4.094 1.219 6.996 4.329 6.996h5.262l.92-3.887h-4.402c-1.955 0-1.852-1.069-1.472-2.966l1.212-6.123 6.507.01Z" fill="#fff"/><defs><filter id="a" x="153.464" y="224" width="274" height="274" filterUnits="userSpaceOnUse" color-interpolation-filters="sRGB"><feFlood flood-opacity="0" result="BackgroundImageFix"/><feGaussianBlur in="BackgroundImage" stdDeviation="40"/><feComposite in2="SourceAlpha" operator="in" result="effect1_backgroundBlur_825_4519"/><feColorMatrix in="SourceAlpha" values="0 0 0 0 0 0 0 0 0 0 0 0 0 0 0 0 0 0 127 0" result="hardAlpha"/><feOffset dy="20"/><feGaussianBlur stdDeviation="30"/><feComposite in2="hardAlpha" operator="out"/><feColorMatrix values="0 0 0 0 0 0 0 0 0 0 0 0 0 0 0 0 0 0 0.08 0"/><feBlend in2="effect1_backgroundBlur_825_4519" result="effect2_dropShadow_825_4519"/><feBlend in="SourceGraphic" in2="effect2_dropShadow_825_4519" result="shape"/></filter><filter id="b" x="285.464" y="224" width="274" height="274" filterUnits="userSpaceOnUse" color-interpolation-filters="sRGB"><feFlood flood-opacity="0" result="BackgroundImageFix"/><feGaussianBlur in="BackgroundImage" stdDeviation="40"/><feComposite in2="SourceAlpha" operator="in" result="effect1_backgroundBlur_825_4519"/><feColorMatrix in="SourceAlpha" values="0 0 0 0 0 0 0 0 0 0 0 0 0 0 0 0 0 0 127 0" result="hardAlpha"/><feOffset dy="20"/><feGaussianBlur stdDeviation="30"/><feComposite in2="hardAlpha" operator="out"/><feColorMatrix values="0 0 0 0 0 0 0 0 0 0 0 0 0 0 0 0 0 0 0.08 0"/><feBlend in2="effect1_backgroundBlur_825_4519" result="effect2_dropShadow_825_4519"/><feBlend in="SourceGraphic" in2="effect2_dropShadow_825_4519" result="shape"/></filter><filter id="c" x="417.464" y="224" width="274" height="274" filterUnits="userSpaceOnUse" color-interpolation-filters="sRGB"><feFlood flood-opacity="0" result="BackgroundImageFix"/><feGaussianBlur in="BackgroundImage" stdDeviation="40"/><feComposite in2="SourceAlpha" operator="in" result="effect1_backgroundBlur_825_4519"/><feColorMatrix in="SourceAlpha" values="0 0 0 0 0 0 0 0 0 0 0 0 0 0 0 0 0 0 127 0" result="hardAlpha"/><feOffset dy="20"/><feGaussianBlur stdDeviation="30"/><feComposite in2="hardAlpha" operator="out"/><feColorMatrix values="0 0 0 0 0 0 0 0 0 0 0 0 0 0 0 0 0 0 0.08 0"/><feBlend in2="effect1_backgroundBlur_825_4519" result="effect2_dropShadow_825_4519"/><feBlend in="SourceGraphic" in2="effect2_dropShadow_825_4519" result="shape"/></filter><filter id="d" x="549.464" y="224" width="274" height="274" filterUnits="userSpaceOnUse" color-interpolation-filters="sRGB"><feFlood flood-opacity="0" result="BackgroundImageFix"/><feGaussianBlur in="BackgroundImage" stdDeviation="40"/><feComposite in2="SourceAlpha" operator="in" result="effect1_backgroundBlur_825_4519"/><feColorMatrix in="SourceAlpha" values="0 0 0 0 0 0 0 0 0 0 0 0 0 0 0 0 0 0 127 0" result="hardAlpha"/><feOffset dy="20"/><feGaussianBlur stdDeviation="30"/><feComposite in2="hardAlpha" operator="out"/><feColorMatrix values="0 0 0 0 0 0 0 0 0 0 0 0 0 0 0 0 0 0 0.08 0"/><feBlend in2="effect1_backgroundBlur_825_4519" result="effect2_dropShadow_825_4519"/><feBlend in="SourceGraphic" in2="effect2_dropShadow_825_4519" result="shape"/></filter><filter id="e" x="681.464" y="224" width="274" height="274" filterUnits="userSpaceOnUse" color-interpolation-filters="sRGB"><feFlood flood-opacity="0" result="BackgroundImageFix"/><feGaussianBlur in="BackgroundImage" stdDeviation="40"/><feComposite in2="SourceAlpha" operator="in" result="effect1_backgroundBlur_825_4519"/><feColorMatrix in="SourceAlpha" values="0 0 0 0 0 0 0 0 0 0 0 0 0 0 0 0 0 0 127 0" result="hardAlpha"/><feOffset dy="20"/><feGaussianBlur stdDeviation="30"/><feComposite in2="hardAlpha" operator="out"/><feColorMatrix values="0 0 0 0 0 0 0 0 0 0 0 0 0 0 0 0 0 0 0.08 0"/><feBlend in2="effect1_backgroundBlur_825_4519" result="effect2_dropShadow_825_4519"/><feBlend in="SourceGraphic" in2="effect2_dropShadow_825_4519" result="shape"/></filter><filter id="f" x="75.464" y="356" width="274" height="274" filterUnits="userSpaceOnUse" color-interpolation-filters="sRGB"><feFlood flood-opacity="0" result="BackgroundImageFix"/><feGaussianBlur in="BackgroundImage" stdDeviation="40"/><feComposite in2="SourceAlpha" operator="in" result="effect1_backgroundBlur_825_4519"/><feColorMatrix in="SourceAlpha" values="0 0 0 0 0 0 0 0 0 0 0 0 0 0 0 0 0 0 127 0" result="hardAlpha"/><feOffset dy="20"/><feGaussianBlur stdDeviation="30"/><feComposite in2="hardAlpha" operator="out"/><feColorMatrix values="0 0 0 0 0 0 0 0 0 0 0 0 0 0 0 0 0 0 0.08 0"/><feBlend in2="effect1_backgroundBlur_825_4519" result="effect2_dropShadow_825_4519"/><feBlend in="SourceGraphic" in2="effect2_dropShadow_825_4519" result="shape"/></filter><filter id="g" x="97.464" y="378" width="230" height="230" filterUnits="userSpaceOnUse" color-interpolation-filters="sRGB"><feFlood flood-opacity="0" result="BackgroundImageFix"/><feGaussianBlur in="BackgroundImage" stdDeviation="40"/><feComposite in2="SourceAlpha" operator="in" result="effect1_backgroundBlur_825_4519"/><feColorMatrix in="SourceAlpha" values="0 0 0 0 0 0 0 0 0 0 0 0 0 0 0 0 0 0 127 0" result="hardAlpha"/><feOffset dy="20"/><feGaussianBlur stdDeviation="30"/><feComposite in2="hardAlpha" operator="out"/><feColorMatrix values="0 0 0 0 0 0 0 0 0 0 0 0 0 0 0 0 0 0 0.08 0"/><feBlend in2="effect1_backgroundBlur_825_4519" result="effect2_dropShadow_825_4519"/><feBlend in="SourceGraphic" in2="effect2_dropShadow_825_4519" result="shape"/></filter><filter id="h" x="207.464" y="356" width="274" height="274" filterUnits="userSpaceOnUse" color-interpolation-filters="sRGB"><feFlood flood-opacity="0" result="BackgroundImageFix"/><feGaussianBlur in="BackgroundImage" stdDeviation="40"/><feComposite in2="SourceAlpha" operator="in" result="effect1_backgroundBlur_825_4519"/><feColorMatrix in="SourceAlpha" values="0 0 0 0 0 0 0 0 0 0 0 0 0 0 0 0 0 0 127 0" result="hardAlpha"/><feOffset dy="20"/><feGaussianBlur stdDeviation="30"/><feComposite in2="hardAlpha" operator="out"/><feColorMatrix values="0 0 0 0 0 0 0 0 0 0 0 0 0 0 0 0 0 0 0.08 0"/><feBlend in2="effect1_backgroundBlur_825_4519" result="effect2_dropShadow_825_4519"/><feBlend in="SourceGraphic" in2="effect2_dropShadow_825_4519" result="shape"/></filter><filter id="i" x="339.464" y="356" width="274" height="274" filterUnits="userSpaceOnUse" color-interpolation-filters="sRGB"><feFlood flood-opacity="0" result="BackgroundImageFix"/><feGaussianBlur in="BackgroundImage" stdDeviation="40"/><feComposite in2="SourceAlpha" operator="in" result="effect1_backgroundBlur_825_4519"/><feColorMatrix in="SourceAlpha" values="0 0 0 0 0 0 0 0 0 0 0 0 0 0 0 0 0 0 127 0" result="hardAlpha"/><feOffset dy="20"/><feGaussianBlur stdDeviation="30"/><feComposite in2="hardAlpha" operator="out"/><feColorMatrix values="0 0 0 0 0 0 0 0 0 0 0 0 0 0 0 0 0 0 0.08 0"/><feBlend in2="effect1_backgroundBlur_825_4519" result="effect2_dropShadow_825_4519"/><feBlend in="SourceGraphic" in2="effect2_dropShadow_825_4519" result="shape"/></filter><filter id="j" x="471.464" y="356" width="274" height="274" filterUnits="userSpaceOnUse" color-interpolation-filters="sRGB"><feFlood flood-opacity="0" result="BackgroundImageFix"/><feGaussianBlur in="BackgroundImage" stdDeviation="40"/><feComposite in2="SourceAlpha" operator="in" result="effect1_backgroundBlur_825_4519"/><feColorMatrix in="SourceAlpha" values="0 0 0 0 0 0 0 0 0 0 0 0 0 0 0 0 0 0 127 0" result="hardAlpha"/><feOffset dy="20"/><feGaussianBlur stdDeviation="30"/><feComposite in2="hardAlpha" operator="out"/><feColorMatrix values="0 0 0 0 0 0 0 0 0 0 0 0 0 0 0 0 0 0 0.08 0"/><feBlend in2="effect1_backgroundBlur_825_4519" result="effect2_dropShadow_825_4519"/><feBlend in="SourceGraphic" in2="effect2_dropShadow_825_4519" result="shape"/></filter><filter id="k" x="603.464" y="356" width="274" height="274" filterUnits="userSpaceOnUse" color-interpolation-filters="sRGB"><feFlood flood-opacity="0" result="BackgroundImageFix"/><feGaussianBlur in="BackgroundImage" stdDeviation="40"/><feComposite in2="SourceAlpha" operator="in" result="effect1_backgroundBlur_825_4519"/><feColorMatrix in="SourceAlpha" values="0 0 0 0 0 0 0 0 0 0 0 0 0 0 0 0 0 0 127 0" result="hardAlpha"/><feOffset dy="20"/><feGaussianBlur stdDeviation="30"/><feComposite in2="hardAlpha" operator="out"/><feColorMatrix values="0 0 0 0 0 0 0 0 0 0 0 0 0 0 0 0 0 0 0.08 0"/><feBlend in2="effect1_backgroundBlur_825_4519" result="effect2_dropShadow_825_4519"/><feBlend in="SourceGraphic" in2="effect2_dropShadow_825_4519" result="shape"/></filter><filter id="l" x="735.464" y="356" width="274" height="274" filterUnits="userSpaceOnUse" color-interpolation-filters="sRGB"><feFlood flood-opacity="0" result="BackgroundImageFix"/><feGaussianBlur in="BackgroundImage" stdDeviation="40"/><feComposite in2="SourceAlpha" operator="in" result="effect1_backgroundBlur_825_4519"/><feColorMatrix in="SourceAlpha" values="0 0 0 0 0 0 0 0 0 0 0 0 0 0 0 0 0 0 127 0" result="hardAlpha"/><feOffset dy="20"/><feGaussianBlur stdDeviation="30"/><feComposite in2="hardAlpha" operator="out"/><feColorMatrix values="0 0 0 0 0 0 0 0 0 0 0 0 0 0 0 0 0 0 0.08 0"/><feBlend in2="effect1_backgroundBlur_825_4519" result="effect2_dropShadow_825_4519"/><feBlend in="SourceGraphic" in2="effect2_dropShadow_825_4519" result="shape"/></filter><filter id="m" x="-19.536" y="488" width="274" height="274" filterUnits="userSpaceOnUse" color-interpolation-filters="sRGB"><feFlood flood-opacity="0" result="BackgroundImageFix"/><feGaussianBlur in="BackgroundImage" stdDeviation="40"/><feComposite in2="SourceAlpha" operator="in" result="effect1_backgroundBlur_825_4519"/><feColorMatrix in="SourceAlpha" values="0 0 0 0 0 0 0 0 0 0 0 0 0 0 0 0 0 0 127 0" result="hardAlpha"/><feOffset dy="20"/><feGaussianBlur stdDeviation="30"/><feComposite in2="hardAlpha" operator="out"/><feColorMatrix values="0 0 0 0 0 0 0 0 0 0 0 0 0 0 0 0 0 0 0.08 0"/><feBlend in2="effect1_backgroundBlur_825_4519" result="effect2_dropShadow_825_4519"/><feBlend in="SourceGraphic" in2="effect2_dropShadow_825_4519" result="shape"/></filter><filter id="n" x="112.464" y="488" width="274" height="274" filterUnits="userSpaceOnUse" color-interpolation-filters="sRGB"><feFlood flood-opacity="0" result="BackgroundImageFix"/><feGaussianBlur in="BackgroundImage" stdDeviation="40"/><feComposite in2="SourceAlpha" operator="in" result="effect1_backgroundBlur_825_4519"/><feColorMatrix in="SourceAlpha" values="0 0 0 0 0 0 0 0 0 0 0 0 0 0 0 0 0 0 127 0" result="hardAlpha"/><feOffset dy="20"/><feGaussianBlur stdDeviation="30"/><feComposite in2="hardAlpha" operator="out"/><feColorMatrix values="0 0 0 0 0 0 0 0 0 0 0 0 0 0 0 0 0 0 0.08 0"/><feBlend in2="effect1_backgroundBlur_825_4519" result="effect2_dropShadow_825_4519"/><feBlend in="SourceGraphic" in2="effect2_dropShadow_825_4519" result="shape"/></filter><filter id="o" x="244.464" y="488" width="274" height="274" filterUnits="userSpaceOnUse" color-interpolation-filters="sRGB"><feFlood flood-opacity="0" result="BackgroundImageFix"/><feGaussianBlur in="BackgroundImage" stdDeviation="40"/><feComposite in2="SourceAlpha" operator="in" result="effect1_backgroundBlur_825_4519"/><feColorMatrix in="SourceAlpha" values="0 0 0 0 0 0 0 0 0 0 0 0 0 0 0 0 0 0 127 0" result="hardAlpha"/><feOffset dy="20"/><feGaussianBlur stdDeviation="30"/><feComposite in2="hardAlpha" operator="out"/><feColorMatrix values="0 0 0 0 0 0 0 0 0 0 0 0 0 0 0 0 0 0 0.08 0"/><feBlend in2="effect1_backgroundBlur_825_4519" result="effect2_dropShadow_825_4519"/><feBlend in="SourceGraphic" in2="effect2_dropShadow_825_4519" result="shape"/></filter><filter id="p" x="376.464" y="488" width="274" height="274" filterUnits="userSpaceOnUse" color-interpolation-filters="sRGB"><feFlood flood-opacity="0" result="BackgroundImageFix"/><feGaussianBlur in="BackgroundImage" stdDeviation="40"/><feComposite in2="SourceAlpha" operator="in" result="effect1_backgroundBlur_825_4519"/><feColorMatrix in="SourceAlpha" values="0 0 0 0 0 0 0 0 0 0 0 0 0 0 0 0 0 0 127 0" result="hardAlpha"/><feOffset dy="20"/><feGaussianBlur stdDeviation="30"/><feComposite in2="hardAlpha" operator="out"/><feColorMatrix values="0 0 0 0 0 0 0 0 0 0 0 0 0 0 0 0 0 0 0.08 0"/><feBlend in2="effect1_backgroundBlur_825_4519" result="effect2_dropShadow_825_4519"/><feBlend in="SourceGraphic" in2="effect2_dropShadow_825_4519" result="shape"/></filter><filter id="q" x="508.464" y="488" width="274" height="274" filterUnits="userSpaceOnUse" color-interpolation-filters="sRGB"><feFlood flood-opacity="0" result="BackgroundImageFix"/><feGaussianBlur in="BackgroundImage" stdDeviation="40"/><feComposite in2="SourceAlpha" operator="in" result="effect1_backgroundBlur_825_4519"/><feColorMatrix in="SourceAlpha" values="0 0 0 0 0 0 0 0 0 0 0 0 0 0 0 0 0 0 127 0" result="hardAlpha"/><feOffset dy="20"/><feGaussianBlur stdDeviation="30"/><feComposite in2="hardAlpha" operator="out"/><feColorMatrix values="0 0 0 0 0 0 0 0 0 0 0 0 0 0 0 0 0 0 0.08 0"/><feBlend in2="effect1_backgroundBlur_825_4519" result="effect2_dropShadow_825_4519"/><feBlend in="SourceGraphic" in2="effect2_dropShadow_825_4519" result="shape"/></filter><filter id="s" x="640.464" y="488" width="274" height="274" filterUnits="userSpaceOnUse" color-interpolation-filters="sRGB"><feFlood flood-opacity="0" result="BackgroundImageFix"/><feGaussianBlur in="BackgroundImage" stdDeviation="40"/><feComposite in2="SourceAlpha" operator="in" result="effect1_backgroundBlur_825_4519"/><feColorMatrix in="SourceAlpha" values="0 0 0 0 0 0 0 0 0 0 0 0 0 0 0 0 0 0 127 0" result="hardAlpha"/><feOffset dy="20"/><feGaussianBlur stdDeviation="30"/><feComposite in2="hardAlpha" operator="out"/><feColorMatrix values="0 0 0 0 0 0 0 0 0 0 0 0 0 0 0 0 0 0 0.08 0"/><feBlend in2="effect1_backgroundBlur_825_4519" result="effect2_dropShadow_825_4519"/><feBlend in="SourceGraphic" in2="effect2_dropShadow_825_4519" result="shape"/></filter><filter id="t" x="772.464" y="488" width="274" height="274" filterUnits="userSpaceOnUse" color-interpolation-filters="sRGB"><feFlood flood-opacity="0" result="BackgroundImageFix"/><feGaussianBlur in="BackgroundImage" stdDeviation="40"/><feComposite in2="SourceAlpha" operator="in" result="effect1_backgroundBlur_825_4519"/><feColorMatrix in="SourceAlpha" values="0 0 0 0 0 0 0 0 0 0 0 0 0 0 0 0 0 0 127 0" result="hardAlpha"/><feOffset dy="20"/><feGaussianBlur stdDeviation="30"/><feComposite in2="hardAlpha" operator="out"/><feColorMatrix values="0 0 0 0 0 0 0 0 0 0 0 0 0 0 0 0 0 0 0.08 0"/><feBlend in2="effect1_backgroundBlur_825_4519" result="effect2_dropShadow_825_4519"/><feBlend in="SourceGraphic" in2="effect2_dropShadow_825_4519" result="shape"/></filter><filter id="u" x="97.464" y="92" width="274" height="274" filterUnits="userSpaceOnUse" color-interpolation-filters="sRGB"><feFlood flood-opacity="0" result="BackgroundImageFix"/><feGaussianBlur in="BackgroundImage" stdDeviation="40"/><feComposite in2="SourceAlpha" operator="in" result="effect1_backgroundBlur_825_4519"/><feColorMatrix in="SourceAlpha" values="0 0 0 0 0 0 0 0 0 0 0 0 0 0 0 0 0 0 127 0" result="hardAlpha"/><feOffset dy="20"/><feGaussianBlur stdDeviation="30"/><feComposite in2="hardAlpha" operator="out"/><feColorMatrix values="0 0 0 0 0 0 0 0 0 0 0 0 0 0 0 0 0 0 0.08 0"/><feBlend in2="effect1_backgroundBlur_825_4519" result="effect2_dropShadow_825_4519"/><feBlend in="SourceGraphic" in2="effect2_dropShadow_825_4519" result="shape"/></filter><filter id="v" x="229.464" y="92" width="274" height="274" filterUnits="userSpaceOnUse" color-interpolation-filters="sRGB"><feFlood flood-opacity="0" result="BackgroundImageFix"/><feGaussianBlur in="BackgroundImage" stdDeviation="40"/><feComposite in2="SourceAlpha" operator="in" result="effect1_backgroundBlur_825_4519"/><feColorMatrix in="SourceAlpha" values="0 0 0 0 0 0 0 0 0 0 0 0 0 0 0 0 0 0 127 0" result="hardAlpha"/><feOffset dy="20"/><feGaussianBlur stdDeviation="30"/><feComposite in2="hardAlpha" operator="out"/><feColorMatrix values="0 0 0 0 0 0 0 0 0 0 0 0 0 0 0 0 0 0 0.08 0"/><feBlend in2="effect1_backgroundBlur_825_4519" result="effect2_dropShadow_825_4519"/><feBlend in="SourceGraphic" in2="effect2_dropShadow_825_4519" result="shape"/></filter><filter id="w" x="361.464" y="92" width="274" height="274" filterUnits="userSpaceOnUse" color-interpolation-filters="sRGB"><feFlood flood-opacity="0" result="BackgroundImageFix"/><feGaussianBlur in="BackgroundImage" stdDeviation="40"/><feComposite in2="SourceAlpha" operator="in" result="effect1_backgroundBlur_825_4519"/><feColorMatrix in="SourceAlpha" values="0 0 0 0 0 0 0 0 0 0 0 0 0 0 0 0 0 0 127 0" result="hardAlpha"/><feOffset dy="20"/><feGaussianBlur stdDeviation="30"/><feComposite in2="hardAlpha" operator="out"/><feColorMatrix values="0 0 0 0 0 0 0 0 0 0 0 0 0 0 0 0 0 0 0.08 0"/><feBlend in2="effect1_backgroundBlur_825_4519" result="effect2_dropShadow_825_4519"/><feBlend in="SourceGraphic" in2="effect2_dropShadow_825_4519" result="shape"/></filter><filter id="y" x="493.464" y="92" width="274" height="274" filterUnits="userSpaceOnUse" color-interpolation-filters="sRGB"><feFlood flood-opacity="0" result="BackgroundImageFix"/><feGaussianBlur in="BackgroundImage" stdDeviation="40"/><feComposite in2="SourceAlpha" operator="in" result="effect1_backgroundBlur_825_4519"/><feColorMatrix in="SourceAlpha" values="0 0 0 0 0 0 0 0 0 0 0 0 0 0 0 0 0 0 127 0" result="hardAlpha"/><feOffset dy="20"/><feGaussianBlur stdDeviation="30"/><feComposite in2="hardAlpha" operator="out"/><feColorMatrix values="0 0 0 0 0 0 0 0 0 0 0 0 0 0 0 0 0 0 0.08 0"/><feBlend in2="effect1_backgroundBlur_825_4519" result="effect2_dropShadow_825_4519"/><feBlend in="SourceGraphic" in2="effect2_dropShadow_825_4519" result="shape"/></filter><filter id="z" x="625.464" y="92" width="274" height="274" filterUnits="userSpaceOnUse" color-interpolation-filters="sRGB"><feFlood flood-opacity="0" result="BackgroundImageFix"/><feGaussianBlur in="BackgroundImage" stdDeviation="40"/><feComposite in2="SourceAlpha" operator="in" result="effect1_backgroundBlur_825_4519"/><feColorMatrix in="SourceAlpha" values="0 0 0 0 0 0 0 0 0 0 0 0 0 0 0 0 0 0 127 0" result="hardAlpha"/><feOffset dy="20"/><feGaussianBlur stdDeviation="30"/><feComposite in2="hardAlpha" operator="out"/><feColorMatrix values="0 0 0 0 0 0 0 0 0 0 0 0 0 0 0 0 0 0 0.08 0"/><feBlend in2="effect1_backgroundBlur_825_4519" result="effect2_dropShadow_825_4519"/><feBlend in="SourceGraphic" in2="effect2_dropShadow_825_4519" result="shape"/></filter><filter id="A" x="757.464" y="92" width="274" height="274" filterUnits="userSpaceOnUse" color-interpolation-filters="sRGB"><feFlood flood-opacity="0" result="BackgroundImageFix"/><feGaussianBlur in="BackgroundImage" stdDeviation="40"/><feComposite in2="SourceAlpha" operator="in" result="effect1_backgroundBlur_825_4519"/><feColorMatrix in="SourceAlpha" values="0 0 0 0 0 0 0 0 0 0 0 0 0 0 0 0 0 0 127 0" result="hardAlpha"/><feOffset dy="20"/><feGaussianBlur stdDeviation="30"/><feComposite in2="hardAlpha" operator="out"/><feColorMatrix values="0 0 0 0 0 0 0 0 0 0 0 0 0 0 0 0 0 0 0.08 0"/><feBlend in2="effect1_backgroundBlur_825_4519" result="effect2_dropShadow_825_4519"/><feBlend in="SourceGraphic" in2="effect2_dropShadow_825_4519" result="shape"/></filter><filter id="B" x="57.464" y="-40" width="274" height="274" filterUnits="userSpaceOnUse" color-interpolation-filters="sRGB"><feFlood flood-opacity="0" result="BackgroundImageFix"/><feGaussianBlur in="BackgroundImage" stdDeviation="40"/><feComposite in2="SourceAlpha" operator="in" result="effect1_backgroundBlur_825_4519"/><feColorMatrix in="SourceAlpha" values="0 0 0 0 0 0 0 0 0 0 0 0 0 0 0 0 0 0 127 0" result="hardAlpha"/><feOffset dy="20"/><feGaussianBlur stdDeviation="30"/><feComposite in2="hardAlpha" operator="out"/><feColorMatrix values="0 0 0 0 0 0 0 0 0 0 0 0 0 0 0 0 0 0 0.08 0"/><feBlend in2="effect1_backgroundBlur_825_4519" result="effect2_dropShadow_825_4519"/><feBlend in="SourceGraphic" in2="effect2_dropShadow_825_4519" result="shape"/></filter><filter id="C" x="189.464" y="-40" width="274" height="274" filterUnits="userSpaceOnUse" color-interpolation-filters="sRGB"><feFlood flood-opacity="0" result="BackgroundImageFix"/><feGaussianBlur in="BackgroundImage" stdDeviation="40"/><feComposite in2="SourceAlpha" operator="in" result="effect1_backgroundBlur_825_4519"/><feColorMatrix in="SourceAlpha" values="0 0 0 0 0 0 0 0 0 0 0 0 0 0 0 0 0 0 127 0" result="hardAlpha"/><feOffset dy="20"/><feGaussianBlur stdDeviation="30"/><feComposite in2="hardAlpha" operator="out"/><feColorMatrix values="0 0 0 0 0 0 0 0 0 0 0 0 0 0 0 0 0 0 0.08 0"/><feBlend in2="effect1_backgroundBlur_825_4519" result="effect2_dropShadow_825_4519"/><feBlend in="SourceGraphic" in2="effect2_dropShadow_825_4519" result="shape"/></filter><filter id="D" x="321.464" y="-40" width="274" height="274" filterUnits="userSpaceOnUse" color-interpolation-filters="sRGB"><feFlood flood-opacity="0" result="BackgroundImageFix"/><feGaussianBlur in="BackgroundImage" stdDeviation="40"/><feComposite in2="SourceAlpha" operator="in" result="effect1_backgroundBlur_825_4519"/><feColorMatrix in="SourceAlpha" values="0 0 0 0 0 0 0 0 0 0 0 0 0 0 0 0 0 0 127 0" result="hardAlpha"/><feOffset dy="20"/><feGaussianBlur stdDeviation="30"/><feComposite in2="hardAlpha" operator="out"/><feColorMatrix values="0 0 0 0 0 0 0 0 0 0 0 0 0 0 0 0 0 0 0.08 0"/><feBlend in2="effect1_backgroundBlur_825_4519" result="effect2_dropShadow_825_4519"/><feBlend in="SourceGraphic" in2="effect2_dropShadow_825_4519" result="shape"/></filter><filter id="E" x="453.464" y="-40" width="274" height="274" filterUnits="userSpaceOnUse" color-interpolation-filters="sRGB"><feFlood flood-opacity="0" result="BackgroundImageFix"/><feGaussianBlur in="BackgroundImage" stdDeviation="40"/><feComposite in2="SourceAlpha" operator="in" result="effect1_backgroundBlur_825_4519"/><feColorMatrix in="SourceAlpha" values="0 0 0 0 0 0 0 0 0 0 0 0 0 0 0 0 0 0 127 0" result="hardAlpha"/><feOffset dy="20"/><feGaussianBlur stdDeviation="30"/><feComposite in2="hardAlpha" operator="out"/><feColorMatrix values="0 0 0 0 0 0 0 0 0 0 0 0 0 0 0 0 0 0 0.08 0"/><feBlend in2="effect1_backgroundBlur_825_4519" result="effect2_dropShadow_825_4519"/><feBlend in="SourceGraphic" in2="effect2_dropShadow_825_4519" result="shape"/></filter><filter id="F" x="585.464" y="-40" width="274" height="274" filterUnits="userSpaceOnUse" color-interpolation-filters="sRGB"><feFlood flood-opacity="0" result="BackgroundImageFix"/><feGaussianBlur in="BackgroundImage" stdDeviation="40"/><feComposite in2="SourceAlpha" operator="in" result="effect1_backgroundBlur_825_4519"/><feColorMatrix in="SourceAlpha" values="0 0 0 0 0 0 0 0 0 0 0 0 0 0 0 0 0 0 127 0" result="hardAlpha"/><feOffset dy="20"/><feGaussianBlur stdDeviation="30"/><feComposite in2="hardAlpha" operator="out"/><feColorMatrix values="0 0 0 0 0 0 0 0 0 0 0 0 0 0 0 0 0 0 0.08 0"/><feBlend in2="effect1_backgroundBlur_825_4519" result="effect2_dropShadow_825_4519"/><feBlend in="SourceGraphic" in2="effect2_dropShadow_825_4519" result="shape"/></filter><filter id="G" x="717.464" y="-40" width="274" height="274" filterUnits="userSpaceOnUse" color-interpolation-filters="sRGB"><feFlood flood-opacity="0" result="BackgroundImageFix"/><feGaussianBlur in="BackgroundImage" stdDeviation="40"/><feComposite in2="SourceAlpha" operator="in" result="effect1_backgroundBlur_825_4519"/><feColorMatrix in="SourceAlpha" values="0 0 0 0 0 0 0 0 0 0 0 0 0 0 0 0 0 0 127 0" result="hardAlpha"/><feOffset dy="20"/><feGaussianBlur stdDeviation="30"/><feComposite in2="hardAlpha" operator="out"/><feColorMatrix values="0 0 0 0 0 0 0 0 0 0 0 0 0 0 0 0 0 0 0.08 0"/><feBlend in2="effect1_backgroundBlur_825_4519" result="effect2_dropShadow_825_4519"/><feBlend in="SourceGraphic" in2="effect2_dropShadow_825_4519" result="shape"/></filter><linearGradient id="r" x1="671.559" y1="603.043" x2="619.479" y2="646.863" gradientUnits="userSpaceOnUse"><stop stop-color="#B6509E"/><stop offset="1" stop-color="#2EBAC6"/></linearGradient><linearGradient id="x" x1="482.672" y1="247.334" x2="514.885" y2="212.072" gradientUnits="userSpaceOnUse"><stop offset=".08" stop-color="#9945FF"/><stop offset=".3" stop-color="#8752F3"/><stop offset=".5" stop-color="#5497D5"/><stop offset=".6" stop-color="#43B4CA"/><stop offset=".72" stop-color="#28E0B9"/><stop offset=".97" stop-color="#19FB9B"/></linearGradient></defs></svg>