<svg width="16" height="16" viewBox="0 0 22 22" fill="none" xmlns="http://www.w3.org/2000/svg"><circle cx="11" cy="11" r="11" fill="#A1A1A4"/><g clip-path="url(#a)"><path d="M16.541 9.615c-.563-.52-1.34-1.312-1.974-1.875l-.038-.026a.716.716 0 0 0-.208-.116C12.793 7.313 5.681 5.983 5.542 6a.262.262 0 0 0-.108.041l-.036.028a.418.418 0 0 0-.098.158l-.009.024v.154c.8 2.23 3.962 9.532 4.584 11.246.038.116.11.338.242.349h.03c.072 0 .375-.401.375-.401s5.43-6.585 5.98-7.287c.07-.086.134-.179.187-.277a.451.451 0 0 0-.148-.42Zm-4.626.767 2.318-1.922 1.36 1.253-3.678.669Zm-.9-.126-3.99-3.27 6.456 1.19-2.466 2.08Zm.36.857 4.084-.658-4.669 5.625.585-4.967Zm-4.891-3.8 4.198 3.562-.608 5.209-3.59-8.771Z" fill="#F8F9F9"/></g><defs><clipPath id="a"><path fill="#fff" transform="translate(5 6)" d="M0 0h12v12H0z"/></clipPath></defs></svg>