<svg width="52" height="52" fill="none" xmlns="http://www.w3.org/2000/svg"><path d="M48.533 12.024a18.455 18.455 0 0 1-5.31 1.457 9.262 9.262 0 0 0 4.064-5.116 18.54 18.54 0 0 1-5.873 2.245 9.231 9.231 0 0 0-6.747-2.92 9.246 9.246 0 0 0-9.246 9.245c0 .725.083 1.432.24 2.106-7.685-.385-14.497-4.066-19.059-9.662a9.223 9.223 0 0 0-1.25 4.651 9.239 9.239 0 0 0 4.112 7.694 9.228 9.228 0 0 1-4.188-1.156v.116a9.247 9.247 0 0 0 7.417 9.066 9.248 9.248 0 0 1-4.175.159 9.257 9.257 0 0 0 8.637 6.422A18.545 18.545 0 0 1 5.67 40.29a18.57 18.57 0 0 1-2.206-.13 26.177 26.177 0 0 0 14.173 4.153c17.008 0 26.305-14.089 26.305-26.307 0-.4-.008-.799-.026-1.196a18.814 18.814 0 0 0 4.616-4.785Z" fill="#fff"/></svg>