<svg width="36" height="36" viewBox="0 0 36 36" fill="none" xmlns="http://www.w3.org/2000/svg">
<g opacity="0.6">
<path d="M33.6001 8.32466C32.4517 8.83466 31.2181 9.17786 29.9233 9.33266C31.2457 8.54066 32.2597 7.28666 32.7373 5.79146C31.5013 6.52466 30.1309 7.05746 28.6717 7.34546C27.5041 6.10106 25.8409 5.32346 24.0001 5.32346C20.4649 5.32346 17.5993 8.19026 17.5993 11.7243C17.5993 12.2259 17.6569 12.7155 17.7649 13.1823C12.4453 12.9159 7.72932 10.3671 4.57093 6.49346C4.02133 7.43906 3.70573 8.53826 3.70573 9.71306C3.70573 11.9331 4.83493 13.8927 6.55212 15.0399C5.50333 15.0063 4.51573 14.7183 3.65293 14.2395C3.65293 14.2671 3.65293 14.2923 3.65293 14.3199C3.65293 17.4219 5.85853 20.0091 8.78772 20.5959C8.25132 20.7423 7.68492 20.8203 7.10052 20.8203C6.68892 20.8203 6.28693 20.7795 5.89693 20.7063C6.71173 23.2491 9.07573 25.1007 11.8765 25.1523C9.68652 26.8695 6.92653 27.8931 3.92653 27.8931C3.41053 27.8931 2.90053 27.8631 2.39893 27.8031C5.23213 29.6187 8.59573 30.6783 12.2113 30.6783C23.9857 30.6783 30.4225 20.9247 30.4225 12.4659C30.4225 12.1887 30.4165 11.9127 30.4045 11.6379C31.6561 10.7343 32.7421 9.60746 33.6001 8.32466Z" fill="white"/>
</g>
</svg>
