<svg width="110" height="40" fill="none" xmlns="http://www.w3.org/2000/svg"><path fill-rule="evenodd" clip-rule="evenodd" d="m102.464 22.36-1.78 1.05c.631 1.924 2.412 3.032 4.881 3.09 1.321 0 2.413-.35 3.217-.991.804-.641 1.206-1.574 1.206-2.682.115-1.166-.574-2.04-1.264-2.565-.172-.175-.517-.35-.919-.524-.402-.175-.689-.292-.919-.35a10.486 10.486 0 0 1-1.033-.35c-1.896-.641-2.527-1.05-2.527-1.982 0-.991.746-1.574 1.952-1.574 1.264 0 2.125.583 2.642 1.749l1.723-.991c-.804-1.69-2.354-2.74-4.365-2.74-1.148 0-2.067.35-2.871.991-.804.641-1.206 1.516-1.206 2.623 0 1.108.402 1.924 1.206 2.507.861.583 1.435.816 2.642 1.166 1.091.291 1.837.583 2.24.874.402.292.631.642.631 1.166 0 .991-.804 1.633-2.355 1.633-1.55 0-2.584-.7-3.101-2.1Zm-83.796-8.685h2.068v12.533h-2.068V13.675ZM3.331 26.266 0 13.733h2.183l2.584 9.619 2.757-9.62H9.59l2.757 9.678 2.585-9.677h2.182l-3.33 12.533h-2.528l-2.7-9.385-2.699 9.385H3.331Zm26.994-1.982h-5.054V13.733h-2.068v12.533h7.122v-1.982Zm6.49-10.55c1.722 0 3.158.582 4.25 1.806 1.148 1.225 1.723 2.682 1.723 4.43 0 1.75-.575 3.265-1.723 4.431-1.15 1.224-2.585 1.807-4.25 1.807h-4.94V13.675l4.94.058Zm0 10.55c1.206 0 2.124-.407 2.871-1.224.747-.816 1.149-1.865 1.149-3.09 0-1.282-.402-2.273-1.149-3.089-.747-.816-1.723-1.224-2.872-1.224h-2.871v8.57h2.871v.058Zm15.91.933c.746-.7 1.09-1.515 1.09-2.565 0-1.282-.631-2.332-1.722-2.915.804-.64 1.263-1.457 1.263-2.565 0-.932-.345-1.807-1.091-2.448-.69-.641-1.55-.991-2.585-.991h-4.996v12.534h5.341c1.091 0 1.953-.35 2.7-1.05ZM46.75 18.98v-3.265h2.93c.918 0 1.608.7 1.608 1.632 0 .933-.69 1.633-1.609 1.633h-2.929Zm5.054 3.555c0 .992-.746 1.75-1.723 1.75h-3.33v-3.498h3.33c.977 0 1.723.758 1.723 1.748Zm6.087 1.75h5.514v1.982h-7.582V13.732h7.524v1.982h-5.456v3.265h4.997v1.982h-4.997v3.322Zm11.834-2.566 2.642 4.547h2.355L71.85 21.37a3.9 3.9 0 0 0 2.47-3.615c0-1.107-.402-2.098-1.206-2.856-.804-.758-1.724-1.166-2.872-1.166h-4.997v12.534h2.068v-4.548h2.412Zm-2.412-1.865v-4.197h2.929c1.091 0 1.953.932 1.953 2.098s-.862 2.099-1.953 2.099h-2.93Zm16.023 6.413-2.642-4.606h-2.412v4.605h-2.068V13.734h4.997c1.148 0 2.067.408 2.871 1.166.804.758 1.206 1.749 1.206 2.856a3.9 3.9 0 0 1-2.47 3.615l2.873 4.896h-2.355Zm-5.055-10.669v4.198h2.93c1.09 0 1.952-.933 1.952-2.099 0-1.166-.861-2.099-1.952-2.099h-2.93Zm10.915-1.923h-2.068v12.533h2.067V13.675Zm4.481 10.61h5.571v1.982h-7.581V13.732h7.466v1.982h-5.456v3.265h4.997v1.982h-4.997v3.322Z" fill="#652D90"/></svg>