<svg width="52" height="52" fill="none" xmlns="http://www.w3.org/2000/svg"><path d="M47.45 15.08c-.422-2.289-2.43-3.953-4.755-4.473-3.487-.728-9.933-1.248-16.908-1.248-6.975 0-13.527.52-17.014 1.248-2.325.52-4.333 2.08-4.756 4.472-.422 2.6-.845 6.24-.845 10.92s.423 8.32.951 10.92c.423 2.288 2.43 3.952 4.755 4.472 3.7.728 10.04 1.248 17.014 1.248 6.975 0 13.316-.52 17.015-1.248 2.325-.52 4.332-2.08 4.755-4.472.423-2.6.951-6.344 1.057-10.92-.212-4.68-.74-8.32-1.268-10.92Zm-27.37 18.2V18.72L32.973 26 20.08 33.28Z" fill="#fff"/></svg>