<svg width="36" height="36" viewBox="0 0 36 36" fill="none" xmlns="http://www.w3.org/2000/svg">
<g opacity="0.6">
<path d="M32.8504 10.4393C32.5577 8.85531 31.1677 7.70331 29.5581 7.34331C27.1438 6.83931 22.681 6.47931 17.8523 6.47931C13.0237 6.47931 8.48767 6.83931 6.07335 7.34331C4.4638 7.70331 3.07374 8.78331 2.78109 10.4393C2.48845 12.2393 2.1958 14.7593 2.1958 17.9993C2.1958 21.2393 2.48845 23.7593 2.85425 25.5593C3.1469 27.1433 4.53696 28.2953 6.14651 28.6553C8.70716 29.1593 13.0968 29.5193 17.9255 29.5193C22.7541 29.5193 27.1438 29.1593 29.7044 28.6553C31.314 28.2953 32.7041 27.2153 32.9967 25.5593C33.2893 23.7593 33.6552 21.1673 33.7283 17.9993C33.582 14.7593 33.2162 12.2393 32.8504 10.4393ZM13.9016 23.0393V12.9593L22.8273 17.9993L13.9016 23.0393Z" fill="white"/>
</g>
</svg>
