<svg width="100" height="100" fill="none" xmlns="http://www.w3.org/2000/svg"><path d="M48.75 86.25h-35v-72.5h72.5V60" stroke="#000" stroke-width="3" stroke-miterlimit="10"/><path d="M60 28.75H40a2.5 2.5 0 1 1 0-5h20a2.5 2.5 0 1 1 0 5Z" stroke="#000" stroke-width="3" stroke-miterlimit="10"/><path d="M47.5 81.25a1.25 1.25 0 1 0 0-2.5 1.25 1.25 0 0 0 0 2.5Zm-5 0a1.25 1.25 0 1 0 0-2.5 1.25 1.25 0 0 0 0 2.5Zm-5 0a1.25 1.25 0 1 0 0-2.5 1.25 1.25 0 0 0 0 2.5Zm-5 0a1.25 1.25 0 1 0 0-2.5 1.25 1.25 0 0 0 0 2.5Zm-5 0a1.25 1.25 0 1 0 0-2.5 1.25 1.25 0 0 0 0 2.5Zm-5 0a1.25 1.25 0 1 0 0-2.5 1.25 1.25 0 0 0 0 2.5ZM55 68.75a2.5 2.5 0 1 0 0-5 2.5 2.5 0 0 0 0 5ZM55 90a2.5 2.5 0 1 0 0-5 2.5 2.5 0 0 0 0 5Zm38.75-21.25a2.5 2.5 0 1 0 0-5 2.5 2.5 0 0 0 0 5Zm0 21.25a2.5 2.5 0 1 0 0-5 2.5 2.5 0 0 0 0 5Z" fill="#000"/><path d="M96.25 63.75H52.5V90h43.75V63.75Z" stroke="#000" stroke-width="3" stroke-miterlimit="10"/><path d="M74.375 82.5a5.625 5.625 0 1 0 0-11.25 5.625 5.625 0 0 0 0 11.25Z" stroke="#000" stroke-width="3" stroke-miterlimit="10"/><path d="M60.625 78.75a1.875 1.875 0 1 0 0-3.75 1.875 1.875 0 0 0 0 3.75Zm27.5 0a1.875 1.875 0 1 0 0-3.75 1.875 1.875 0 0 0 0 3.75Z" fill="#000"/></svg>