<svg width="100" height="100" fill="none" xmlns="http://www.w3.org/2000/svg"><path d="M45.048 48.75a17.43 17.43 0 0 0-.515-4.172l2.967-3.772-3.099-5.362-4.747.683a17.455 17.455 0 0 0-7.226-4.166L30.644 27.5h-6.191l-1.785 4.46a17.477 17.477 0 0 0-7.228 4.167l-4.746-.683-3.099 5.362 2.968 3.772a17.43 17.43 0 0 0-.515 4.172c0 1.389.174 2.789.515 4.172l-2.968 3.772 3.099 5.362 4.747-.683a17.455 17.455 0 0 0 7.227 4.166L24.452 70h6.19l1.786-4.46a17.457 17.457 0 0 0 7.226-4.166l4.747.683 3.1-5.362-2.968-3.771c.341-1.385.515-2.785.515-4.174Zm-3.087-4.112a14.95 14.95 0 0 1 .587 4.112c0 1.366-.197 2.75-.587 4.112l-.175.614 2.7 3.433-1.403 2.431-4.323-.623-.444.46a14.954 14.954 0 0 1-7.12 4.105l-.62.156-1.625 4.062h-2.807l-1.625-4.063-.619-.154a14.948 14.948 0 0 1-7.121-4.107l-.444-.459-4.322.623-1.404-2.431 2.7-3.433-.175-.614a14.95 14.95 0 0 1-.586-4.112c0-1.366.196-2.75.586-4.112l.175-.614-2.7-3.433 1.404-2.431 4.322.623.444-.46a14.953 14.953 0 0 1 7.121-4.105l.619-.156L26.144 30h2.808l1.624 4.063.62.154c2.715.68 5.178 2.1 7.12 4.107l.444.459 4.323-.623 1.404 2.431-2.7 3.433.175.614ZM27.549 38.75c-5.514 0-10 4.486-10 10s4.486 10 10 10 10-4.486 10-10-4.486-10-10-10Zm0 17.5c-4.136 0-7.5-3.364-7.5-7.5s3.364-7.5 7.5-7.5 7.5 3.364 7.5 7.5-3.364 7.5-7.5 7.5ZM41.184 15a1.25 1.25 0 1 0 0 2.5 1.25 1.25 0 0 0 0-2.5Z" fill="#000"/><path d="M27.5 73.75v10a5 5 0 0 0 5 5H70a5 5 0 0 0 5-5v-67.5a5 5 0 0 0-5-5H32.5a5 5 0 0 0-5 5v7.5" stroke="#000" stroke-width="3" stroke-miterlimit="10"/><path d="M46.25 16.25h10m-10 67h10" stroke="#000" stroke-width="3" stroke-miterlimit="10" stroke-linecap="round"/><path d="M68.75 35a1.25 1.25 0 1 0 0 2.5 1.25 1.25 0 0 0 0-2.5Zm0 5a1.25 1.25 0 1 0 0 2.5 1.25 1.25 0 0 0 0-2.5Zm0 5a1.25 1.25 0 1 0 0 2.5 1.25 1.25 0 0 0 0-2.5Zm0 5a1.25 1.25 0 1 0 0 2.5 1.25 1.25 0 0 0 0-2.5Zm0-20a1.25 1.25 0 1 0 0 2.5 1.25 1.25 0 0 0 0-2.5Zm0 25a1.25 1.25 0 1 0 0 2.5 1.25 1.25 0 0 0 0-2.5Zm0 5a1.25 1.25 0 1 0 0 2.5 1.25 1.25 0 0 0 0-2.5Zm0 5a1.25 1.25 0 1 0 0 2.5 1.25 1.25 0 0 0 0-2.5Zm0-40a1.25 1.25 0 1 0 0 2.5 1.25 1.25 0 0 0 0-2.5Zm0 45a1.25 1.25 0 1 0 0 2.5 1.25 1.25 0 0 0 0-2.5Z" fill="#000"/></svg>