<svg width="24" height="24" fill="none" xmlns="http://www.w3.org/2000/svg"><g filter="url(#a)"><rect width="24" height="24" rx="12" fill="#000" fill-opacity=".16"/><path d="M6.988 15.802a.87.87 0 0 0 .006 1.201c.334.328.894.322 1.202.013l3.805-3.804 3.798 3.798a.864.864 0 0 0 1.202-.007.864.864 0 0 0 .006-1.201l-3.798-3.799 3.798-3.805a.857.857 0 0 0-.006-1.201.864.864 0 0 0-1.202-.007l-3.798 3.799L8.196 6.99a.863.863 0 0 0-1.202.007c-.328.327-.321.893-.006 1.201l3.798 3.805-3.798 3.799Z" fill="#ECEDEE"/></g><defs><filter id="a" x="-54.366" y="-54.366" width="132.731" height="132.731" filterUnits="userSpaceOnUse" color-interpolation-filters="sRGB"><feFlood flood-opacity="0" result="BackgroundImageFix"/><feGaussianBlur in="BackgroundImage" stdDeviation="27.183"/><feComposite in2="SourceAlpha" operator="in" result="effect1_backgroundBlur_1227_75382"/><feBlend in="SourceGraphic" in2="effect1_backgroundBlur_1227_75382" result="shape"/></filter></defs></svg>