<svg width="100" height="100" fill="none" xmlns="http://www.w3.org/2000/svg"><path d="M32.5 25a1.25 1.25 0 1 0 0 2.5 1.25 1.25 0 0 0 0-2.5Zm-5 0a1.25 1.25 0 1 0 0 2.5 1.25 1.25 0 0 0 0-2.5Zm-6.25 0a1.25 1.25 0 1 0 0 2.5 1.25 1.25 0 0 0 0-2.5Zm-7.5 0a1.25 1.25 0 1 0 0 2.5 1.25 1.25 0 0 0 0-2.5Zm23.75 0a1.25 1.25 0 1 0 0 2.5 1.25 1.25 0 0 0 0-2.5Z" fill="#000"/><path d="M42.5 26.25H85" stroke="#000" stroke-width="3" stroke-miterlimit="10" stroke-linecap="round"/><path d="M72.5 13.75 85 26.25l-12.5 12.5" stroke="#000" stroke-width="3" stroke-miterlimit="10"/><path d="M67.5 72.5a1.25 1.25 0 1 0 0 2.5 1.25 1.25 0 0 0 0-2.5Zm5 0a1.25 1.25 0 1 0 0 2.5 1.25 1.25 0 0 0 0-2.5Zm6.25 0a1.25 1.25 0 1 0 0 2.5 1.25 1.25 0 0 0 0-2.5Zm7.5 0a1.25 1.25 0 1 0 0 2.5 1.25 1.25 0 0 0 0-2.5Zm-23.75 0a1.25 1.25 0 1 0 0 2.5 1.25 1.25 0 0 0 0-2.5Z" fill="#000"/><path d="M57.5 73.75H15" stroke="#000" stroke-width="3" stroke-miterlimit="10" stroke-linecap="round"/><path d="M27.5 86.25 15 73.75l12.5-12.5" stroke="#000" stroke-width="3" stroke-miterlimit="10"/></svg>