<svg width="100" height="100" fill="none" xmlns="http://www.w3.org/2000/svg"><path d="M52.5 21.25a1.25 1.25 0 1 0 0 2.5 1.25 1.25 0 0 0 0-2.5Zm-5 0a1.25 1.25 0 1 0 0 2.5 1.25 1.25 0 0 0 0-2.5Zm-5 0a1.25 1.25 0 1 0 0 2.5 1.25 1.25 0 0 0 0-2.5Zm-5 0a1.25 1.25 0 1 0 0 2.5 1.25 1.25 0 0 0 0-2.5Zm-5 0a1.25 1.25 0 1 0 0 2.5 1.25 1.25 0 0 0 0-2.5Zm-5 0a1.25 1.25 0 1 0 0 2.5 1.25 1.25 0 0 0 0-2.5Zm-5 0a1.25 1.25 0 1 0 0 2.5 1.25 1.25 0 0 0 0-2.5Zm-5 0a1.25 1.25 0 1 0 0 2.5 1.25 1.25 0 0 0 0-2.5Zm0 5a1.25 1.25 0 1 0 0 2.5 1.25 1.25 0 0 0 0-2.5Zm0 5a1.25 1.25 0 1 0 0 2.5 1.25 1.25 0 0 0 0-2.5Zm0 5a1.25 1.25 0 1 0 0 2.5 1.25 1.25 0 0 0 0-2.5Zm0 5a1.25 1.25 0 1 0 0 2.5 1.25 1.25 0 0 0 0-2.5Zm0 5a1.25 1.25 0 1 0 0 2.5 1.25 1.25 0 0 0 0-2.5ZM37.5 60a1.25 1.25 0 1 0 0 2.5 1.25 1.25 0 0 0 0-2.5Zm0 5a1.25 1.25 0 1 0 0 2.5 1.25 1.25 0 0 0 0-2.5Zm0 5a1.25 1.25 0 1 0 0 2.5 1.25 1.25 0 0 0 0-2.5Zm0 5a1.25 1.25 0 1 0 0 2.5 1.25 1.25 0 0 0 0-2.5Zm25-53.75a1.25 1.25 0 1 0 0 2.5 1.25 1.25 0 0 0 0-2.5Zm-5 0a1.25 1.25 0 1 0 0 2.5 1.25 1.25 0 0 0 0-2.5ZM82.5 50a1.25 1.25 0 1 0 0 2.5 1.25 1.25 0 0 0 0-2.5Zm-5 0a1.25 1.25 0 1 0 0 2.5 1.25 1.25 0 0 0 0-2.5Z" fill="#000"/><path d="M65 16.25H15A3.75 3.75 0 0 0 11.25 20v30A3.75 3.75 0 0 0 15 53.75h3.75v8.75l8.75-8.75H65A3.75 3.75 0 0 0 68.75 50V20A3.75 3.75 0 0 0 65 16.25Z" stroke="#000" stroke-width="3" stroke-miterlimit="10"/><path d="M31.25 57.5v21.25A3.75 3.75 0 0 0 35 82.5h37.5l8.75 8.75V82.5H85a3.75 3.75 0 0 0 3.75-3.75v-30A3.75 3.75 0 0 0 85 45H72.5" stroke="#000" stroke-width="3" stroke-miterlimit="10"/><path d="m44.179 46.029-1.315-1.773c-.848.301-1.816.458-2.853.458-4.636 0-7.511-3.199-7.511-8.425 0-5.204 2.898-8.437 7.511-8.437 4.603 0 7.489 3.232 7.489 8.437 0 3.065-.981 5.471-2.73 6.82l2.017 2.92H44.18Zm-2.642-3.845-2.017-2.798h2.552l1.204 1.494c1.07-.914 1.671-2.541 1.671-4.591 0-3.745-1.916-6.108-4.936-6.108-3.031 0-4.947 2.351-4.947 6.108 0 3.756 1.906 6.096 4.959 6.096a5.758 5.758 0 0 0 1.514-.201Zm21.674 25.57h-6.506l-1.574 4.531H52.41l6.163-17.07h2.85l6.163 17.07h-2.815l-1.56-4.531ZM57.38 65.53h5.157l-2.472-7.216h-.201L57.38 65.53Z" fill="#000"/></svg>