<svg width="100" height="100" fill="none" xmlns="http://www.w3.org/2000/svg"><path d="M50 86.25S85 75 85 17.5A85.902 85.902 0 0 1 50 10a85.902 85.902 0 0 1-35 7.5C15 75 50 86.25 50 86.25Z" stroke="#000" stroke-width="3"/><path d="M45.514 76.645a1.15 1.15 0 0 1-.668-.215l-.109-.077a1.248 1.248 0 0 1 .054-2.078 1.25 1.25 0 0 1 1.39.037 1.304 1.304 0 0 1 .355 1.777 1.259 1.259 0 0 1-1.022.556Zm-4.081-3.239c-.305 0-.6-.11-.828-.313l-.097-.086a1.25 1.25 0 1 1 1.66-1.87l.094.083a1.25 1.25 0 0 1-.83 2.186Zm-3.744-3.685a1.244 1.244 0 0 1-.928-.412l-.078-.085a1.251 1.251 0 0 1 1.839-1.695l.093.104a1.25 1.25 0 0 1-.926 2.088Zm-3.395-4.085a1.164 1.164 0 0 1-.942-.474l-.092-.123a1.25 1.25 0 0 1 2.03-1.46 1.271 1.271 0 0 1-.996 2.057Zm-2.912-4.384a1.162 1.162 0 0 1-1.01-.573l-.073-.123a1.25 1.25 0 0 1 2.16-1.26 1.3 1.3 0 0 1-.4 1.764c-.204.124-.438.19-.677.192Zm-2.467-4.647a1.159 1.159 0 0 1-1.065-.67l-.058-.123a1.249 1.249 0 1 1 2.263-1.06 1.304 1.304 0 0 1-.565 1.72 1.34 1.34 0 0 1-.575.133Zm-1.966-4.802a1.25 1.25 0 0 1-1.175-.824l-.042-.115A1.25 1.25 0 0 1 28.077 50l.047.126a1.251 1.251 0 0 1-1.175 1.678ZM25.3 46.752a1.178 1.178 0 0 1-1.157-.86l-.04-.141a1.252 1.252 0 0 1 .884-1.532 1.248 1.248 0 0 1 1.531.884 1.299 1.299 0 0 1-.847 1.596c-.12.035-.245.053-.37.053Zm-1.155-5.067a1.25 1.25 0 0 1-1.227-1.019l-.02-.105a1.25 1.25 0 1 1 2.448-.504l.029.146a1.248 1.248 0 0 1-1.23 1.482Zm-.82-5.19a1.25 1.25 0 0 1-1.238-1.088l-.01-.073a1.279 1.279 0 0 1 1.081-1.424 1.227 1.227 0 0 1 1.392 1.047l.016.127a1.25 1.25 0 0 1-1.241 1.411Zm-.472-5.231a1.251 1.251 0 0 1-1.247-1.179l-.007-.128a1.25 1.25 0 0 1 2.496-.143l.007.128a1.251 1.251 0 0 1-1.25 1.322Zm49.425-5.917c-.056 0-.112-.004-.168-.011a9.757 9.757 0 0 0-.141-.02 1.25 1.25 0 0 1 .369-2.474l-.185 1.237.29-1.221a1.25 1.25 0 0 1-.165 2.489Zm-44.45-.016a1.29 1.29 0 0 1-1.285-1.061 1.204 1.204 0 0 1 1-1.41l.14-.02a1.25 1.25 0 0 1 .333 2.477 1.29 1.29 0 0 1-.188.014Zm39.402-.832a1.305 1.305 0 0 1-1.29-1.5 1.203 1.203 0 0 1 1.404-1.001l.123.024a1.25 1.25 0 0 1-.237 2.477Zm-34.343-.023a1.292 1.292 0 0 1-1.28-1 1.197 1.197 0 0 1 .928-1.454l.123-.024a1.25 1.25 0 1 1 .23 2.478Zm29.346-1.088c-.1 0-.2-.012-.296-.035a19.949 19.949 0 0 1-.138-.035 1.25 1.25 0 0 1 .623-2.42l-.311 1.21.415-1.184a1.25 1.25 0 0 1-.294 2.464Zm-24.374-.024a1.28 1.28 0 0 1-1.291-1.405 1.208 1.208 0 0 1 .89-1.032l.143-.036a1.25 1.25 0 0 1 .581 2.432 1.3 1.3 0 0 1-.323.04Zm19.44-1.346a1.304 1.304 0 0 1-1.255-1.636 1.2 1.2 0 0 1 1.503-.846l.119.037a1.25 1.25 0 0 1-.367 2.445Zm-14.498-.034a1.283 1.283 0 0 1-1.302-1.34 1.2 1.2 0 0 1 .836-1.072l.125-.038a1.25 1.25 0 1 1 .725 2.392 1.31 1.31 0 0 1-.384.058Zm9.646-1.599a1.24 1.24 0 0 1-.423-.074l-.133-.05a1.25 1.25 0 0 1 .877-2.34l-.438 1.17.54-1.133a1.25 1.25 0 0 1-.423 2.427Zm-4.798-.042a1.278 1.278 0 0 1-1.302-1.267 1.2 1.2 0 0 1 .768-1.113l.133-.05a1.25 1.25 0 1 1 .401 2.43Zm6.692 56.173a1.25 1.25 0 0 1-.751-2.25 1.294 1.294 0 0 1 1.796.184 1.208 1.208 0 0 1-.175 1.723l-.12.093c-.217.162-.48.25-.75.25Zm3.968-3.4a1.25 1.25 0 0 1-.866-2.151l.093-.089a1.249 1.249 0 1 1 1.73 1.803l-.09.089a1.246 1.246 0 0 1-.867.348Zm3.612-3.777a1.249 1.249 0 0 1-.945-2.068l.085-.098a1.25 1.25 0 0 1 1.888 1.638l-.082.096a1.247 1.247 0 0 1-.946.432Zm3.252-4.09a1.249 1.249 0 0 1-1.014-1.98l.082-.111a1.25 1.25 0 0 1 2.017 1.477l-.069.094a1.25 1.25 0 0 1-1.016.52Zm2.885-4.357a1.25 1.25 0 0 1-1.074-1.888l.069-.114a1.25 1.25 0 0 1 2.143 1.286l-.062.104a1.25 1.25 0 0 1-1.076.612Zm2.501-4.586a1.25 1.25 0 0 1-1.125-1.795l.06-.122a1.25 1.25 0 0 1 2.243 1.104l-.052.107a1.25 1.25 0 0 1-1.126.706Zm2.105-4.781a1.252 1.252 0 0 1-1.16-1.715 1.3 1.3 0 0 1 1.635-.77 1.203 1.203 0 0 1 .738 1.564l-.051.135a1.253 1.253 0 0 1-1.162.786Zm1.707-4.938a1.252 1.252 0 0 1-1.197-1.613 1.304 1.304 0 0 1 1.573-.899 1.199 1.199 0 0 1 .858 1.497l-.038.127a1.252 1.252 0 0 1-1.196.888Zm1.306-5.058a1.25 1.25 0 0 1-1.225-1.502l.03-.141a1.25 1.25 0 0 1 2.442.538l-.023.107a1.25 1.25 0 0 1-1.224.998Zm.914-5.143a1.25 1.25 0 0 1-1.242-1.412l.02-.143a1.25 1.25 0 0 1 2.475.359l-.015.108a1.25 1.25 0 0 1-1.238 1.088Zm.532-5.255c-.025 0-.05 0-.074-.002a1.2 1.2 0 0 1-1.172-1.26l.01-.137a1.25 1.25 0 0 1 2.494.17v.009a1.31 1.31 0 0 1-1.258 1.22Z" fill="#000"/><path d="M55 41.25a5.001 5.001 0 1 0-7.203 4.467L46.25 55h7.5l-1.547-9.283A4.985 4.985 0 0 0 55 41.25Z" stroke="#000" stroke-width="3"/><path d="M22.5 26.25a1.25 1.25 0 1 0 0-2.5 1.25 1.25 0 0 0 0 2.5Zm55 0a1.25 1.25 0 1 0 0-2.5 1.25 1.25 0 0 0 0 2.5ZM50 80a1.25 1.25 0 1 0 0-2.5 1.25 1.25 0 0 0 0 2.5Z" fill="#000"/><path d="M8.75 66.25a5 5 0 1 0 0-10 5 5 0 0 0 0 10Zm2.5 17.5a5 5 0 1 0 0-10 5 5 0 0 0 0 10ZM28.75 95a5 5 0 1 0 0-10 5 5 0 0 0 0 10Z" stroke="#000" stroke-width="3"/><path d="M16.25 78.75h10V64.375M33.75 90H40v-9.375M13.75 61.25H20v-10" stroke="#000" stroke-width="3" stroke-linejoin="round"/><path d="M91.25 66.25a5 5 0 1 0 0-10 5 5 0 0 0 0 10Zm-2.5 17.5a5 5 0 1 0 0-10 5 5 0 0 0 0 10ZM71.25 95a5 5 0 1 0 0-10 5 5 0 0 0 0 10Z" stroke="#000" stroke-width="3"/><path d="M83.75 78.75h-10V64.375M66.25 90H60v-9.375M86.25 61.25H80v-10" stroke="#000" stroke-width="3" stroke-linejoin="round"/></svg>