<svg width="100" height="100" fill="none" xmlns="http://www.w3.org/2000/svg"><path d="M62.678 78.75a1.25 1.25 0 1 0 0 2.5 1.25 1.25 0 0 0 0-2.5Zm0-35a1.25 1.25 0 1 0 0 2.5 1.25 1.25 0 0 0 0-2.5Zm-45 17.5a1.25 1.25 0 1 0 0 2.5 1.25 1.25 0 0 0 0-2.5Zm0 5a1.25 1.25 0 1 0 0 2.5 1.25 1.25 0 0 0 0-2.5Zm0 5a1.25 1.25 0 1 0 0 2.5 1.25 1.25 0 0 0 0-2.5Zm1.25 5a1.25 1.25 0 1 0 0 2.5 1.25 1.25 0 0 0 0-2.5Zm3.75 3.75a1.25 1.25 0 1 0 0 2.5 1.25 1.25 0 0 0 0-2.5Zm5 1.25a1.25 1.25 0 1 0 0 2.5 1.25 1.25 0 0 0 0-2.5Zm5 0a1.25 1.25 0 1 0 0 2.5 1.25 1.25 0 0 0 0-2.5Zm5 0a1.25 1.25 0 1 0 0 2.5 1.25 1.25 0 0 0 0-2.5Zm45-45a1.25 1.25 0 1 0 0 2.5 1.25 1.25 0 0 0 0-2.5Zm0-5a1.25 1.25 0 1 0 0 2.5 1.25 1.25 0 0 0 0-2.5Zm0-5a1.25 1.25 0 1 0 0 2.5 1.25 1.25 0 0 0 0-2.5Zm-1.25-5a1.25 1.25 0 1 0 0 2.5 1.25 1.25 0 0 0 0-2.5Zm-3.75-3.75a1.25 1.25 0 1 0 0 2.5 1.25 1.25 0 0 0 0-2.5Zm-5-1.25a1.25 1.25 0 1 0 0 2.5 1.25 1.25 0 0 0 0-2.5Zm-5 0a1.25 1.25 0 1 0 0 2.5 1.25 1.25 0 0 0 0-2.5Zm-5 0a1.25 1.25 0 1 0 0 2.5 1.25 1.25 0 0 0 0-2.5Zm-17.5 45a1.25 1.25 0 1 0 0 2.5 1.25 1.25 0 0 0 0-2.5Zm35 0a1.25 1.25 0 1 0 0 2.5 1.25 1.25 0 0 0 0-2.5ZM49.42 73.989a1.249 1.249 0 1 0 1.767 0 1.25 1.25 0 0 0-1.768 0Zm24.747-24.746a1.249 1.249 0 1 0 1.768 1.768 1.249 1.249 0 1 0-1.767-1.768Zm-24.747-.001a1.249 1.249 0 1 0 1.767 0 1.25 1.25 0 0 0-1.768 0ZM74.167 73.99a1.249 1.249 0 1 0 1.768 1.768 1.249 1.249 0 0 0 0-1.767 1.249 1.249 0 0 0-1.768 0Zm-5.27 3.522a1.25 1.25 0 1 0 .956 2.31 1.25 1.25 0 0 0-.956-2.31ZM55.502 45.176a1.25 1.25 0 1 0 .956 2.31 1.25 1.25 0 0 0-.956-2.31ZM46.034 68.04a1.25 1.25 0 1 0 .956 2.31 1.25 1.25 0 0 0-.956-2.31Zm32.334-13.393a1.25 1.25 0 1 0 .955 2.309 1.25 1.25 0 0 0-.955-2.31ZM54.826 78.188a1.251 1.251 0 0 0 2.31.958 1.252 1.252 0 0 0-.677-1.634 1.249 1.249 0 0 0-1.633.676ZM68.22 45.853a1.251 1.251 0 0 0 2.31.958 1.252 1.252 0 0 0-2.31-.958Zm-22.865 9.47a1.251 1.251 0 0 0 2.31.957 1.252 1.252 0 0 0-2.31-.957Zm32.336 13.392a1.251 1.251 0 0 0 2.31.957 1.252 1.252 0 0 0-2.31-.957ZM37.678 53.75a1.25 1.25 0 1 0 0 2.5 1.25 1.25 0 0 0 0-2.5Zm0-35a1.25 1.25 0 1 0 0 2.5 1.25 1.25 0 0 0 0-2.5Zm-17.5 17.5a1.25 1.25 0 1 0 0 2.5 1.25 1.25 0 0 0 0-2.5Zm35 0a1.25 1.25 0 1 0 0 2.5 1.25 1.25 0 0 0 0-2.5ZM24.42 48.989a1.249 1.249 0 1 0 1.768 0 1.25 1.25 0 0 0-1.769 0Zm24.747-24.745a1.249 1.249 0 0 0 0 1.767c.49.489 1.28.489 1.768 0a1.249 1.249 0 1 0-1.768-1.767ZM24.42 24.24a1.249 1.249 0 1 0 1.768 0 1.249 1.249 0 0 0-1.769 0Zm6.083-4.062a1.25 1.25 0 1 0 .955 2.31 1.25 1.25 0 0 0-.955-2.31Zm-9.469 22.864a1.25 1.25 0 1 0 .956 2.31 1.25 1.25 0 0 0-.956-2.31Zm32.332-13.396a1.25 1.25 0 1 0 .956 2.31 1.25 1.25 0 0 0-.956-2.31Zm-23.54 23.542a1.251 1.251 0 0 0 2.31.958 1.252 1.252 0 0 0-.677-1.634 1.248 1.248 0 0 0-1.633.676ZM43.22 20.853a1.251 1.251 0 0 0 2.31.958 1.252 1.252 0 0 0-2.31-.958Zm-22.865 9.469a1.251 1.251 0 0 0 2.31.958 1.252 1.252 0 0 0-2.31-.958Z" fill="#000"/><path d="M61.361 38.816c.024-.439.067-.871.067-1.316 0-13.116-10.634-23.75-23.75-23.75s-23.75 10.634-23.75 23.75 10.633 23.75 23.75 23.75c.445 0 .877-.042 1.316-.066" stroke="#000" stroke-width="3" stroke-miterlimit="10"/><path d="M62.678 38.75c-13.116 0-23.75 10.634-23.75 23.75s10.634 23.75 23.75 23.75 23.75-10.634 23.75-23.75-10.634-23.75-23.75-23.75Z" stroke="#000" stroke-width="3" stroke-miterlimit="10"/><path d="M71.428 71.25h-14l7-19.834m-10.5 11.668 14-3.5" stroke="#000" stroke-width="2.5" stroke-miterlimit="10" stroke-linejoin="round"/><path d="M44.958 34.648c.333-2.521-1.361-3.877-3.678-4.781l.751-3.417-1.835-.518-.731 3.326a69.213 69.213 0 0 0-1.47-.392l.736-3.348L36.898 25l-.753 3.415a55.09 55.09 0 0 1-1.171-.312l.002-.01-2.53-.717-.489 2.221s1.362.354 1.333.376c.743.21.877.767.855 1.209l-.856 3.892c.051.015.117.036.19.069l-.193-.054-1.2 5.451c-.091.256-.322.64-.841.494.018.03-1.334-.377-1.334-.377L29 43.037l2.388.675c.444.126.88.258 1.308.382l-.76 3.456 1.834.518.752-3.419c.5.154.986.296 1.462.43l-.75 3.403L37.07 49l.76-3.449c3.129.671 5.482.4 6.472-2.806.798-2.583-.04-4.072-1.686-5.043 1.2-.314 2.102-1.207 2.343-3.053Zm-4.192 6.663c-.567 2.582-4.404 1.186-5.648.836l1.008-4.578c1.244.352 5.232 1.049 4.64 3.742Zm.567-6.7c-.517 2.349-3.71 1.156-4.746.863l.913-4.152c1.036.293 4.372.839 3.833 3.29Z" fill="#000"/></svg>